<svg width="17" height="16" viewBox="0 0 17 16" fill="none" xmlns="http://www.w3.org/2000/svg">
<g clip-path="url(#clip0_3476_6402)">
<path fill-rule="evenodd" clip-rule="evenodd" d="M8.32046 1.73512C8.18566 1.82339 8.07662 1.94972 8.00553 2.09999L6.51832 5.25599L3.19351 5.76499C3.03521 5.78918 2.88648 5.86006 2.76426 5.96958C2.64203 6.07909 2.55121 6.22283 2.50214 6.38445C2.45307 6.54606 2.44772 6.71905 2.48669 6.88374C2.52566 7.04843 2.60739 7.19819 2.72258 7.31599L5.1187 9.76099L4.55357 13.216C4.52644 13.3824 4.54362 13.5536 4.60317 13.7102C4.66272 13.8668 4.76227 14.0027 4.89062 14.1025C5.01897 14.2022 5.17102 14.262 5.32963 14.275C5.48824 14.288 5.64712 14.2537 5.78837 14.176L8.76939 12.535L11.7504 14.176C11.8917 14.2537 12.0505 14.288 12.2091 14.275C12.3678 14.262 12.5198 14.2022 12.6482 14.1025C12.7765 14.0027 12.8761 13.8668 12.9356 13.7102C12.9952 13.5536 13.0123 13.3824 12.9852 13.216L12.4201 9.76099L14.8171 7.31699C14.9323 7.19919 15.0141 7.04943 15.053 6.88474C15.092 6.72005 15.0866 6.54706 15.0376 6.38545C14.9885 6.22383 14.8977 6.08009 14.7755 5.97058C14.6532 5.86106 14.5045 5.79018 14.3462 5.76599L11.0214 5.25699L9.5323 2.09999C9.46121 1.94972 9.35217 1.82339 9.21737 1.73512C9.08256 1.64685 8.9273 1.6001 8.76892 1.6001C8.61053 1.6001 8.45527 1.64685 8.32046 1.73512Z" fill="#DDDDDD"/>
<g clip-path="url(#clip1_3476_6402)">
<path fill-rule="evenodd" clip-rule="evenodd" d="M8.32046 1.73512C8.18566 1.82339 8.07662 1.94972 8.00553 2.09999L6.51832 5.25599L3.19351 5.76499C3.03521 5.78918 2.88648 5.86006 2.76426 5.96958C2.64203 6.07909 2.55121 6.22283 2.50214 6.38445C2.45307 6.54606 2.44772 6.71905 2.48669 6.88374C2.52566 7.04843 2.60739 7.19819 2.72258 7.31599L5.1187 9.76099L4.55357 13.216C4.52644 13.3824 4.54362 13.5536 4.60317 13.7102C4.66272 13.8668 4.76227 14.0027 4.89062 14.1025C5.01897 14.2022 5.17102 14.262 5.32963 14.275C5.48824 14.288 5.64712 14.2537 5.78837 14.176L8.76939 12.535L11.7504 14.176C11.8917 14.2537 12.0505 14.288 12.2091 14.275C12.3678 14.262 12.5198 14.2022 12.6482 14.1025C12.7765 14.0027 12.8761 13.8668 12.9356 13.7102C12.9952 13.5536 13.0123 13.3824 12.9852 13.216L12.4201 9.76099L14.8171 7.31699C14.9323 7.19919 15.0141 7.04943 15.053 6.88474C15.092 6.72005 15.0866 6.54706 15.0376 6.38545C14.9885 6.22383 14.8977 6.08009 14.7755 5.97058C14.6532 5.86106 14.5045 5.79018 14.3462 5.76599L11.0214 5.25699L9.5323 2.09999C9.46121 1.94972 9.35217 1.82339 9.21737 1.73512C9.08256 1.64685 8.9273 1.6001 8.76892 1.6001C8.61053 1.6001 8.45527 1.64685 8.32046 1.73512Z" fill="#FFAE00"/>
</g>
</g>
<defs>
<clipPath id="clip0_3476_6402">
<rect width="16" height="16" fill="white" transform="translate(0.693359)"/>
</clipPath>
<clipPath id="clip1_3476_6402">
<rect width="8" height="16" fill="white" transform="translate(0.693359)"/>
</clipPath>
</defs>
</svg>
