<svg width="328" height="200" viewBox="0 0 328 200" fill="none" xmlns="http://www.w3.org/2000/svg">
<g clip-path="url(#clip0_652_3877)">
<rect width="75.2374" height="18.7341" transform="translate(28.7227 16.625)" fill="#484848"/>
<path d="M28.7227 16.6484V35.3075L103.96 35.3581V16.6484H28.7227Z" fill="#484848"/>
<path d="M58.8059 21.13L54.5925 27.3695C54.1542 28.0298 53.3855 28.4289 52.5808 28.4289C51.2706 28.4289 50.186 27.3523 50.186 26.0533C50.186 24.735 51.2706 23.6604 52.59 23.6604C52.7208 23.6437 52.8962 23.6253 53.0186 23.6253C53.9282 23.6253 54.8548 24.0069 55.4844 24.6489L56.7428 22.7417C55.764 21.7369 54.3125 21.0938 52.8607 21.0938C50.1505 21.0938 47.668 23.3303 47.668 26.0349C47.668 28.7236 49.8885 30.9246 52.5996 30.9246C53.9106 30.9246 55.2217 30.37 56.1312 29.4505H59.0336L59.0508 30.9246H61.5697V21.13H58.806H58.8059ZM57.6532 27.3005L59.0336 25.3778L59.0508 27.3005H57.6533H57.6532Z" fill="white"/>
<path d="M66.3942 30.9274H63.8762V23.42H61.918V21.1492L68.3516 21.1328V23.42H66.3942V30.9274V30.9274Z" fill="white"/>
<path d="M76.7427 21.133L74.2246 21.1336L74.2071 24.7904H71.2341L71.2153 21.1328H68.6992V30.9274H71.234V27.0609H74.2245V30.9274H76.7426V21.1328L76.7427 21.133Z" fill="white"/>
<path d="M96.9267 21.1328V25.6908L93.4649 21.1328L91.1734 21.1488L91.1561 24.7211C90.5792 22.6404 88.603 21.1328 86.4 21.1328C83.6901 21.1328 81.4692 23.3331 81.4692 26.0377C81.4692 26.9061 81.7312 27.7882 82.1502 28.5521H79.6557V21.1328H77.0898V30.9274H82.9557V29.557C83.8823 30.4071 85.1412 30.9274 86.4 30.9274C88.603 30.9274 90.5445 29.4533 91.1561 27.3723L91.1734 30.9274H93.7097V26.1609L97.1528 30.9274H99.4428L99.446 21.1328H96.9271H96.9267ZM86.4 28.535C85.0188 28.535 83.8824 27.4257 83.8824 26.0377C83.8824 24.6688 85.0188 23.5424 86.4 23.5424C87.7996 23.5424 88.936 24.6688 88.936 26.0377C88.936 27.4257 87.7996 28.535 86.4 28.535Z" fill="white"/>
<path d="M44.6206 28.5521V27.1813H47.3229L47.3181 24.79H44.6206V23.5424H47.5992L47.5941 21.1328L41.859 21.1488V24.5125C41.2645 22.6751 39.5503 21.3222 37.5921 21.1488L33.2383 21.1328V30.927H37.6101C39.5503 30.7544 41.2645 29.4023 41.859 27.5816V30.927H47.5992L47.5941 28.5521H44.6207H44.6206ZM39.0786 27.529C38.9218 28.1885 38.2918 28.6554 37.61 28.673H36.0015V23.4196H37.61C38.2918 23.4196 38.9218 23.9072 39.0786 24.5823C39.2365 25.0333 39.3238 25.5532 39.3238 26.0377C39.3238 26.5417 39.2365 27.0609 39.0786 27.529Z" fill="white"/>
</g>
<path d="M65.6834 76.4648C65.6651 76.5447 65.6459 76.6081 65.6366 76.6729C65.516 77.4898 65.3969 78.3067 65.2768 79.1236C65.1415 80.0436 65.0085 80.9641 64.8692 81.8836C64.8014 82.3323 64.6429 82.4648 64.1818 82.4662C63.3082 82.4689 62.4346 82.4671 61.5614 82.4666C61.4949 82.4666 61.428 82.4657 61.3628 82.4568C61.0329 82.4131 60.8209 82.1519 60.8601 81.818C60.9034 81.4506 60.9628 81.085 61.0168 80.7185C61.1208 80.0146 61.2262 79.3106 61.3302 78.6066C61.4739 77.6304 61.6159 76.6537 61.7601 75.677C61.94 74.4565 62.1217 73.2365 62.3024 72.0161C62.4373 71.1054 62.5734 70.1952 62.7042 69.2837C62.7578 68.9092 62.8354 68.6775 63.4269 68.6677C63.8729 68.6605 64.3193 68.6663 64.7657 68.6659C65.1357 68.6659 65.5062 68.6636 65.8763 68.6672C65.9799 68.6681 66.0834 68.6837 66.187 68.6962C66.4066 68.7226 66.5468 68.8534 66.6356 69.0471C66.6713 69.1248 66.7026 69.2042 66.7347 69.2832C67.4355 70.9961 68.1359 72.7089 68.8372 74.4217C68.8654 74.4904 68.8988 74.5569 68.9381 74.6431C69.0082 74.5717 69.0086 74.4958 69.0185 74.4279C69.1368 73.6302 69.2533 72.8316 69.3707 72.0339C69.5059 71.1139 69.6416 70.1939 69.7782 69.2739C69.7894 69.1989 69.8019 69.1225 69.8278 69.052C69.8934 68.8734 70.0068 68.7382 70.205 68.702C70.3072 68.6837 70.4112 68.6681 70.5148 68.6677C71.3598 68.665 72.2048 68.665 73.0499 68.6677C73.1534 68.6681 73.2588 68.6801 73.3597 68.7029C73.6695 68.773 73.8386 69.0199 73.7936 69.3355C73.7226 69.8332 73.6471 70.3305 73.5735 70.8282C73.4097 71.9362 73.2463 73.0437 73.0825 74.1516C72.9008 75.3814 72.7182 76.6113 72.537 77.8411C72.3763 78.9303 72.2169 80.0195 72.0566 81.1087C72.0178 81.3716 71.9799 81.6346 71.9397 81.897C71.9294 81.9627 71.9169 82.0287 71.8968 82.0917C71.8379 82.2774 71.7151 82.4019 71.5214 82.4416C71.4294 82.4604 71.333 82.4662 71.2388 82.4662C70.4032 82.468 69.568 82.4653 68.7323 82.4684C68.3873 82.4698 68.1645 82.4265 67.9766 81.9631C67.2677 80.2128 66.5468 78.4674 65.829 76.7202C65.7928 76.6358 65.7723 76.5403 65.6834 76.4648Z" fill="#484848"/>
<path d="M85.5586 77.0775C85.5787 76.1338 85.6979 75.3191 85.8831 74.5116C86.1322 73.4269 86.5558 72.4185 87.1719 71.4909C87.9017 70.3918 88.8374 69.5227 90.0377 68.9598C90.9912 68.5125 91.9996 68.2991 93.0522 68.3741C94.0022 68.442 94.8976 68.6995 95.6967 69.2477C96.5694 69.8468 97.197 70.6391 97.5765 71.6212C97.9782 72.6622 98.1541 73.7398 98.0541 74.8598C97.959 75.9249 97.7568 76.9646 97.3515 77.9569C96.8894 79.0881 96.2306 80.0911 95.3293 80.9205C94.441 81.7388 93.4143 82.3097 92.2282 82.5833C91.5282 82.7449 90.8243 82.819 90.1091 82.7347C89.2789 82.6365 88.4968 82.3999 87.7973 81.92C87.0228 81.3883 86.4621 80.6871 86.1014 79.8264C85.8206 79.1568 85.6599 78.4546 85.5961 77.7315C85.5733 77.4757 85.5662 77.219 85.5586 77.0775ZM94.0981 74.6004C94.1062 74.1996 94.078 73.8018 93.9865 73.4121C93.883 72.972 93.7035 72.5676 93.3701 72.2457C93.2009 72.0828 93.0027 71.9774 92.7719 71.9381C92.3367 71.864 91.9211 71.9154 91.5363 72.1457C91.2479 72.318 91.0055 72.5435 90.7895 72.7984C90.4221 73.2305 90.1699 73.7269 89.9734 74.2558C89.5681 75.3486 89.4628 76.4695 89.6578 77.6167C89.7302 78.0431 89.8873 78.4386 90.1614 78.7801C90.373 79.0439 90.6439 79.2028 90.985 79.2349C91.4474 79.2787 91.8706 79.1747 92.2496 78.9019C92.5683 78.672 92.8433 78.3979 93.0571 78.068C93.7388 77.0128 94.0888 75.8571 94.0981 74.6004Z" fill="#484848"/>
<path d="M52.0218 68.6649C52.4298 68.6649 52.8383 68.6622 53.2463 68.6666C53.3592 68.668 53.4744 68.6778 53.5842 68.7019C53.894 68.7693 54.0636 69.013 54.0252 69.3318C53.9989 69.5483 53.9619 69.7634 53.9297 69.9795C53.6529 71.8472 53.3757 73.7149 53.099 75.5827C53.003 76.2304 52.9021 76.8772 52.8173 77.5263C52.7892 77.741 52.7789 77.9651 52.807 78.1784C52.8686 78.6418 53.1061 78.9989 53.5512 79.1775C53.8708 79.3056 54.2029 79.2913 54.5225 79.1618C55.0573 78.9449 55.4367 78.5606 55.684 78.0441C55.7787 77.8468 55.8447 77.6405 55.8769 77.4214C56.0791 76.0317 56.2858 74.643 56.4916 73.2538C56.6737 72.0244 56.8572 70.7951 57.0402 69.5657C57.0625 69.4157 57.0835 69.2653 57.113 69.1166C57.1598 68.8765 57.3036 68.73 57.5495 68.6948C57.6428 68.6814 57.7375 68.6671 57.8317 68.6666C58.6669 68.6644 59.5025 68.6644 60.3377 68.6666C60.4319 68.6671 60.5274 68.6774 60.6194 68.6961C60.9618 68.7657 61.1372 69.0077 61.0935 69.3559C61.0613 69.6099 61.0189 69.863 60.9814 70.1161C60.8752 70.8294 60.7676 71.5423 60.6623 72.2557C60.5167 73.2413 60.3734 74.2274 60.2275 75.2126C60.1261 75.8978 60.0288 76.5835 59.9177 77.2669C59.7891 78.0588 59.5632 78.8204 59.1682 79.5248C58.7936 80.1926 58.3352 80.7925 57.7464 81.288C56.9384 81.9683 56.0157 82.4036 54.9828 82.6254C53.8882 82.8602 52.8097 82.8201 51.7562 82.4487C50.3545 81.9549 49.4318 80.9952 49.01 79.5569C48.756 78.6905 48.7439 77.8186 48.8761 76.9352C49.0836 75.5465 49.2863 74.1569 49.4912 72.7677C49.6617 71.6133 49.8354 70.4589 50.001 69.3041C50.0684 68.8354 50.251 68.668 50.7398 68.6658C51.1674 68.6635 51.5946 68.6649 52.0218 68.6649Z" fill="#484848"/>
<path d="M80.2019 72.2512C80.1478 72.236 80.1135 72.2195 80.0782 72.2177C79.9929 72.2128 79.9072 72.2141 79.822 72.2141C78.4926 72.2141 77.1637 72.2145 75.8343 72.2132C75.7209 72.2132 75.6053 72.2128 75.4937 72.1949C75.1576 72.1409 74.9781 71.9119 75.0049 71.5749C75.0156 71.4427 75.0411 71.3119 75.0607 71.1802C75.1536 70.5513 75.246 69.9223 75.3402 69.2933C75.3527 69.209 75.3674 69.1242 75.3924 69.0429C75.4473 68.867 75.5629 68.7478 75.7468 68.7094C75.8486 68.6885 75.9526 68.6773 76.0557 68.667C76.112 68.6612 76.1696 68.6657 76.2267 68.6657C79.4452 68.6657 82.6637 68.6653 85.8822 68.6675C86.0331 68.6675 86.1871 68.6751 86.3335 68.7063C86.6246 68.7693 86.7893 69.0362 86.7389 69.3295C86.7139 69.475 86.6407 69.5942 86.5523 69.708C86.209 70.1504 85.8657 70.5928 85.5242 71.0365C84.0252 72.9846 82.5271 74.9331 81.0281 76.8816C80.5594 77.4909 80.0903 78.0998 79.622 78.7096C79.584 78.7592 79.5541 78.8145 79.5122 78.8801C79.6117 78.9306 79.697 78.9158 79.7782 78.9158C80.775 78.9167 81.7718 78.9167 82.7686 78.9167C83.1007 78.9167 83.4333 78.9149 83.7654 78.9181C83.8596 78.919 83.9534 78.9332 84.0471 78.9444C84.3998 78.9864 84.5694 79.3471 84.5243 79.6086C84.4792 79.8702 84.4453 80.1341 84.406 80.397C84.3346 80.8755 84.2636 81.3545 84.1908 81.833C84.1797 81.908 84.1645 81.9826 84.1471 82.0562C84.0935 82.2857 83.9444 82.416 83.7159 82.4504C83.6132 82.466 83.5079 82.466 83.4039 82.466C82.0937 82.4669 80.7835 82.4665 79.4733 82.4665C77.5842 82.4665 75.6946 82.4665 73.8055 82.466C73.701 82.466 73.5965 82.4656 73.4925 82.4575C73.0024 82.4183 72.8912 81.8879 73.0658 81.6076C73.101 81.5514 73.1385 81.4964 73.1792 81.4438C74.8652 79.2448 76.5521 77.0459 78.2382 74.8469C78.856 74.0412 79.472 73.2341 80.088 72.427C80.1278 72.3766 80.1581 72.3199 80.2019 72.2512Z" fill="#484848"/>
<path d="M34.6336 82.0417C35.126 81.3159 38.3329 76.8778 38.9503 76.0265C39.0382 75.9051 39.2387 75.7989 39.4212 75.9596C39.4302 75.9676 39.5918 76.1158 39.6002 76.1234C40.4238 76.8537 41.0198 77.3497 41.8425 78.0809C41.8809 78.1148 41.9197 78.1478 41.9594 78.1809C42.0434 78.2505 42.1693 78.234 42.2304 78.1442C42.2527 78.1117 42.2724 78.0786 42.2947 78.0478C42.9687 77.1184 43.6406 76.1873 44.3128 75.2565C45.1521 74.095 45.9908 72.9335 46.831 71.7728L46.8323 71.7711C46.9149 71.6572 47.0876 71.6751 47.1479 71.8019C47.1506 71.8072 47.1528 71.8126 47.1555 71.8179C47.4006 72.3045 47.5488 72.8241 47.6648 73.3535C47.855 74.2204 47.8112 75.086 47.6523 75.9538C47.3943 77.3613 46.7743 78.5911 45.8551 79.6772C44.9543 80.7423 43.8517 81.5288 42.5456 82.0167C41.7858 82.3006 40.9975 82.4618 40.1806 82.4613C38.5293 82.4604 36.8781 82.4627 35.2269 82.4622C35.1416 82.4622 35.0559 82.4582 34.972 82.4448C34.8252 82.4221 34.7078 82.36 34.6328 82.2475C34.5908 82.1855 34.5912 82.1038 34.6336 82.0417Z" fill="#484848"/>
<path d="M41.7635 75.4822C41.7461 75.5135 41.6742 75.6238 41.5296 75.5171C41.4519 75.4595 41.4791 75.4845 41.4166 75.4314C40.5877 74.7216 39.8788 74.1109 39.0507 73.3994C38.8168 73.1882 38.5883 73.2851 38.4744 73.5422C37.9365 74.652 37.4803 75.5782 36.9433 76.6884C36.2121 78.1999 35.4805 79.7114 34.7479 81.2224C34.681 81.3751 34.5886 81.3367 34.5984 81.2671C34.7051 80.535 34.8126 79.8029 34.9207 79.0713C35.0827 77.9731 35.2448 76.8754 35.4068 75.7773C35.5688 74.6792 35.73 73.5815 35.8916 72.4834C36.038 71.4888 36.184 70.4938 36.3313 69.4992C36.3491 69.3773 36.3657 69.2546 36.3951 69.1349C36.4523 68.9042 36.5857 68.7448 36.8339 68.7091C36.9272 68.6957 37.0219 68.6836 37.116 68.6836C38.7485 68.6823 40.3805 68.6743 42.013 68.6859C42.9652 68.6926 43.8758 68.8993 44.7262 69.3407C44.732 69.3439 44.7378 69.347 44.7436 69.3501C44.6905 69.4671 42.7781 73.3882 41.7635 75.4822Z" fill="#484848"/>
<path d="M79.8455 130.184C83.7924 130.184 87.0039 126.952 87.0039 122.979C87.0039 119.004 83.7924 115.773 79.8455 115.773C75.8978 115.773 72.6871 119.004 72.6871 122.979C72.6871 126.952 75.8978 130.184 79.8455 130.184ZM79.8455 120.41C81.2521 120.41 82.3976 121.562 82.3976 122.978C82.3976 124.394 81.2513 125.545 79.8447 125.545C78.4373 125.545 77.2934 124.394 77.2934 122.977C77.2934 121.56 78.4381 120.408 79.8447 120.408L79.8455 120.41ZM52.8381 130.184C56.785 130.184 59.9965 126.952 59.9965 122.979C59.9965 119.004 56.785 115.773 52.8381 115.773C48.8919 115.773 45.6797 119.004 45.6797 122.979C45.6797 126.952 48.8919 130.184 52.8381 130.184ZM52.8381 120.41C54.2454 120.41 55.3902 121.562 55.3902 122.978C55.3902 124.394 54.2454 125.545 52.8381 125.545C51.4315 125.545 50.2876 124.394 50.2876 122.977C50.2876 121.56 51.4323 120.408 52.8381 120.408V120.41ZM66.3379 120.247L64.1402 115.868H58.9944L63.8007 125.449V129.959H68.8758V125.449L73.6821 115.868H68.534L66.3386 120.247H66.3379Z" fill="#484848"/>
<path d="M157.443 19.1282C157.946 18.1635 156.318 18.4348 156.318 18.4348C155.735 18.4348 155.474 19.1382 155.353 19.3392L153.595 22.806C153.263 23.3788 152.168 25.8307 151.806 26.3733C151.776 25.8206 151.816 24.7153 151.826 24.454C151.896 23.4089 151.967 22.6151 152.077 21.6604C152.158 20.9168 152.318 20.0828 152.168 19.3392C152.067 18.8769 151.917 18.8468 151.253 18.7765C150.56 18.7061 150.088 19.711 149.857 20.1833C149.012 21.9318 148.068 23.64 147.314 25.4287C147.093 25.9512 146.822 26.4738 146.591 26.9863C146.319 27.6093 146.068 28.2223 145.777 28.8352C145.465 29.4784 144.49 31.5886 144.219 32.2518C143.918 32.9753 143.857 33.5581 145.063 33.528C145.254 33.528 145.676 33.5682 146.199 33.0055C146.611 32.5633 146.691 32.1513 146.932 31.5383C147.797 29.3678 148.41 27.9308 149.354 25.7804C149.445 25.5694 149.656 24.9564 149.867 24.4841C149.857 25.1574 149.746 25.9613 149.696 26.4939C149.535 28.4433 149.424 30.3224 149.254 32.2518C149.233 32.5131 149.163 32.8246 149.284 33.0658C149.404 33.3069 149.706 33.3672 149.947 33.3974C150.912 33.5179 151.012 33.0356 151.314 32.3724C151.585 31.7795 151.746 31.2972 151.987 30.6943C152.73 28.8352 153.514 26.9963 154.378 25.1875C154.6 24.7253 154.821 24.2731 155.062 23.8209C155.504 22.9869 155.866 22.2031 156.348 21.2786C156.71 20.6154 157.061 19.8617 157.443 19.1282ZM190.554 24.3635C190.443 23.2481 188.916 23.8109 188.002 23.9817C187.66 24.042 186.605 24.243 185.389 24.4741C185.339 23.218 185.359 23.4692 185.349 22.7055C185.319 21.6001 185.258 20.736 185.198 19.7612C185.158 19.1483 185.067 18.2941 183.962 18.4549C182.676 18.6358 182.465 19.2789 182.123 20.0526C181.229 22.0724 181.259 22.0825 180.244 24.3334C180.164 24.5042 179.792 25.4086 179.731 25.5895C179.691 25.5995 179.611 25.6196 179.51 25.6498C179.098 25.7402 178.596 25.8508 178.043 25.9713L178.053 25.9211C178.184 24.8961 178.345 23.8712 178.485 22.8462C178.616 21.9117 178.757 20.3842 178.867 19.4497C178.988 18.4448 177.822 18.4649 177.822 18.4649C177.109 18.4247 176.837 18.6358 176.385 19.2186C175.611 20.2235 174.677 21.3087 173.853 22.4141C172.356 24.4138 171.26 25.9211 169.904 27.9308C169.512 28.5137 168.909 29.398 168.386 30.0913C168.035 29.398 167.733 28.6343 167.442 27.9308C167.02 26.926 166.708 26.303 166.507 25.6397C166.326 25.0569 166.547 24.9765 166.98 24.6449C168.226 23.7003 169.632 23.0472 170.909 22.1428C171.813 21.4997 172.898 20.7862 173.783 20.123C173.783 20.123 174.295 19.8215 174.576 19.4397C174.928 18.9573 173.933 18.4549 173.933 18.4549C173.371 18.3645 173.059 18.4951 172.667 18.676C172.265 18.8568 171.743 19.2688 171.401 19.5402C170.647 20.123 169.693 20.8163 168.949 21.3992C168.035 22.1126 167.412 22.5548 166.407 23.1476L168.959 19.3291C169.793 18.2539 167.582 17.9525 166.738 19.088C165.955 20.1029 165.422 20.9972 164.809 21.9217C163.332 24.1224 162.116 26.4336 160.9 28.8553C160.438 29.7798 159.986 30.7445 159.564 31.6991C159.363 32.1614 158.77 33.2265 159.584 33.3371C161.322 33.5581 161.603 32.7341 161.995 31.7393C162.639 30.1014 162.85 29.7999 163.262 28.785C163.663 27.8002 163.955 27.2375 164.407 26.3934C164.417 26.3833 164.548 26.1723 164.548 26.1723C164.628 26.3431 165.161 28.1117 165.231 28.3127C165.593 29.2673 166.226 31.4981 166.588 32.5131C166.849 33.3572 166.919 33.5983 168.055 33.5682C168.618 33.5581 168.859 33.3371 169.23 32.6337C169.602 31.9302 171.21 28.9357 171.21 28.9357C171.692 28.8553 172.386 28.7347 172.838 28.6544C172.918 28.6443 173.099 28.6041 173.35 28.5539C173.521 28.5338 173.662 28.5036 173.773 28.4735C173.783 28.4735 173.783 28.4735 173.793 28.4634C174.235 28.373 174.797 28.2625 175.41 28.1419C175.3 28.6946 174.958 29.9104 174.888 30.222C174.888 30.222 174.144 33.116 175.109 33.2667C175.712 33.3572 176.023 33.2567 176.023 33.2567C177.149 33.126 177.169 31.6087 177.169 31.6087L177.782 27.6796C178.224 27.5892 178.666 27.4988 179.098 27.4184L177.772 31.9001C177.581 32.5332 177.44 33.3471 178.576 33.3471C179.5 33.3974 179.561 32.8145 179.561 32.8145C179.581 32.7241 180.314 30.3626 180.495 29.5185C180.616 28.9759 181.048 27.5791 181.219 27.0164C181.701 26.926 182.063 26.8556 182.234 26.8255C182.435 26.7953 182.826 26.725 183.339 26.6446C183.329 27.1671 183.339 27.8907 183.349 27.9911C183.459 29.5788 183.339 31.2268 183.671 32.7844C183.721 33.0356 183.821 33.3572 184.143 33.3572C184.525 33.3572 184.645 33.317 185.047 33.2868C186.213 33.1863 186.002 32.0106 185.931 31.267C185.851 30.443 185.771 29.7497 185.66 28.9257C185.57 28.2524 185.509 27.3681 185.499 26.303V26.2829C187.409 25.9613 189.469 25.6096 189.77 25.5593C190.252 25.4287 190.654 25.4689 190.554 24.3635ZM175.632 26.4738C175.632 26.4838 175.621 26.4838 175.621 26.4939C174.285 26.7853 173.029 27.0667 172.325 27.2274C173.029 26.0517 176.124 21.771 176.596 21.2685C176.335 22.595 175.913 25.0569 175.632 26.4738ZM183.349 24.7856V24.8559C182.706 24.9765 182.103 25.0971 181.621 25.1875C182.234 23.5998 182.877 21.6504 183.259 20.6656C183.228 21.3992 183.379 24.0621 183.349 24.7856ZM164.608 20.0526C164.809 19.6808 165.261 18.9473 164.699 18.6659C164.367 18.5051 163.925 18.4046 163.583 18.5755C163.302 18.7262 163.091 19.0176 162.95 19.2889L160.8 22.6754C160.448 23.1577 160.116 23.7606 159.403 23.841C158.931 23.8913 158.589 23.6903 158.599 23.2682C158.609 22.8361 158.86 22.2634 159.051 21.8916C159.614 20.8264 159.684 20.4646 160.227 19.4095C160.749 18.3946 159.041 18.1635 158.619 18.897C158.318 19.4196 157.735 20.4043 157.604 20.736C157.363 21.3389 155.554 24.2128 156.338 25.3483C157.343 26.6346 160.016 24.6047 158.649 26.9461C157.544 28.8252 156.85 29.9004 155.886 31.6388C155.675 32.0106 155.413 32.3824 155.343 32.8246C155.243 33.4476 156.097 33.4376 156.469 33.4175C157.122 33.3672 157.433 33.0658 157.695 32.4729C157.835 32.1614 158.026 31.7795 158.167 31.468C159.433 28.7046 160.779 26.303 162.448 23.63C163.241 22.3638 163.945 21.2786 164.608 20.0526Z" fill="#484848"/>
<path d="M177.836 66.7279C177.968 66.571 178.187 66.5884 178.372 66.5748C179 66.5649 179.629 66.571 180.256 66.596C180.31 67.444 180.253 68.2935 180.292 69.143C181.245 69.1635 182.199 69.1188 183.153 69.1658C183.178 69.8728 183.183 70.5814 183.149 71.2892C182.19 71.3271 181.232 71.2967 180.274 71.3058C180.289 72.4956 180.265 73.6861 180.283 74.8759C180.265 75.2245 180.537 75.5269 180.87 75.5966C181.609 75.7588 182.358 75.5572 183.097 75.4958C183.162 76.2127 183.172 76.9349 183.099 77.6518C182.192 77.8465 181.26 77.8655 180.336 77.8231C179.536 77.7768 178.736 77.3956 178.281 76.7235C177.94 76.2529 177.805 75.6656 177.81 75.0919C177.814 72.7154 177.812 70.3389 177.811 67.9624C177.815 67.5509 177.783 67.1371 177.836 66.7279Z" fill="#484848"/>
<mask id="mask0_652_3877" style="mask-type:alpha" maskUnits="userSpaceOnUse" x="141" y="68" width="10" height="14">
<path d="M141.586 68.7031H150.898V81.026H141.586V68.7031Z" fill="white"/>
</mask>
<g mask="url(#mask0_652_3877)">
<path d="M145.485 71.427C144.872 71.743 144.221 72.2659 144.172 73.007C144.089 73.63 144.161 74.312 144.555 74.825C145.057 75.5018 145.976 75.7534 146.784 75.6026C147.29 75.5109 147.682 75.1357 148.005 74.7614C148.503 74.1756 148.491 73.3193 148.287 72.619C147.923 71.5013 146.531 71.0397 145.485 71.427ZM145.642 68.9732C146.599 68.6989 147.647 68.8512 148.529 69.293C149.766 69.9993 150.676 71.2822 150.861 72.7039C150.897 73.2723 150.911 73.8497 150.83 74.4158C150.704 75.0152 150.489 75.5995 150.182 76.1285C149.374 77.2978 148.001 78.1124 146.565 78.1056C145.719 78.1094 145.003 77.6274 144.256 77.3054C144.211 78.5414 144.238 79.7796 144.243 81.0171C143.387 80.9921 142.532 81.0164 141.677 81.002C141.636 77.0439 141.683 73.0858 141.652 69.1278C142.45 69.1225 143.248 69.1278 144.046 69.1217C144.063 69.3233 144.081 69.5234 144.102 69.7249C144.601 69.4476 145.078 69.1073 145.642 68.9732Z" fill="#484848"/>
</g>
<path d="M162.191 71.3672C161.371 71.4968 160.627 72.175 160.554 73.0215C160.537 73.533 160.473 74.0915 160.736 74.5561C161.35 75.7883 163.239 76.0179 164.18 75.0426C165.092 74.1423 164.97 72.4244 163.914 71.6862C163.421 71.3301 162.779 71.2376 162.191 71.3672ZM159.876 69.6068C160.924 68.8717 162.332 68.6413 163.55 69.0574C164.063 69.1786 164.432 69.578 164.879 69.8319C164.892 69.6091 164.905 69.387 164.92 69.1635C165.691 69.1392 166.463 69.1316 167.232 69.1718C167.254 72.047 167.257 74.9229 167.23 77.7988C166.428 77.8329 165.625 77.8268 164.823 77.8018C164.797 77.5593 164.773 77.3161 164.748 77.0736C164.059 77.6692 163.195 78.1201 162.264 78.1155C161.209 78.0928 160.152 77.6692 159.418 76.9023C158.894 76.4196 158.576 75.7701 158.292 75.129C158.076 74.6288 158.076 74.0726 158.074 73.5383C158.075 72.9867 158.061 72.4183 158.261 71.8939C158.596 71.0156 159.077 70.1418 159.876 69.6068Z" fill="#484848"/>
<path d="M172.157 68.9405C173.905 68.551 175.825 69.3679 176.823 70.8389C176.181 71.3367 175.508 71.7914 174.859 72.281C174.47 71.9036 174.09 71.4337 173.521 71.3481C172.925 71.261 172.257 71.289 171.765 71.6808C170.802 72.3181 170.642 73.7527 171.225 74.6954C171.879 75.7988 173.645 75.9958 174.509 75.0417C174.658 74.8947 174.803 74.7454 174.948 74.5954C175.565 75.1334 176.309 75.4918 176.941 76.0079C176.594 76.5551 176.065 76.9423 175.561 77.3303C174.702 77.9244 173.622 78.1897 172.584 78.0889C170.294 77.8941 168.319 75.7457 168.409 73.4336C168.399 71.9597 169.179 70.5183 170.38 69.6733C170.922 69.3285 171.529 69.0785 172.157 68.9405Z" fill="#484848"/>
<path d="M187.81 71.3842C187.06 71.6388 186.312 72.2776 186.287 73.1249C186.227 73.7448 186.293 74.4283 186.709 74.9232C187.522 75.8545 189.203 75.9273 189.99 74.9232C190.817 73.9842 190.645 72.3193 189.576 71.6358C189.065 71.2872 188.398 71.2432 187.81 71.3842ZM187.608 68.9137C189.32 68.5992 191.187 69.3654 192.166 70.8075C192.857 71.6896 193.055 72.8604 192.986 73.9539C192.911 75.2536 192.174 76.4517 191.146 77.2247C190.649 77.6187 190.023 77.7809 189.432 77.9749C187.235 78.5721 184.709 77.2087 184.017 75.0353C183.598 73.6735 183.707 72.0942 184.517 70.8931C185.246 69.8701 186.359 69.116 187.608 68.9137Z" fill="#484848"/>
<path d="M155.502 69.2497C156.102 69.0148 156.764 69.0087 157.393 69.1065C157.463 69.9196 157.448 70.7381 157.408 71.552C156.742 71.5247 156.029 71.4481 155.412 71.7551C154.849 72.1021 154.557 72.7849 154.559 73.4313C154.54 74.8871 154.586 76.3421 154.542 77.7971C153.73 77.8335 152.917 77.8267 152.105 77.8017C152.067 75.5199 152.1 73.2381 152.089 70.9563C152.087 70.3599 152.079 69.7628 152.107 69.1656C152.886 69.1376 153.666 69.1345 154.445 69.1679C154.456 69.4528 154.466 69.7377 154.471 70.0227C154.779 69.7233 155.096 69.4126 155.502 69.2497Z" fill="#484848"/>
<path d="M137.827 71.0294C138.406 70.9506 139.051 70.9165 139.564 71.2484C140.208 71.6001 140.744 72.2533 140.745 73.0157C140.747 73.5257 140.816 74.0857 140.536 74.5411C140.179 75.136 139.598 75.6407 138.895 75.7476C138.339 75.8158 137.741 75.8014 137.242 75.5149C136.636 75.2027 136.228 74.5995 136.038 73.9584C135.69 72.7178 136.562 71.2833 137.827 71.0294Z" fill="#484848"/>
<mask id="mask1_652_3877" style="mask-type:alpha" maskUnits="userSpaceOnUse" x="193" y="70" width="6" height="6">
<path d="M193.77 70.8438H198.645V75.8878H193.77V70.8438Z" fill="white"/>
</mask>
<g mask="url(#mask1_652_3877)">
<path d="M195.756 71.08C197.013 70.7542 198.398 71.7075 198.603 72.9761C198.758 73.7491 198.469 74.5667 197.898 75.101C196.95 76.1597 195.075 75.8846 194.316 74.7365C193.686 73.8521 193.783 72.532 194.552 71.7598C194.866 71.4082 195.308 71.202 195.756 71.08Z" fill="#484848"/>
</g>
<path d="M190.136 118.277C189.718 117.083 188.581 116.226 187.245 116.226H187.217C186.349 116.226 185.566 116.588 185.009 117.168C184.451 116.588 183.668 116.226 182.801 116.226H182.773C182.009 116.226 181.312 116.506 180.776 116.969V116.733C180.757 116.499 180.565 116.315 180.326 116.315H178.277C178.027 116.315 177.824 116.517 177.824 116.769V127.897C177.824 128.148 178.027 128.351 178.277 128.351H180.326C180.555 128.351 180.743 128.18 180.773 127.96L180.772 119.971C180.772 119.943 180.773 119.917 180.776 119.891C180.808 119.534 181.07 119.241 181.482 119.205H181.558H181.773H181.86C182.032 119.22 182.178 119.281 182.293 119.372C182.471 119.514 182.57 119.732 182.57 119.971L182.578 127.92C182.578 128.172 182.781 128.375 183.031 128.375H185.08C185.322 128.375 185.519 128.182 185.53 127.942L185.529 119.96C185.528 119.698 185.65 119.461 185.863 119.32C185.968 119.253 186.094 119.208 186.24 119.194H186.316H186.531H186.618C187.061 119.233 187.329 119.569 187.328 119.96L187.336 127.899C187.336 128.15 187.539 128.353 187.789 128.353H189.838C190.088 128.353 190.291 128.15 190.291 127.899V119.361C190.291 118.779 190.225 118.531 190.136 118.277Z" fill="#484848"/>
<path d="M176.263 116.345H175.091V114.446C175.091 114.444 175.091 114.442 175.091 114.44C175.091 114.212 174.906 114.027 174.677 114.027C174.65 114.027 174.624 114.031 174.599 114.035C173.3 114.392 173.56 116.192 171.188 116.345H171.135H170.958C170.923 116.345 170.89 116.35 170.859 116.356H170.857L170.859 116.357C170.656 116.403 170.504 116.582 170.504 116.798V118.847C170.504 119.097 170.707 119.3 170.958 119.3H172.195L172.193 127.989C172.193 128.237 172.393 128.438 172.641 128.438H174.667C174.914 128.438 175.114 128.237 175.114 127.989L175.115 119.3H176.263C176.513 119.3 176.716 119.097 176.716 118.847V116.798C176.716 116.548 176.513 116.345 176.263 116.345Z" fill="#484848"/>
<path d="M168.896 116.345H166.847C166.597 116.345 166.395 116.548 166.395 116.798V121.035C166.39 121.297 166.178 121.508 165.915 121.508H165.057C164.791 121.508 164.576 121.294 164.576 121.028L164.569 116.798C164.569 116.548 164.365 116.345 164.115 116.345H162.066C161.816 116.345 161.613 116.548 161.613 116.798V121.442C161.613 123.206 162.871 124.464 164.636 124.464C164.636 124.464 165.96 124.464 166.001 124.472C166.24 124.499 166.426 124.699 166.426 124.946C166.426 125.19 166.244 125.389 166.008 125.419C165.996 125.421 165.985 125.424 165.973 125.426L162.976 125.436C162.726 125.436 162.523 125.64 162.523 125.889V127.938C162.523 128.188 162.726 128.391 162.976 128.391H166.327C168.092 128.391 169.349 127.134 169.349 125.369V116.798C169.349 116.548 169.147 116.345 168.896 116.345Z" fill="#484848"/>
<path d="M149.056 120.097V121.053V121.362C149.056 121.627 148.841 121.843 148.576 121.843L147.275 121.844V119.31H148.576C148.841 119.31 149.056 119.524 149.056 119.79V120.097ZM149.236 116.342H144.757C144.511 116.342 144.312 116.542 144.312 116.786V118.794C144.312 118.798 144.313 118.802 144.313 118.806C144.313 118.815 144.312 118.825 144.312 118.834V125.273V127.921C144.312 128.168 144.498 128.369 144.727 128.375H144.766H146.815C147.064 128.375 147.268 128.173 147.268 127.922L147.275 124.808H149.236C150.876 124.808 152.02 123.669 152.02 122.022V119.131C152.02 117.484 150.876 116.342 149.236 116.342Z" fill="#484848"/>
<path d="M157.56 124.904V125.224C157.56 125.25 157.556 125.276 157.552 125.3C157.547 125.323 157.54 125.345 157.533 125.366C157.469 125.545 157.29 125.676 157.077 125.676H156.224C155.958 125.676 155.741 125.473 155.741 125.224V124.838C155.741 124.833 155.74 124.828 155.74 124.823L155.741 123.795V123.793V123.679V123.473L155.742 123.47C155.743 123.222 155.958 123.022 156.224 123.022H157.077C157.344 123.022 157.56 123.223 157.56 123.473V124.904ZM157.234 116.35H154.39C154.139 116.35 153.935 116.541 153.935 116.775V117.572C153.935 117.577 153.936 117.583 153.936 117.588C153.936 117.593 153.935 117.599 153.935 117.605V118.697C153.935 118.945 154.151 119.147 154.417 119.147H157.125C157.339 119.181 157.509 119.337 157.533 119.581V119.845C157.509 120.077 157.341 120.247 157.136 120.266H155.796C154.013 120.266 152.742 121.451 152.742 123.115V125.437V125.497C152.742 127.151 153.834 128.328 155.605 128.328H159.321C159.988 128.328 160.528 127.823 160.528 127.201V119.426C160.528 117.54 159.557 116.35 157.234 116.35Z" fill="#484848"/>
<path fill-rule="evenodd" clip-rule="evenodd" d="M277.127 35.7563C273.866 38.1669 269.124 39.4513 265.034 39.4513C259.304 39.4513 254.166 37.3371 250.254 33.8199C249.958 33.5433 250.215 33.1679 250.59 33.3852C254.799 35.8354 259.995 37.2975 265.37 37.2975C268.986 37.2975 272.977 36.5467 276.652 34.9857C277.206 34.7684 277.66 35.3611 277.127 35.7563Z" fill="#484848"/>
<path fill-rule="evenodd" clip-rule="evenodd" d="M278.492 34.1946C278.077 33.6611 275.726 33.9377 274.678 34.0761C274.362 34.1156 274.303 33.8389 274.599 33.6414C276.476 32.3175 279.539 32.7127 279.895 33.1474C280.25 33.5821 279.796 36.6645 278.037 38.1267C277.761 38.344 277.504 38.2255 277.622 37.9291C278.018 36.9411 278.907 34.7479 278.492 34.1946Z" fill="#484848"/>
<path d="M274.735 24.3574V23.073C274.735 22.8754 274.873 22.7569 275.051 22.7569H280.781C280.959 22.7569 281.117 22.8952 281.117 23.073V24.1598C281.117 24.3376 280.959 24.5747 280.682 24.9699L277.718 29.1984C278.825 29.1786 279.991 29.3367 280.979 29.8899C281.196 30.0085 281.255 30.2061 281.275 30.3839V31.7473C281.275 31.9449 281.077 32.1622 280.86 32.0437C279.102 31.115 276.75 31.0162 274.814 32.0634C274.616 32.1622 274.399 31.9647 274.399 31.7671V30.463C274.399 30.2654 274.399 29.9097 274.616 29.5935L278.054 24.6735H275.071C274.893 24.6735 274.735 24.5352 274.735 24.3574ZM253.849 32.3203H252.111C251.952 32.3006 251.814 32.182 251.794 32.0239V23.0928C251.794 22.9149 251.952 22.7766 252.13 22.7766H253.751C253.928 22.7766 254.047 22.9149 254.067 23.073V24.2388H254.106C254.521 23.1125 255.331 22.579 256.398 22.579C257.485 22.579 258.177 23.1125 258.651 24.2388C259.066 23.1125 260.034 22.579 261.061 22.579C261.793 22.579 262.583 22.8754 263.077 23.567C263.63 24.3178 263.512 25.4046 263.512 26.3728V32.0239C263.512 32.2018 263.353 32.3401 263.176 32.3401H261.457C261.279 32.3203 261.14 32.182 261.14 32.0239V27.2817C261.14 26.9063 261.18 25.9579 261.101 25.6022C260.963 25.0094 260.587 24.8316 260.073 24.8316C259.659 24.8316 259.204 25.1082 259.026 25.5627C258.848 26.0171 258.868 26.768 258.868 27.2817V32.0239C258.868 32.2018 258.71 32.3401 258.532 32.3401H256.793C256.616 32.3203 256.477 32.182 256.477 32.0239V27.2817C256.477 26.2938 256.635 24.8118 255.41 24.8118C254.165 24.8118 254.205 26.2345 254.205 27.2817V32.0239C254.185 32.182 254.047 32.3203 253.849 32.3203ZM286.057 22.579C288.645 22.579 290.048 24.7921 290.048 27.6176C290.048 30.3444 288.507 32.5179 286.057 32.5179C283.528 32.5179 282.144 30.3049 282.144 27.5386C282.125 24.7525 283.528 22.579 286.057 22.579ZM286.057 24.4166C284.772 24.4166 284.693 26.1752 284.693 27.262C284.693 28.3487 284.674 30.6803 286.037 30.6803C287.381 30.6803 287.46 28.8032 287.46 27.6571C287.46 26.9063 287.42 25.9974 287.203 25.286C287.005 24.6538 286.61 24.4166 286.057 24.4166ZM293.387 32.3203H291.649C291.471 32.3006 291.333 32.1622 291.333 32.0042V23.0533C291.352 22.8952 291.491 22.7569 291.668 22.7569H293.289C293.447 22.7569 293.565 22.8754 293.605 23.0137V24.3771H293.644C294.138 23.1521 294.81 22.579 296.015 22.579C296.786 22.579 297.557 22.8557 298.051 23.6263C298.505 24.3376 298.505 25.5429 298.505 26.4123V32.0437C298.485 32.2018 298.347 32.3203 298.169 32.3203H296.43C296.272 32.3006 296.134 32.182 296.114 32.0437V27.1829C296.114 26.195 296.233 24.7723 295.027 24.7723C294.613 24.7723 294.217 25.0489 294.02 25.4836C293.783 26.0369 293.743 26.5704 293.743 27.1829V32.0042C293.723 32.182 293.565 32.3203 293.387 32.3203ZM271.929 32.3006C271.81 32.3994 271.652 32.4191 271.514 32.3401C270.941 31.8659 270.822 31.6287 270.506 31.1743C269.558 32.1425 268.866 32.4389 267.641 32.4389C266.179 32.4389 265.033 31.53 265.033 29.7319C265.033 28.3092 265.804 27.3608 266.89 26.8865C267.839 26.4716 269.163 26.3926 270.17 26.274V26.0567C270.17 25.6417 270.21 25.1477 269.953 24.7921C269.736 24.4759 269.341 24.3376 268.985 24.3376C268.313 24.3376 267.72 24.6735 267.582 25.3848C267.542 25.5429 267.444 25.701 267.286 25.701L265.606 25.5232C265.468 25.4836 265.31 25.3848 265.349 25.1675C265.744 23.1125 267.582 22.5 269.242 22.5C270.091 22.5 271.198 22.7174 271.87 23.3694C272.719 24.1598 272.64 25.2268 272.64 26.3728V29.0798C272.64 29.8899 272.976 30.2456 273.292 30.7001C273.411 30.8581 273.431 31.0557 273.292 31.1545C272.917 31.4509 272.285 32.0042 271.929 32.3006ZM270.17 28.0523V27.6769C268.906 27.6769 267.582 27.9535 267.582 29.4355C267.582 30.1863 267.977 30.7001 268.649 30.7001C269.143 30.7001 269.578 30.4037 269.854 29.9097C270.19 29.2972 270.17 28.7241 270.17 28.0523ZM248.672 32.3401C248.099 31.8659 247.981 31.6287 247.665 31.1743C246.716 32.1425 246.025 32.4389 244.8 32.4389C243.337 32.4389 242.191 31.53 242.191 29.7319C242.191 28.3092 242.962 27.3608 244.049 26.8865C244.997 26.4716 246.321 26.3926 247.329 26.274V26.0567C247.329 25.6417 247.368 25.1477 247.111 24.7921C246.894 24.4759 246.499 24.3376 246.143 24.3376C245.471 24.3376 244.879 24.6735 244.74 25.3848C244.701 25.5429 244.602 25.701 244.444 25.701L242.764 25.5232C242.626 25.4836 242.468 25.3848 242.508 25.1675C242.903 23.1125 244.74 22.5 246.4 22.5C247.25 22.5 248.356 22.7174 249.028 23.3694C249.878 24.1598 249.799 25.2268 249.799 26.3728V29.0798C249.799 29.8899 250.135 30.2456 250.451 30.7001C250.569 30.8581 250.589 31.0557 250.451 31.1545C250.075 31.4509 249.443 32.0042 249.087 32.3006C248.969 32.3994 248.811 32.4191 248.672 32.3401ZM247.349 28.0523V27.6769C246.084 27.6769 244.76 27.9535 244.76 29.4355C244.76 30.1863 245.155 30.7001 245.827 30.7001C246.321 30.7001 246.756 30.4037 247.032 29.9097C247.368 29.2972 247.349 28.7241 247.349 28.0523Z" fill="#484848"/>
<path d="M267.524 84.3508C265.606 83.1151 263.002 82.8982 258.804 84.0631C254.328 85.1149 252.835 85.7892 250.875 84.4356C250.122 83.7707 249.852 82.7001 250.054 81.158C250.522 78.6441 251.785 76.2248 254.029 73.5413C255.282 72.1453 256.444 70.9473 257.978 70.4663C259.154 70.1645 259.044 71.0887 258.902 71.2208C258.752 71.2208 258.5 71.2445 258.305 71.3717C258.146 71.4944 257.712 71.8906 257.689 72.4235C257.655 73.2394 258.499 73.0696 258.864 72.6216C259.256 72.1169 259.836 71.1502 259.38 70.2493C259.189 69.9286 258.858 69.707 258.448 69.6316C257.043 69.5513 255.735 70.221 254.527 70.9615C251.886 72.7961 249.773 75.3382 248.578 78.1209C247.889 79.7998 247.265 82.2048 248.2 84.1623C248.922 85.5205 250.423 86.2419 252.213 86.091C253.468 85.9591 254.987 85.5533 256.008 85.3083C257.029 85.0628 262.256 83.2662 263.973 86.3933C263.973 86.3933 264.544 85.2847 265.972 85.261C267.145 85.1527 268.838 85.6007 270.07 86.506C269.66 85.8884 268.495 84.9782 267.524 84.3508Z" fill="#484848"/>
<path d="M259.334 73.8585C258.357 73.2171 256.392 74.4433 254.818 76.5466C253.379 78.4333 252.757 80.6261 253.434 81.6401C254.44 82.8333 256.307 81.0978 257.101 80.1688L257.204 80.0602C257.744 79.4801 258.161 78.7821 258.565 78.1123C258.565 78.1123 258.936 77.4992 258.954 77.4708C259.183 77.4285 259.46 77.3625 259.771 77.2728C259.767 77.2869 258.58 79.2819 258.701 80.2721C258.739 80.5742 258.71 81.6778 259.787 82.0126C261.223 82.2533 262.37 81.1401 263.382 80.1497C263.382 80.1497 263.554 79.9848 263.652 79.8906C263.627 79.9894 263.595 80.1211 263.595 80.1211C263.174 81.5832 263.741 81.89 264.095 82.0032C265.167 82.3147 266.447 80.7582 266.451 80.7582C266.418 81.2485 266.321 81.654 266.838 81.9795C267.325 82.1542 267.819 81.8879 268.194 81.6379C269.546 80.6853 270.635 79.1943 271.514 77.9055H270.953C270.947 77.9055 269.569 79.9024 268.674 80.3364C268.673 80.3364 268.51 80.42 268.416 80.3539C268.3 80.2549 268.346 80.0488 268.418 79.9029C268.422 79.8935 271.872 73.91 271.872 73.91H270.243C270.243 73.91 270.065 74.1979 270.051 74.2168C270.04 74.2074 270.014 74.1579 269.996 74.1341C268.987 72.7382 266.701 74.8854 264.981 77.3755C264.318 78.333 263.475 79.411 262.6 80.1892C262.6 80.1892 261.305 81.3767 260.751 80.5235C260.549 80.165 260.611 79.6409 260.725 79.2967C261.37 77.462 262.48 75.797 263.744 74.7924C264.101 74.5144 264.489 74.4339 264.681 74.5519C264.864 74.6605 264.894 74.9291 264.778 75.1131C264.484 75.1037 264.248 75.1931 264.056 75.3912C263.679 75.7874 263.547 76.1695 263.667 76.528C264.251 77.358 265.414 75.7167 265.358 74.7169C265.338 74.3584 265.146 74.0189 264.861 73.8537C264.436 73.5991 263.787 73.6651 263.367 73.868C262.804 74.0801 261.914 74.8205 261.395 75.396C260.741 76.1177 259.619 76.9194 259.269 76.8296C259.383 76.523 260.331 74.5847 259.334 73.8585ZM267.187 76.7259C267.504 76.2874 268.426 75.113 268.651 74.9149C269.407 74.2497 269.71 74.5424 269.736 74.7498C269.03 76.0137 268.197 77.4617 267.414 78.7634C267.416 78.7588 267.169 79.1359 267.169 79.1359C266.823 79.664 266.475 80.1168 265.907 80.4327C265.826 80.4565 265.692 80.466 265.603 80.3997C265.496 80.3289 265.454 80.211 265.466 80.0883C265.5 79.6829 265.913 78.4427 267.187 76.7259ZM258.326 77.4852C258.326 77.4852 258.312 77.5278 258.305 77.5417C258.303 77.5417 257.595 78.697 257.595 78.697C257.167 79.2678 256.633 79.9848 255.966 80.329C255.768 80.395 255.495 80.4376 255.355 80.2632C255.06 79.9094 255.212 79.4188 255.336 79.0228L255.38 78.8813C255.734 77.9193 256.297 77.0702 256.845 76.2825C256.851 76.2779 256.867 76.2732 256.872 76.2732C256.874 76.2779 256.876 76.2779 256.877 76.2874C257.22 76.9475 257.865 77.254 258.346 77.3957C258.349 77.3957 258.353 77.4004 258.353 77.4098C258.353 77.4239 258.345 77.4429 258.326 77.4852ZM258.997 76.1223C258.994 76.1317 258.682 76.8486 258.682 76.8486C258.636 76.8863 258.565 76.8675 258.483 76.8486L258.343 76.8249C257.903 76.6882 257.57 76.3958 257.468 76.0468C257.327 75.3676 257.907 74.8347 258.163 74.6414C258.408 74.4715 258.789 74.3819 259.011 74.5565C259.147 74.7169 259.199 74.9243 259.199 75.1509C259.199 75.4573 259.104 75.8015 258.997 76.1223ZM279.589 78.3105C279.432 77.971 279.059 77.754 278.662 77.7776C277.372 77.8955 276.109 78.9567 275.447 80.4799C275.099 81.2629 274.909 81.9089 274.785 82.937C275.186 82.475 276.004 81.7157 276.933 81.3006C276.933 81.3006 277.06 80.315 277.704 79.4377C277.948 79.0745 278.436 78.4897 278.984 78.6453C279.463 78.8057 279.294 80.131 278.658 81.4135C278.187 82.3569 277.467 83.3004 276.738 83.9511C276.093 84.4982 275.14 85.1584 274.305 84.6492C273.78 84.338 273.512 83.687 273.568 82.8475C273.82 80.4659 274.904 78.4379 276.455 76.127C278.055 73.9811 279.818 71.7786 282.194 70.6041C282.678 70.3589 283.127 70.3023 283.515 70.4532C283.515 70.4532 281.285 71.6795 280.222 73.948C279.952 74.5235 279.576 75.3015 279.954 75.9901C280.152 76.3485 280.504 76.3768 280.787 76.3579C282.089 76.056 282.931 74.8393 283.619 73.7264C284.018 72.8821 284.372 72.0427 284.372 71.1088C284.372 70.9956 284.366 70.8448 284.357 70.7315C284.979 70.4015 286.256 70.9862 286.256 70.9862C287.253 71.3164 289.377 72.9436 290.094 73.2548C290.443 72.8492 291.018 72.2362 291.341 71.9296L290.873 71.6418C290.123 71.1843 289.331 70.7504 288.552 70.3213C286.781 69.3545 285.339 69.694 284.606 69.9582C284.317 70.0619 284.054 70.1515 284.054 70.1515C283.51 69.5573 282.617 69.6137 281.959 69.7742C279.593 70.4533 277.396 72.1086 275.041 74.9809C273.31 77.2306 272.236 79.1738 271.663 81.0932C271.222 82.3854 271.088 84.286 272.165 85.4133C273.08 86.3704 274.295 86.163 275.152 85.8189C277.01 84.904 278.679 82.9325 279.511 80.6639C279.712 79.9896 279.935 79.0369 279.589 78.3105ZM283.861 71.2032C283.615 74.0236 281.423 75.6791 280.88 75.8109C280.551 75.8769 279.991 75.7308 280.491 74.5472C281.229 72.9529 282.488 71.5995 283.838 70.9061C283.871 71.0241 283.87 71.0993 283.861 71.2032ZM296.865 71.5615C295.686 72.2313 294.464 72.6651 292.984 72.5142C292.574 72.9766 292.174 73.4529 291.806 73.9433C293.883 74.4715 296.085 73.2972 297.313 72.1795C298.612 71.0523 299.278 69.6328 299.278 69.6328C299.278 69.6328 298.305 70.7457 296.865 71.5615ZM274.579 73.9101H273.032L272.16 75.3279H273.706L274.579 73.9101Z" fill="#484848"/>
<path d="M292.978 84.4759C292.811 84.5891 292.578 84.5021 292.665 84.2428C292.883 83.5825 293.748 82.2369 293.748 82.2369L296.158 77.9627H294.507C294.429 78.0916 294.261 78.3875 294.261 78.3875C294.185 78.2603 293.956 77.9774 293.862 77.9163C293.459 77.6614 292.867 77.7819 292.459 78.0129C290.684 79.0507 289.389 81.1009 288.368 82.6998C288.368 82.6998 287.293 84.4771 286.697 84.6093C286.231 84.6471 286.279 84.0195 286.299 83.8733C286.479 82.8167 286.897 81.8122 287.319 80.902C288.176 80.3077 289.154 79.5296 290.043 78.676C291.972 76.8318 293.599 74.7425 293.837 74.2756C293.837 74.2756 293.579 74.3275 293.275 74.3369C291.791 76.4073 288.754 79.4164 287.833 79.8643C288.241 78.8831 290.877 74.2 293.119 71.9599L293.472 71.6202C294.018 71.0873 294.583 70.5402 295.024 70.4506C295.071 70.4459 295.131 70.4506 295.182 70.5592C295.202 70.9742 295.048 71.2808 294.87 71.6297L294.622 72.1392C294.622 72.1392 294.974 72.0731 295.205 71.9975C295.473 71.4931 295.77 70.9269 295.66 70.2527C295.624 70.0357 295.467 69.8706 295.261 69.8329C294.592 69.7055 293.863 70.2006 293.277 70.6016L293.253 70.6157C290.237 72.9785 287.69 76.3837 285.464 81.034C285.302 81.1564 284.679 81.3027 284.573 81.2319C284.793 80.7793 285.069 80.1707 285.208 79.5105C285.232 79.3217 285.254 79.1285 285.254 78.9399C285.254 78.534 285.157 78.1521 284.793 77.8881C284.367 77.6758 283.84 77.7749 283.485 77.9352C281.893 78.5954 280.703 80.2274 279.845 81.5713C279.383 82.4252 278.923 83.3397 278.796 84.3869C278.706 85.2074 278.889 85.7357 279.355 85.9999C279.835 86.2449 280.439 85.9902 280.676 85.8677C282.288 85.0187 283.415 83.3163 284.303 81.7598C284.338 81.7552 284.823 81.7411 285.19 81.6467C285.195 81.6467 285.197 81.6467 285.205 81.6516C285.184 81.7221 284.994 82.2882 284.994 82.2882C284.432 83.9387 284.171 85.0613 284.703 85.7262C285.463 86.6648 286.72 85.6934 287.744 84.4103C287.524 85.9477 288.321 86.1884 288.928 86.0706C289.626 85.8821 290.403 85.1367 290.764 84.7548C290.648 85.2028 290.68 86.0047 291.315 86.0847C291.75 86.1651 292.075 85.9285 292.452 85.7256C293.803 84.9898 295.421 82.538 295.841 81.8291H295.29C294.693 82.7315 293.933 83.9144 292.978 84.4759ZM280.848 84.3117C280.763 84.1843 280.734 84.0451 280.731 83.8946C280.715 82.9698 281.71 81.3137 282.412 80.4115H282.414C282.708 81.0559 283.374 81.4702 283.777 81.6447C283.277 82.7579 281.563 85.1417 280.848 84.3117ZM284.059 81.1471C284.011 81.1804 283.171 80.8972 283.008 80.1191C282.871 79.4491 283.332 78.9256 283.778 78.6618C283.97 78.5108 284.258 78.4591 284.47 78.5342C284.667 78.6665 284.72 78.9025 284.72 79.1567C284.72 79.3127 284.699 79.4729 284.681 79.619L284.677 79.6522C284.536 80.175 284.328 80.6775 284.059 81.1471ZM290.799 84.0146C290.799 84.0146 290.64 84.1561 290.64 84.1561C290.413 84.3588 290.18 84.5757 289.898 84.4672C289.82 84.439 289.766 84.3353 289.753 84.2549C289.74 83.6748 290.001 83.1372 290.254 82.6138L290.319 82.477C291.048 81.2602 291.895 79.8265 293.139 78.8315C293.349 78.6802 293.576 78.5532 293.816 78.6523C293.872 78.7041 293.936 78.7937 293.936 78.8832C293.936 78.9117 293.911 78.9871 293.896 79.0106C293.549 79.5721 293.218 80.1615 292.896 80.7274C292.267 81.8452 291.615 83.0004 290.799 84.0146Z" fill="#484848"/>
<path d="M273.892 119.421L272.76 117.443L270.747 118.438L269.614 116.459L267.601 117.454L266.469 115.475L264.456 116.47L263.323 114.492L261.31 115.487L260.178 113.508L258.164 114.503L253.875 128.824L259.068 130.46C259.411 129.304 260.464 128.458 261.699 128.458C263.22 128.458 264.456 129.727 264.456 131.295V131.352C264.467 131.603 264.444 131.866 264.364 132.118L269.649 133.788" fill="#484848"/>
<path d="M258.325 127.627C258.05 127.582 257.867 127.341 257.867 127.055V120.021C257.867 119.689 258.119 119.438 258.439 119.438H263.358C263.483 119.438 263.609 119.449 263.735 119.472C264.787 119.666 265.565 120.604 265.565 121.714V127.055C265.565 127.216 265.508 127.364 265.394 127.479C265.291 127.582 265.142 127.65 264.993 127.65L264.89 127.639C264.616 127.593 264.433 127.353 264.433 127.067V121.737C264.433 121.199 264.055 120.741 263.541 120.65L263.358 120.627H262.282V127.067C262.282 127.227 262.225 127.376 262.111 127.49C262.008 127.593 261.859 127.662 261.71 127.662L261.608 127.65C261.333 127.605 261.15 127.364 261.15 127.078V120.627H259V127.067C259 127.227 258.942 127.376 258.828 127.479C258.725 127.582 258.576 127.65 258.428 127.65L258.325 127.627Z" fill="white"/>
<path d="M266.504 130.698C266.23 130.652 266.047 130.412 266.047 130.126C266.047 129.966 266.104 129.817 266.207 129.714C266.31 129.611 266.459 129.543 266.607 129.543C267.088 129.543 267.5 129.222 267.637 128.754L268.22 126.74L266.31 120.14C266.218 119.832 266.39 119.5 266.687 119.397L266.939 119.385C267.145 119.42 267.317 119.58 267.385 119.786L268.804 124.704L270.245 119.786C270.313 119.511 270.599 119.328 270.897 119.385L270.931 119.397C271.24 119.5 271.411 119.832 271.309 120.14L269.341 126.912L268.723 129.085C268.563 129.589 268.289 129.989 267.923 130.263C267.534 130.561 267.076 130.721 266.596 130.721L266.504 130.698Z" fill="white"/>
<path d="M231.125 127.569C230.839 127.511 230.645 127.271 230.645 126.974V116.473C230.645 116.302 230.702 116.153 230.816 116.039C230.919 115.924 231.079 115.867 231.239 115.867L231.342 115.879C231.628 115.936 231.834 116.176 231.834 116.473V119.459H232.955C233.092 119.459 233.218 119.47 233.355 119.493C234.454 119.688 235.254 120.671 235.254 121.827V125.212C235.254 126.516 234.225 127.58 232.955 127.58H231.251L231.125 127.569ZM231.823 126.356H232.944C233.561 126.356 234.065 125.841 234.065 125.201V121.815C234.065 121.255 233.676 120.774 233.138 120.683L232.944 120.66H231.823V126.356Z" fill="#484848"/>
<path d="M238.641 127.611C237.543 127.416 236.754 126.432 236.754 125.277V121.754C236.754 121.114 236.994 120.53 237.429 120.073C237.863 119.627 238.435 119.375 239.053 119.375C239.19 119.375 239.316 119.386 239.453 119.409C240.551 119.604 241.352 120.587 241.352 121.743V125.266C241.352 125.895 241.112 126.49 240.677 126.947C240.243 127.393 239.671 127.634 239.064 127.634C238.916 127.645 238.779 127.634 238.641 127.611ZM239.236 120.61L239.042 120.587C238.412 120.587 237.921 121.091 237.921 121.743V125.266C237.921 125.826 238.31 126.307 238.836 126.398L239.03 126.421C239.648 126.421 240.151 125.906 240.151 125.266V121.743C240.163 121.182 239.774 120.713 239.236 120.61Z" fill="#484848"/>
<path d="M244.747 127.615C243.649 127.409 242.859 126.437 242.859 125.281V121.758C242.859 120.454 243.889 119.391 245.158 119.391C245.296 119.391 245.422 119.402 245.559 119.425C246.645 119.619 247.446 120.603 247.446 121.747V125.27C247.446 125.899 247.206 126.494 246.771 126.951C246.337 127.398 245.765 127.638 245.147 127.638C245.01 127.649 244.873 127.638 244.747 127.615ZM245.342 120.615L245.147 120.592C244.518 120.592 244.026 121.095 244.026 121.747V125.27C244.026 125.83 244.415 126.311 244.941 126.402L245.136 126.425C245.433 126.425 245.708 126.311 245.925 126.094C246.142 125.876 246.257 125.59 246.257 125.27V121.747C246.268 121.186 245.879 120.717 245.342 120.615Z" fill="#484848"/>
<path d="M249.437 127.637C249.151 127.592 248.957 127.34 248.957 127.042V116.473C248.957 116.302 249.014 116.153 249.129 116.039C249.243 115.924 249.392 115.867 249.552 115.867L249.655 115.879C249.941 115.936 250.147 116.176 250.147 116.473V122.73L252.858 119.596C252.995 119.447 253.201 119.367 253.407 119.413L253.704 119.55C253.944 119.779 253.967 120.157 253.75 120.408L251.679 122.753L253.807 126.757C253.887 126.894 253.898 127.054 253.864 127.203C253.818 127.351 253.715 127.489 253.578 127.569C253.464 127.637 253.326 127.66 253.189 127.637C253.006 127.603 252.869 127.5 252.777 127.351L250.867 123.737L250.135 124.56V127.042C250.135 127.203 250.078 127.363 249.964 127.477C249.849 127.592 249.701 127.649 249.552 127.649L249.437 127.637Z" fill="#484848"/>
<path d="M275.436 127.628C274.784 127.513 274.235 127.113 273.904 126.518C273.823 126.381 273.812 126.209 273.846 126.049C273.892 125.889 273.984 125.763 274.121 125.683C274.235 125.615 274.373 125.592 274.51 125.615C274.681 125.649 274.83 125.752 274.922 125.912C275.082 126.187 275.322 126.358 275.619 126.415C275.951 126.472 276.248 126.381 276.489 126.152C276.717 125.935 276.832 125.626 276.809 125.317C276.797 124.997 276.637 124.711 276.386 124.528L274.796 123.361C274.27 122.984 273.949 122.389 273.892 121.714C273.858 121.028 274.109 120.387 274.578 119.953C275.047 119.495 275.688 119.289 276.328 119.381C276.992 119.506 277.541 119.895 277.85 120.456C277.918 120.593 277.941 120.753 277.907 120.913C277.861 121.074 277.77 121.211 277.632 121.279C277.518 121.348 277.381 121.371 277.244 121.348C277.072 121.314 276.923 121.211 276.832 121.062C276.695 120.822 276.454 120.65 276.157 120.593C275.86 120.547 275.574 120.627 275.356 120.833C275.15 121.028 275.036 121.314 275.059 121.623C275.07 121.909 275.23 122.195 275.471 122.355L277.061 123.498C277.61 123.899 277.941 124.528 277.976 125.214C278.033 125.901 277.77 126.564 277.266 127.022C276.786 127.479 276.123 127.696 275.459 127.605" fill="#484848"/>
<path d="M280.004 127.645C279.718 127.588 279.512 127.336 279.512 127.05V116.481C279.512 116.321 279.58 116.161 279.695 116.047C279.809 115.932 279.958 115.875 280.107 115.875L280.209 115.886C280.495 115.944 280.69 116.184 280.69 116.481V119.467H281.811C281.948 119.467 282.085 119.478 282.211 119.501C283.309 119.695 284.099 120.679 284.099 121.834V127.05C284.099 127.393 283.835 127.657 283.515 127.657L283.412 127.645C283.126 127.599 282.92 127.348 282.92 127.05V121.834C282.92 121.274 282.531 120.794 282.005 120.702L281.799 120.679H280.678V127.05C280.678 127.393 280.415 127.657 280.084 127.657L280.004 127.645Z" fill="#484848"/>
<path d="M287.493 127.615C286.395 127.42 285.605 126.437 285.605 125.281V121.758C285.605 120.454 286.635 119.391 287.905 119.391C288.042 119.391 288.168 119.402 288.305 119.425C289.403 119.619 290.204 120.603 290.204 121.758V125.281C290.204 125.911 289.963 126.505 289.529 126.963C289.094 127.409 288.522 127.649 287.916 127.649C287.767 127.649 287.63 127.638 287.493 127.615ZM288.099 120.626L287.905 120.603C287.607 120.603 287.321 120.717 287.115 120.935C286.909 121.152 286.795 121.438 286.795 121.747V125.27C286.795 125.83 287.184 126.311 287.71 126.402L287.905 126.425C288.202 126.425 288.477 126.311 288.694 126.094C288.911 125.876 289.026 125.59 289.026 125.27V121.747C289.014 121.198 288.625 120.717 288.099 120.626Z" fill="#484848"/>
<path d="M299.265 120.13C299.299 119.97 299.277 119.822 299.208 119.684C299.128 119.547 298.991 119.444 298.831 119.41L298.728 119.398C298.464 119.398 298.224 119.581 298.156 119.856C298.156 119.879 297.515 122.521 297.023 124.534L297.012 124.58L297 124.534C296.52 122.533 295.868 119.89 295.857 119.856C295.811 119.616 295.639 119.444 295.399 119.41L295.296 119.398C295.033 119.398 294.816 119.581 294.736 119.856C294.724 119.879 294.095 122.521 293.603 124.534L293.592 124.58L293.58 124.534C293.1 122.521 292.448 119.89 292.448 119.856C292.391 119.627 292.208 119.444 291.99 119.41L291.762 119.421C291.453 119.501 291.258 119.822 291.338 120.142L293.043 127.188C293.111 127.417 293.283 127.6 293.5 127.634L293.592 127.646C293.866 127.646 294.095 127.463 294.152 127.188C294.164 127.165 294.804 124.523 295.296 122.51L295.307 122.464L295.319 122.51C295.822 124.534 296.451 127.188 296.451 127.188C296.52 127.417 296.692 127.588 296.909 127.634L297 127.646C297.275 127.646 297.504 127.463 297.561 127.188" fill="#484848"/>
<g clip-path="url(#clip1_652_3877)">
<mask id="mask2_652_3877" style="mask-type:alpha" maskUnits="userSpaceOnUse" x="-147" y="151" width="310" height="382">
<path d="M-146.293 532.148H162.726V151.367H-146.293V532.148Z" fill="white"/>
</mask>
<g mask="url(#mask2_652_3877)">
<path d="M112.386 171.401C112.284 171.525 112.226 171.664 112.226 171.905V178.525H112.189C112.189 178.525 108.566 172.065 108.391 171.766C108.267 171.554 108.128 171.409 107.946 171.299C107.764 171.197 107.574 171.132 107.21 171.132H106.014C105.737 171.132 105.562 171.226 105.438 171.372C105.336 171.496 105.277 171.635 105.277 171.875V181.259C105.277 181.5 105.336 181.638 105.438 181.762C105.562 181.908 105.737 182.002 106.014 182.002H106.692C106.969 182.002 107.144 181.908 107.268 181.762C107.37 181.638 107.428 181.5 107.428 181.259V174.478H107.465C107.465 174.478 111.227 181.142 111.38 181.39C111.591 181.74 111.948 182.002 112.459 182.002H113.618C113.895 182.002 114.07 181.908 114.194 181.762C114.296 181.638 114.355 181.5 114.355 181.259V172.794H129.585C129.739 172.794 129.855 172.75 129.943 172.678C130.037 172.59 130.081 172.473 130.081 172.298V171.657C130.081 171.481 130.037 171.365 129.943 171.277C129.855 171.205 129.739 171.161 129.585 171.161H112.962C112.685 171.161 112.51 171.256 112.386 171.401ZM119.035 173.909C116.505 173.909 115.084 175.885 115.084 177.971C115.084 180.194 116.608 182.148 119.05 182.148C120.268 182.148 121.463 181.689 122.148 180.88C122.447 180.53 122.688 180.041 122.688 179.742C122.688 179.64 122.666 179.553 122.608 179.487C122.55 179.414 122.462 179.37 122.309 179.37H121.135C120.902 179.37 120.741 179.458 120.625 179.633C120.282 180.136 119.786 180.399 119.057 180.399C117.963 180.399 117.257 179.567 117.205 178.656H122.28C122.506 178.656 122.666 178.605 122.776 178.496C122.9 178.379 122.958 178.211 122.958 177.897C122.958 176.943 122.659 175.951 122.032 175.193C121.39 174.427 120.413 173.909 119.035 173.909ZM126.858 173.909C124.861 173.909 123.548 174.857 123.548 176.374C123.548 176.913 123.745 177.351 124.066 177.693C124.438 178.095 124.97 178.372 125.743 178.569L127.413 178.991C127.872 179.108 128.28 179.246 128.28 179.647C128.28 180.267 127.624 180.479 126.924 180.479C126.581 180.479 126.224 180.413 125.932 180.267C125.728 180.165 125.554 180.019 125.43 179.822C125.32 179.655 125.284 179.531 125.116 179.436C125.014 179.378 124.89 179.37 124.722 179.37H123.818C123.621 179.37 123.527 179.429 123.461 179.509C123.396 179.589 123.373 179.706 123.373 179.822C123.373 180.114 123.476 180.479 123.716 180.807C124.27 181.55 125.43 182.148 126.909 182.148C128.368 182.148 130.387 181.543 130.387 179.589C130.387 179.086 130.241 178.656 129.972 178.306C129.629 177.861 129.141 177.555 128.309 177.344L126.655 176.92C125.969 176.746 125.648 176.622 125.648 176.199C125.648 175.79 126.013 175.462 126.858 175.462C127.354 175.462 127.806 175.572 128.098 175.878C128.338 176.133 128.295 176.265 128.485 176.367C128.601 176.425 128.732 176.425 128.937 176.425H129.76C129.891 176.425 129.987 176.403 130.059 176.323C130.118 176.257 130.154 176.155 130.154 175.987C130.154 175.608 129.906 175.12 129.469 174.748C128.886 174.245 127.967 173.909 126.858 173.909ZM131.401 174.187H130.992C130.84 174.187 130.723 174.23 130.635 174.303C130.54 174.391 130.496 174.508 130.496 174.682V175.185C130.496 175.361 130.54 175.477 130.635 175.565C130.723 175.638 130.84 175.681 130.992 175.681H131.401V179.319C131.401 180.252 131.656 180.836 132.13 181.303C132.567 181.733 133.136 182.002 134.128 182.002H134.747C134.9 182.002 135.017 181.959 135.105 181.886C135.199 181.798 135.257 181.681 135.257 181.507V180.872C135.257 180.697 135.199 180.581 135.105 180.493C135.017 180.42 134.9 180.376 134.747 180.376H134.66C134.266 180.376 133.996 180.275 133.814 180.099C133.595 179.895 133.486 179.582 133.486 179.174V175.681H134.813C134.966 175.681 135.083 175.638 135.17 175.565C135.265 175.477 135.309 175.361 135.309 175.185V174.682C135.309 174.508 135.265 174.391 135.17 174.303C135.083 174.23 134.966 174.187 134.813 174.187H133.493V171.81C133.493 171.62 133.435 171.481 133.347 171.372C133.238 171.241 133.085 171.161 132.859 171.161H132.035C131.809 171.161 131.656 171.241 131.546 171.372C131.459 171.481 131.401 171.62 131.401 171.81V174.187ZM135.863 181.353C135.863 181.543 135.921 181.681 136.009 181.791C136.118 181.922 136.271 182.002 136.497 182.002H137.364C137.591 182.002 137.744 181.922 137.853 181.791C137.941 181.681 137.999 181.543 137.999 181.353V171.81C137.999 171.62 137.941 171.482 137.853 171.372C137.744 171.241 137.591 171.161 137.364 171.161H136.497C136.271 171.161 136.118 171.241 136.009 171.372C135.921 171.482 135.863 171.62 135.863 171.81V181.353ZM117.22 177.103C117.314 176.206 118 175.535 119.043 175.535C120.064 175.535 120.77 176.206 120.865 177.103H117.22ZM145.895 172.794C146.048 172.794 146.165 172.75 146.252 172.678C146.347 172.59 146.391 172.473 146.391 172.298V171.62C146.391 171.358 146.34 171.226 146.252 171.132C146.172 171.044 146.041 170.993 145.895 170.993C145.778 170.993 145.662 171.008 145.465 171.029L139.647 171.605C139.479 171.62 139.399 171.671 139.341 171.737C139.275 171.81 139.246 171.905 139.246 172.036V172.415C139.246 172.561 139.275 172.626 139.326 172.685C139.391 172.758 139.486 172.794 139.618 172.794H145.895ZM142.68 173.909C140.15 173.909 138.728 175.885 138.728 177.971C138.728 180.194 140.252 182.148 142.694 182.148C143.912 182.148 145.108 181.689 145.793 180.88C146.092 180.53 146.333 180.041 146.333 179.742C146.333 179.64 146.31 179.553 146.252 179.487C146.194 179.414 146.106 179.37 145.953 179.37H144.78C144.546 179.37 144.386 179.458 144.269 179.633C143.927 180.136 143.431 180.399 142.702 180.399C141.608 180.399 140.9 179.567 140.85 178.656H145.939C146.165 178.656 146.325 178.605 146.434 178.496C146.558 178.379 146.617 178.211 146.617 177.897C146.617 176.943 146.318 175.951 145.691 175.193C145.049 174.427 144.058 173.909 142.68 173.909ZM140.864 177.103C140.959 176.206 141.644 175.535 142.687 175.535C143.708 175.535 144.415 176.206 144.51 177.103H140.864Z" fill="#484848"/>
<path d="M97.0557 172.885C95.1683 170.07 93.5098 169.121 93.0433 168.675C92.5308 168.182 92.1402 167.624 91.8917 167.356C91.3388 166.752 90.6233 166.006 89.4463 166.006C88.3102 166.006 87.5595 166.747 87.3156 167.386C87.2448 167.569 87.189 167.792 87.1384 167.873C87.0268 168.056 86.5246 168.913 86.3164 169.253H87.2552L86.7984 170.115C87.3311 169.999 87.7114 169.912 88.2187 169.912C88.6703 169.912 88.9948 170.019 89.1368 170.303C89.4009 170.831 89.4009 172.428 89.8473 173.631C90.2632 174.762 91.2779 175.868 92.4192 176.715C92.4342 176.725 92.4497 176.73 92.4698 176.73C92.5256 176.73 92.5613 176.69 92.5613 176.649C92.5613 176.618 92.5509 176.598 92.5256 176.573C91.5719 175.619 90.7958 174.564 90.3799 173.408C89.9687 172.282 90.0348 170.699 89.6747 169.993C89.436 169.527 88.9291 169.405 88.4621 169.405C88.087 169.405 87.7367 169.481 87.5745 169.516L87.9852 168.822H87.2903C87.4376 168.563 87.5895 168.325 87.6659 168.182C87.7315 168.061 87.7574 167.909 87.8385 167.701C88.102 167.036 88.6853 166.615 89.4463 166.615C90.4001 166.615 90.9581 167.229 91.5109 167.842C91.7646 168.127 92.1805 168.72 92.6625 169.162C92.9922 169.466 93.6214 169.806 94.5902 170.806C95.1482 171.384 95.7976 172.134 96.4822 173.139C98.9327 176.725 100.541 179.885 101.438 182.351L101.424 182.361C98.8516 180.616 96.6243 178.967 94.8289 176.933C93.5553 175.487 92.4497 173.814 91.4856 171.678C91.4194 171.536 91.3642 171.404 91.3032 171.267C91.2779 171.211 91.2526 171.196 91.2117 171.196C91.1611 171.196 91.1255 171.231 91.1255 171.282C91.1255 171.338 91.1508 171.46 91.2066 171.703C91.7191 173.915 93.1394 175.898 94.6563 177.547C96.1681 179.186 97.8772 180.596 99.2825 181.621L100.378 184.755C100.404 184.832 100.434 184.913 100.434 184.989C100.434 185.045 100.419 185.09 100.383 185.121C100.353 185.151 100.313 185.167 100.221 185.167H99.8916C99.7495 185.167 99.6932 185.146 99.6426 185.106C99.592 185.065 99.5568 185.004 99.531 184.933C99.4349 184.639 98.8562 182.99 98.7451 182.655C98.7245 182.595 98.6888 182.574 98.6485 182.574C98.5979 182.574 98.5623 182.615 98.5623 182.66C98.5623 182.701 98.5772 182.747 98.6031 182.889C98.7498 183.639 98.9224 184.481 98.9931 184.801C99.0241 184.948 99.0593 185.085 99.0593 185.187C99.0593 185.278 99.0391 185.329 98.9632 185.405L98.6232 185.75C98.5421 185.831 98.4961 185.851 98.4305 185.851C98.3494 185.851 98.2833 185.795 98.2528 185.653C97.8673 183.852 97.284 181.621 97.1316 181.001C97.096 180.865 97.0707 180.788 96.9895 180.788C96.9188 180.788 96.8934 180.839 96.8934 180.9C96.8934 180.945 96.9033 181.001 96.9084 181.042C96.9999 181.681 97.3703 184.01 97.7707 186.135C97.842 186.501 97.9789 186.703 98.2936 186.703C98.4357 186.703 98.5721 186.647 98.6992 186.526C98.9074 186.318 98.9678 186.262 99.2169 186.019C99.3941 185.846 99.516 185.775 99.8203 185.775H100.571C100.749 185.775 100.845 185.73 100.931 185.648C101.012 185.572 101.063 185.466 101.063 185.313C101.063 185.156 101.023 185.03 100.967 184.872C100.774 184.355 100.155 182.604 99.9722 182.113L99.9877 182.102C100.622 182.584 101.545 183.198 101.951 183.198C102.078 183.198 102.154 183.142 102.154 182.944C102.154 182.011 100.602 178.171 97.0557 172.885Z" fill="#484848"/>
<path d="M79.6406 166.988C79.7471 166.754 79.9806 166.592 80.2596 166.592C80.6399 166.592 80.9442 166.886 80.9442 167.277C80.9442 167.505 80.8377 167.703 80.6703 167.825C80.706 167.957 80.7313 168.073 80.7313 168.185C80.7313 168.611 80.4776 168.91 80.0111 169.068C79.9501 169.326 79.8385 169.56 79.6556 169.732C79.3513 170.026 79.0418 170.026 79.0418 170.148C79.0418 170.214 79.0878 170.254 79.2144 170.254C79.7776 170.254 80.3304 169.94 80.3965 169.417C80.9344 169.235 81.2588 168.692 81.2588 168.261C81.2588 168.149 81.2485 168.053 81.203 167.962C81.3503 167.819 81.5228 167.576 81.5228 167.216C81.5228 166.901 81.3854 166.582 81.1421 166.348C80.9292 166.14 80.6295 166.003 80.2798 166.003C79.7724 166.003 79.4428 166.278 79.2552 166.546C78.7019 166.546 77.9868 167.16 77.9868 168.038H77.9109C77.8597 167.734 77.5456 167.53 77.2816 167.515C77.0687 166.876 76.5867 166.328 75.7952 166.328C75.7042 166.328 75.5926 166.334 75.496 166.348C75.263 166.135 75.0042 166.003 74.644 166.003C73.9538 166.003 73.3906 166.557 73.3906 167.256C73.3906 167.693 73.5885 167.992 73.9641 168.256C73.9641 168.256 73.9589 168.312 73.9589 168.337C73.9589 168.895 74.5676 169.768 75.4707 169.768C75.4707 169.909 75.6484 170.103 75.8463 170.138V170.209H75.7698C74.5273 170.209 73.9998 170.808 73.9998 171.208C73.6293 171.361 73.3906 171.771 73.3906 172.152C73.3906 172.907 73.944 173.445 74.6745 173.445C74.9179 173.445 75.1664 173.349 75.3389 173.217C75.4655 173.262 75.6278 173.288 75.7952 173.288C76.1454 173.288 76.536 173.166 76.8099 172.765C76.8507 172.771 76.8858 172.771 76.9266 172.771C77.373 172.771 77.7585 172.476 77.9615 172.091C78.0121 171.995 78.0323 171.919 78.0323 171.862C78.0323 171.807 78.007 171.761 77.9512 171.761C77.8804 171.761 77.8701 171.827 77.7435 171.944C77.4593 172.203 77.0227 172.299 76.5763 172.299C76.3583 172.619 76.0897 172.786 75.7802 172.786C75.5518 172.786 75.3746 172.725 75.1917 172.603C75.0444 172.765 74.8621 172.832 74.6843 172.832C74.2839 172.832 73.9998 172.553 73.9998 172.146C73.9998 171.862 74.1821 171.609 74.4358 171.512C74.4813 171.01 75.0191 170.67 75.6887 170.67C75.775 170.67 75.8613 170.676 75.9527 170.686C76.054 170.524 76.2973 170.351 76.6425 170.305C76.7138 170.295 76.7691 170.29 76.8099 170.27C76.8507 170.249 76.8708 170.209 76.8708 170.163C76.8708 170.123 76.8553 170.087 76.815 170.062C76.7794 170.042 76.7184 170.032 76.6476 170.016C76.3278 169.955 75.9476 169.757 75.7549 169.275C74.9887 169.275 74.4255 168.662 74.4255 167.972V167.926C74.1718 167.825 73.9998 167.581 73.9998 167.292C73.9998 166.912 74.2989 166.607 74.6792 166.607C74.9075 166.607 75.1054 166.719 75.2325 166.886C75.3389 166.856 75.4604 166.846 75.5771 166.846C76.1454 166.846 76.7541 167.206 76.8708 167.906C77.6014 167.972 77.774 168.591 77.8194 168.85C77.8447 168.981 77.8649 169.093 77.9512 169.093C78.0426 169.093 78.0628 168.991 78.0933 168.854C78.1491 168.596 78.2457 168.388 78.4384 168.226C78.4384 167.561 78.9354 166.988 79.6406 166.988Z" fill="#484848"/>
<path d="M81.1139 170.964C80.8752 171.304 80.7031 171.471 80.1601 172.11C79.445 172.957 79.0694 173.643 78.4453 175.164C78.5471 175.154 78.6943 175.144 78.8566 175.144C78.9377 175.144 79.0033 175.144 79.1103 175.149L79.1862 174.986C79.5365 174.236 80.0077 173.221 80.6675 172.44L80.8958 172.171C81.5752 171.375 81.9963 170.903 82.2603 169.817C82.3518 169.432 82.4277 169.087 82.6866 168.838C82.9196 168.615 83.2141 168.519 83.5132 168.519C83.7669 168.519 83.955 168.58 84.2288 168.696C84.4773 168.802 84.5682 168.823 84.8322 168.823C84.9237 168.823 84.9893 168.818 85.0503 168.813L84.6953 169.29L85.1774 169.63C84.5734 169.807 84.2541 170.391 84.1472 170.659C84.127 170.715 84.1172 170.751 84.1172 170.786C84.1172 170.827 84.1373 170.868 84.1983 170.868C84.2639 170.868 84.3146 170.817 84.4008 170.715C84.6953 170.36 84.9289 170.116 86.0138 169.777L85.2482 169.198L85.8263 168.351H85.2838C84.9387 168.351 84.7103 168.346 84.4112 168.209C84.0051 168.022 83.7974 167.941 83.4373 167.941C82.996 167.941 82.5951 168.098 82.2655 168.402C81.8847 168.752 81.7679 169.219 81.6315 169.731C81.5246 170.127 81.398 170.563 81.1139 170.964Z" fill="#484848"/>
<path d="M82.2824 174.432C81.993 174.822 81.5973 175.334 81.293 175.877C81.3896 175.923 81.7094 176.096 81.821 176.156C82.1708 175.629 82.658 174.98 82.9773 174.487C83.2666 174.041 83.3834 173.848 83.4035 173.25C83.4087 173.148 83.4087 173.052 83.4185 172.956C83.4438 172.646 83.5255 172.331 83.8194 172.043C84.0375 171.824 84.3521 171.713 84.6667 171.713C84.9711 171.713 85.1483 171.799 85.4123 171.799C85.5998 171.799 85.7367 171.753 85.8587 171.708L85.9553 171.672L85.7218 172.231L86.2694 172.453C85.9196 172.671 85.1534 173.61 85.1534 174.721C85.1534 175.122 85.2144 175.492 85.3007 175.821C85.311 175.857 85.3312 175.893 85.387 175.893C85.4376 175.893 85.4733 175.862 85.4784 175.806L85.4836 175.69C85.4986 175.35 85.5239 174.812 85.6608 174.33C85.8892 173.519 86.503 172.758 87.1167 172.392L86.2441 172.012L86.6197 171.094L86.209 171.18C85.9605 171.231 85.7776 171.276 85.5595 171.276C85.4175 171.276 85.2552 171.256 85.0625 171.21C84.9153 171.175 84.7577 171.145 84.535 171.145C84.1341 171.145 83.7027 171.297 83.4087 171.581C82.8708 172.093 82.8404 172.646 82.8047 173.138C82.7592 173.793 82.6373 173.955 82.2824 174.432Z" fill="#484848"/>
<path d="M95.3033 174.729C95.2677 174.684 95.2372 174.663 95.1969 174.663C95.136 174.663 95.1055 174.704 95.1055 174.749C95.1055 174.821 95.1561 174.907 95.2832 175.12C95.6686 175.775 96.1455 176.434 96.734 177.053C97.3679 177.728 98.1135 178.356 98.9101 178.919L99.1587 179.092C99.1943 179.118 99.2196 179.133 99.2501 179.133C99.3007 179.133 99.3364 179.082 99.3364 179.041C99.3364 179.016 99.3261 178.99 99.2956 178.965C98.5552 178.291 97.7585 177.469 97.013 176.678C96.4291 176.054 95.8309 175.394 95.3033 174.729Z" fill="#484848"/>
<path d="M78.9746 172.438C79.0505 172.311 79.2789 172.001 79.3704 171.905C78.9798 171.114 78.3407 170.358 78.0617 170.058L77.8281 170.287C78.0973 170.677 78.5483 171.433 78.9746 172.438Z" fill="#484848"/>
<path d="M75.2589 167.863C75.2129 167.822 75.2031 167.797 75.2031 167.767C75.2031 167.731 75.2284 167.691 75.2842 167.691C75.3044 167.691 75.3245 167.696 75.3504 167.706C75.7255 167.858 76.0453 168.036 76.3294 168.254C76.5676 168.436 76.8012 168.66 77.029 168.929L76.8161 169.172C76.5526 168.953 75.7002 168.239 75.2589 167.863Z" fill="#484848"/>
<path d="M78.852 169.555L78.5781 169.387C78.7553 168.966 78.9739 168.581 79.2322 168.291C79.4151 168.084 79.5877 167.916 79.7804 167.749C79.8259 167.713 79.8512 167.683 79.8966 167.683C79.9478 167.683 79.9834 167.724 79.9834 167.764C79.9834 167.784 79.9731 167.809 79.953 167.84C79.6435 168.322 79.0395 169.276 78.852 169.555Z" fill="#484848"/>
<path d="M75.4165 171.904C75.3504 171.93 75.3199 171.945 75.2848 171.945C75.229 171.945 75.2031 171.899 75.2031 171.864C75.2031 171.829 75.2186 171.808 75.2543 171.777C75.8779 171.291 76.4261 171.098 77.1819 170.971L77.2729 171.276L75.4165 171.904Z" fill="#484848"/>
<path d="M88.4297 167.972C88.4297 167.794 88.5211 167.475 88.8504 167.475C88.9619 167.475 89.0683 167.5 89.1545 167.541C89.2763 167.597 89.3574 167.678 89.3574 167.764C89.3574 167.855 89.266 167.947 89.1292 168.058C88.9872 168.174 88.805 168.281 88.6579 168.281C88.4808 168.281 88.4297 168.113 88.4297 167.972Z" fill="#484848"/>
<path d="M83.2812 169.455C83.2812 169.237 83.4129 168.999 83.6664 168.999C83.7779 168.999 83.9095 169.044 84.006 169.136C84.0618 169.187 84.0871 169.242 84.0871 169.298C84.0871 169.42 83.9704 169.536 83.8336 169.617C83.7273 169.678 83.6158 169.719 83.5198 169.719C83.3623 169.719 83.2812 169.622 83.2812 169.455Z" fill="#484848"/>
<path d="M84.4688 172.574C84.4688 172.523 84.4739 172.462 84.494 172.401C84.5348 172.27 84.6205 172.143 84.8337 172.143C84.9303 172.143 85.0361 172.168 85.1223 172.229C85.1987 172.28 85.2292 172.345 85.2292 172.411C85.2292 172.629 84.8642 172.883 84.6814 172.883C84.5498 172.883 84.4688 172.756 84.4688 172.574Z" fill="#484848"/>
<path d="M82.4738 178.984C81.7892 178.984 81.4844 178.66 81.4844 178.249C81.4844 177.528 82.7476 176.824 83.8837 176.387L84.1782 176.768C83.4782 177.046 82.0682 177.646 82.0682 178.163C82.0682 178.345 82.1746 178.478 82.6004 178.478C83.3412 178.478 84.1379 178.117 84.8731 177.757C84.9289 177.731 84.9951 177.706 85.056 177.706C85.1521 177.706 85.2131 177.737 85.2839 177.838L85.4058 178.005C84.5487 178.478 83.4782 178.984 82.4738 178.984Z" fill="#484848"/>
<path d="M84.3576 179.178C83.688 179.553 82.9931 179.802 82.3793 179.802C81.6942 179.802 81.0856 179.507 80.5783 178.741C80.3654 178.417 80.198 178.011 79.9949 177.651C79.7516 177.225 79.4876 176.996 79.0262 176.996C78.6051 176.996 78.1939 177.169 77.7578 177.356L77.778 177.453C77.8136 177.61 77.8746 177.722 78.0213 177.722C78.0874 177.722 78.1536 177.692 78.1892 177.681C78.4326 177.605 78.6098 177.539 78.8588 177.539C79.2391 177.539 79.4215 177.762 79.6803 178.31L79.7769 178.513C79.5129 178.605 78.8939 178.65 78.4326 178.65H78.2145L78.2502 178.868C78.2652 178.96 78.3008 179.036 78.3768 179.071C78.4677 179.117 78.6 179.122 78.8283 179.122C79.4065 179.122 79.8275 179.051 80.0709 178.99C80.695 179.918 81.5522 180.273 82.3793 180.273C83.084 180.273 83.7996 180.015 84.4847 179.639L84.3576 179.178Z" fill="#484848"/>
<path d="M85.0472 179.404L84.9258 178.937C85.9705 178.374 86.9242 177.923 88.4463 177.776C88.4768 178.359 88.436 179.095 88.8674 179.095C89.2626 179.095 90.1249 178.075 91.1195 176.797C91.2109 176.883 91.3577 176.974 91.4899 177.076L91.2363 177.405C90.267 178.653 89.4403 179.719 88.7604 179.719C88.1265 179.719 87.8878 178.973 87.878 178.415C86.9092 178.511 85.9958 178.836 85.0472 179.404Z" fill="#484848"/>
<path d="M98.4665 169.216C98.0708 169.216 97.9592 168.997 97.9592 168.688C97.9592 168.049 98.3601 167.131 98.6138 166.608H97.9995C97.6802 167.227 96.4221 169.211 95.7422 170.033L96.1328 170.453C96.4981 170.048 96.899 169.358 97.335 168.678H97.4162C97.4162 168.714 97.4115 168.754 97.4115 168.789C97.4115 169.363 97.7055 169.789 98.4309 169.789C98.8773 169.789 99.5773 169.566 100.237 169.342C100.785 169.155 101.287 168.962 101.535 168.891V168.283C101.251 168.368 100.673 168.592 100.074 168.8C99.4456 169.018 98.8266 169.216 98.4665 169.216Z" fill="#484848"/>
<path d="M99.8235 171.072C100.432 170.813 101.523 170.377 102.152 170.148V169.529C100.889 169.996 98.6719 170.915 97.1602 171.737C97.201 171.787 97.465 172.157 97.495 172.203C98.1341 171.939 98.7075 171.767 99.2247 171.767C99.9506 171.767 100.544 171.767 101.538 171.533V171.066C100.98 171.168 100.387 171.29 100.001 171.29C99.7729 171.29 99.7068 171.259 99.7068 171.183C99.7068 171.138 99.7373 171.107 99.8235 171.072Z" fill="#484848"/>
</g>
<path d="M86.8298 173.924L86.5859 174.391H89.1785L88.9858 173.924H86.8298Z" fill="#484848"/>
<mask id="mask3_652_3877" style="mask-type:alpha" maskUnits="userSpaceOnUse" x="-147" y="151" width="310" height="382">
<path d="M-146.293 532.148H162.726V151.367H-146.293V532.148Z" fill="white"/>
</mask>
<g mask="url(#mask3_652_3877)">
<path d="M77.4893 176.723C77.7631 176.723 77.9863 176.631 78.1997 176.545C78.4022 176.464 78.6053 176.383 78.8791 176.383C79.5285 176.383 80.3299 176.697 81.0351 176.996C81.0759 177.012 81.1214 177.022 81.1669 177.022C81.279 177.022 81.3653 176.971 81.4205 176.865L81.512 176.697C80.736 176.246 79.4981 175.764 78.8538 175.764C78.5598 175.764 78.3464 175.84 78.1439 175.921C77.9155 176.013 77.7176 176.109 77.5094 176.109C76.9974 176.109 75.6836 175.601 75.6836 175.11C75.6836 174.531 77.7734 174.308 78.0018 174.308L78.2095 173.836C76.6931 173.836 74.8869 174.369 74.8869 175.074C74.8869 175.277 75.0036 175.378 75.0036 175.566C75.0036 175.82 74.8869 175.992 74.8869 176.276C74.8869 176.464 74.9985 176.702 75.1302 176.911C75.2723 177.129 75.4397 177.27 75.4397 177.453C75.4397 177.59 75.3488 177.752 75.3488 178.072C75.3488 178.757 75.7394 179.173 76.4999 179.989L76.6523 180.152C76.0235 180.396 74.8512 180.903 74.5774 181.019C73.6288 181.415 73.3906 181.897 73.3906 182.658C73.3906 182.952 73.3906 183.287 73.4108 183.586H73.5932C73.9739 183.586 74.0194 183.358 74.0194 183.14C74.0194 182.993 74.0142 182.825 74.0142 182.643C74.0194 182.222 74.0349 181.846 74.7143 181.542C74.9887 181.42 76.3325 180.872 77.3322 180.446C77.6262 180.319 77.9 180.213 78.2043 180.213C78.5443 180.213 78.9349 180.36 79.4221 180.649C79.8328 180.893 80.2643 181.222 80.6042 181.602L81.0351 181.273C80.6647 180.837 80.1527 180.446 79.6401 180.142C79.1276 179.838 78.6714 179.66 78.286 179.66C78.1186 179.66 77.9817 179.69 77.8649 179.721C77.728 179.756 77.6009 179.797 77.4386 179.797C77.2511 179.797 77.0935 179.751 76.8652 179.487C76.7789 179.391 76.2312 178.767 76.1145 178.585C76.0587 178.498 75.9574 178.326 75.9574 178.123C75.9574 178.037 75.9724 177.935 76.0235 177.844C76.4947 178.209 77.0785 178.432 77.7884 178.519L77.6923 178.037C76.6724 177.768 75.5869 176.87 75.5869 176.292C75.5869 176.17 75.6174 176.084 75.6634 175.977C76.0587 176.342 76.9871 176.723 77.4893 176.723Z" fill="#484848"/>
<path d="M84.7891 176.807C85.4282 176.355 86.0874 176.304 86.6201 176.304C86.9399 176.304 87.315 176.35 87.7108 176.401C88.0306 176.441 88.3194 176.472 88.6645 176.472C89.3594 176.472 90.0595 176.218 90.3638 176.086C90.4501 176.193 90.5973 176.335 90.7141 176.436C90.5669 176.528 89.6338 177.034 88.68 177.034C88.2589 177.034 87.858 176.984 87.5129 176.938C87.2086 176.898 86.8789 176.862 86.5591 176.862C86.2094 176.862 85.5041 176.964 85.0681 177.172L84.7891 176.807Z" fill="#484848"/>
<path d="M94.2072 178.618C93.4462 180.221 92.2894 181.388 91.1026 182.063C90.5395 182.382 90.0321 182.59 88.9368 182.59H86.5674C85.7206 182.59 85.1879 182.702 84.772 182.808C84.3251 182.925 84.0415 183.041 83.5899 183.041C82.9203 183.041 82.3014 182.712 82.0022 182.398L82.5602 181.956L82.2812 181.585C82.119 181.703 80.1355 183.168 79.7191 183.498L79.6938 183.483C79.7041 183.382 79.7041 183.29 79.7041 183.199C79.7041 182.083 79.1864 181.814 78.4006 181.5L77.8679 181.814C78.9482 182.174 79.2169 182.463 79.2169 183.27C79.2169 183.909 78.9885 184.162 78.6589 184.356C78.319 184.554 77.8979 184.644 77.528 184.644C77.3704 184.644 77.2996 184.675 77.2438 184.731C77.1828 184.792 77.1523 184.883 77.1523 185.01V185.188H77.2794C77.9588 185.188 78.5881 185.081 79.2779 184.538L81.5253 182.783C81.8446 183.148 82.6517 183.656 83.6049 183.656C84.1427 183.656 84.4879 183.523 84.9849 183.397C85.3703 183.3 85.7459 183.214 86.5674 183.214H88.9466C90.1644 183.214 90.7529 182.96 91.4018 182.595C92.8123 181.804 94.0145 180.465 94.6945 178.927C94.5167 178.816 94.3493 178.714 94.2072 178.618Z" fill="#484848"/>
<path d="M90.3884 180.519C91.0022 179.535 91.5498 178.663 92.8942 177.953C92.7521 177.866 92.5496 177.735 92.4426 177.663C91.9203 177.892 91.4031 178.348 90.9619 178.81C89.9472 179.865 90.0381 180.473 88.9681 180.885C88.6989 180.986 88.3693 181.098 87.9482 181.194C87.6997 180.428 87.0761 179.667 86.4163 179.667C85.9596 179.667 85.4321 179.905 84.8235 180.174C84.1084 180.489 83.4538 180.849 83.2461 180.986L83.5251 181.362C83.738 181.244 84.3517 180.94 84.9655 180.676C85.4982 180.448 85.9803 180.261 86.3047 180.261C86.8271 180.261 87.167 180.854 87.3551 181.331C86.67 181.493 85.5437 181.534 85.2042 181.534C85.0466 181.534 84.9909 181.559 84.9351 181.605C84.8844 181.65 84.8436 181.731 84.8183 181.843L84.778 182.016H85.1427C87.0404 182.016 88.8312 181.716 89.9823 181.016C90.145 181.062 90.2871 181.092 90.4695 181.092C91.1288 181.092 91.8087 180.732 92.2349 180.403C92.3868 180.286 92.4225 180.179 92.4225 180.063C92.4225 180.007 92.4173 179.956 92.4121 179.905L92.392 179.708C91.7834 180.189 91.276 180.55 90.6472 180.55C90.5356 180.55 90.4545 180.54 90.3884 180.519Z" fill="#484848"/>
</g>
</g>
<g clip-path="url(#clip2_652_3877)">
<path d="M216.54 171.54C220.293 170.787 224.167 170.799 227.957 171.251C229.523 171.455 231.153 171.66 232.534 172.487C233.34 172.955 233.964 173.803 233.993 174.757C231.409 174.81 228.826 174.783 226.243 174.775C225.471 173.874 224.238 173.592 223.102 173.54C221.581 173.489 219.999 173.604 218.606 174.267C217.428 174.825 216.417 175.859 216.106 177.15C215.954 177.738 216.334 178.346 216.851 178.612C217.849 179.122 218.993 179.181 220.092 179.222C221.531 179.28 223.029 179.011 224.25 178.213C224.371 178.144 224.477 178.014 224.631 178.033C227.243 178.024 229.856 178.028 232.468 178.039C231.569 179.046 230.373 179.738 229.127 180.226C227.565 180.84 225.907 181.162 224.249 181.383C222.41 181.602 220.558 181.737 218.706 181.71C216.2 181.696 213.666 181.533 211.248 180.832C210.134 180.484 209.009 179.952 208.282 179.004C207.677 178.252 207.592 177.16 207.989 176.293C208.504 175.152 209.511 174.327 210.568 173.706C212.414 172.645 214.46 171.967 216.54 171.54Z" fill="#484848"/>
<path d="M183.671 171.296C186.387 171.252 189.103 171.321 191.819 171.311C191.32 172.438 190.813 173.564 190.312 174.691C192.955 174.696 195.598 174.682 198.241 174.698C198.758 173.574 199.24 172.433 199.758 171.309C202.549 171.306 205.339 171.299 208.13 171.31C206.615 174.657 205.107 178.005 203.599 181.355C201.262 181.406 198.923 181.375 196.585 181.382C196.143 181.386 195.699 181.396 195.26 181.335C195.878 180.02 196.462 178.689 197.056 177.364C194.405 177.363 191.754 177.363 189.103 177.363C188.528 178.692 187.935 180.013 187.378 181.349C184.631 181.407 181.884 181.385 179.137 181.369C180.626 178.001 182.173 174.659 183.671 171.296Z" fill="#484848"/>
<path d="M237.911 171.281C240.717 171.281 243.524 171.281 246.331 171.281C245.194 173.831 244.05 176.377 242.901 178.922C246.769 178.924 250.638 178.934 254.506 178.933C254.138 179.748 253.771 180.564 253.403 181.379C246.733 181.384 240.063 181.386 233.395 181.378C234.881 178.004 236.401 174.645 237.911 171.281Z" fill="#484848"/>
</g>
<defs>
<clipPath id="clip0_652_3877">
<rect width="75.2374" height="18.7341" fill="white" transform="translate(28.7227 16.625)"/>
</clipPath>
<clipPath id="clip1_652_3877">
<rect width="73.7187" height="21.1884" fill="white" transform="translate(73.1406 165.789)"/>
</clipPath>
<clipPath id="clip2_652_3877">
<rect width="76" height="11.4077" fill="white" transform="translate(178.859 170.68)"/>
</clipPath>
</defs>
</svg>
