<svg width="24" height="24" viewBox="0 0 24 24" fill="none" xmlns="http://www.w3.org/2000/svg">
<g clip-path="url(#clip0)">
<path fill-rule="evenodd" clip-rule="evenodd" d="M8.16248 5.00808C9.17657 3.96501 10.5566 3.375 12.0001 3.375C13.4436 3.375 14.8236 3.96499 15.8376 5.00807C16.8511 6.05041 17.4168 7.45974 17.4168 8.925C17.4168 11.6179 17.9769 13.2947 18.496 14.2736C18.7565 14.7648 19.0103 15.0874 19.1872 15.2794C19.2758 15.3756 19.3456 15.4396 19.3879 15.4759C19.4091 15.494 19.4235 15.5053 19.4299 15.5102C19.4311 15.5111 19.432 15.5118 19.4326 15.5123C19.6978 15.6994 19.8128 16.0363 19.7165 16.347C19.6192 16.661 19.3288 16.875 19.0001 16.875H5.00006C4.67137 16.875 4.38097 16.661 4.28367 16.347C4.18738 16.0363 4.30239 15.6994 4.56752 15.5123C4.56816 15.5118 4.56908 15.5111 4.57029 15.5102C4.5767 15.5053 4.59104 15.494 4.61222 15.4759C4.65456 15.4396 4.72437 15.3756 4.81298 15.2794C4.98982 15.0874 5.24367 14.7648 5.50412 14.2736C6.02324 13.2947 6.58339 11.6179 6.58339 8.925C6.58339 7.45976 7.14908 6.05042 8.16248 5.00808ZM17.398 15.375C17.3225 15.2518 17.2465 15.1191 17.1708 14.9764C16.5233 13.7553 15.9168 11.8321 15.9168 8.925C15.9168 7.84418 15.4991 6.81172 14.7622 6.05371L14.7621 6.05368C14.026 5.29641 13.032 4.875 12.0001 4.875C10.9682 4.875 9.97422 5.29641 9.23797 6.0537C8.50102 6.8117 8.08339 7.84416 8.08339 8.925C8.08339 11.8321 7.47687 13.7553 6.82932 14.9764C6.75365 15.1191 6.67762 15.2518 6.60221 15.375H17.398ZM9.58346 18.5013C9.9279 18.2713 10.3937 18.364 10.6238 18.7084C10.7492 18.8963 10.9381 19.0646 11.1815 19.1863C11.425 19.308 11.7076 19.375 12.0001 19.375C12.2926 19.375 12.5752 19.308 12.8187 19.1863C13.0621 19.0646 13.251 18.8963 13.3764 18.7084C13.6065 18.364 14.0723 18.2713 14.4167 18.5013C14.7611 18.7314 14.8538 19.1972 14.6238 19.5416C14.3428 19.9621 13.9481 20.2986 13.4895 20.5279C13.031 20.7572 12.5178 20.875 12.0001 20.875C11.4824 20.875 10.9692 20.7572 10.5107 20.5279C10.0521 20.2986 9.65731 19.9621 9.3764 19.5416C9.14632 19.1972 9.23903 18.7314 9.58346 18.5013Z" fill="#484848"/>
</g>
<defs>
<clipPath id="clip0">
<rect width="24" height="24" fill="white"/>
</clipPath>
</defs>
</svg>
