<svg width="275" height="108" viewBox="0 0 275 108" fill="none" xmlns="http://www.w3.org/2000/svg">
<rect width="275" height="108" rx="8" transform="matrix(1 0 0 -1 0 108)" fill="white"/>
<path d="M13.1449 27V17.5455H14.2898V21.7557H19.331V17.5455H20.4759V27H19.331V22.7713H14.2898V27H13.1449ZM22.6202 27V19.9091H23.7097V27H22.6202ZM23.1742 18.7273C22.9618 18.7273 22.7787 18.6549 22.6248 18.5103C22.474 18.3656 22.3986 18.1918 22.3986 17.9886C22.3986 17.7855 22.474 17.6116 22.6248 17.467C22.7787 17.3223 22.9618 17.25 23.1742 17.25C23.3865 17.25 23.5681 17.3223 23.7189 17.467C23.8728 17.6116 23.9498 17.7855 23.9498 17.9886C23.9498 18.1918 23.8728 18.3656 23.7189 18.5103C23.5681 18.6549 23.3865 18.7273 23.1742 18.7273ZM29.5091 17.5455H30.8756L34.0887 25.3935H34.1995L37.4126 17.5455H38.779V27H37.708V19.8168H37.6157L34.6611 27H33.627L30.6725 19.8168H30.5802V27H29.5091V17.5455ZM43.0135 27.1662C42.5642 27.1662 42.1564 27.0816 41.7901 26.9123C41.4239 26.7399 41.133 26.4922 40.9176 26.169C40.7022 25.8428 40.5945 25.4489 40.5945 24.9872C40.5945 24.581 40.6745 24.2517 40.8345 23.9993C40.9946 23.7438 41.2085 23.5438 41.4762 23.3991C41.744 23.2545 42.0394 23.1468 42.3626 23.076C42.6888 23.0021 43.0166 22.9437 43.3459 22.9006C43.7768 22.8452 44.1261 22.8036 44.3938 22.7759C44.6647 22.7451 44.8616 22.6944 44.9847 22.6236C45.1109 22.5528 45.174 22.4297 45.174 22.2543V22.2173C45.174 21.7618 45.0494 21.4079 44.8001 21.1555C44.5539 20.9032 44.1799 20.777 43.6783 20.777C43.1581 20.777 42.7504 20.8909 42.4549 21.1186C42.1594 21.3464 41.9517 21.5895 41.8317 21.848L40.7976 21.4787C40.9822 21.0478 41.2285 20.7124 41.5362 20.4723C41.8471 20.2292 42.1856 20.0599 42.5518 19.9645C42.9212 19.866 43.2843 19.8168 43.6413 19.8168C43.8691 19.8168 44.1307 19.8445 44.4261 19.8999C44.7247 19.9522 45.0124 20.0614 45.2894 20.2276C45.5695 20.3938 45.8018 20.6446 45.9865 20.9801C46.1712 21.3156 46.2635 21.7649 46.2635 22.3281V27H45.174V26.0398H45.1186C45.0447 26.1937 44.9216 26.3583 44.7493 26.5337C44.5769 26.7092 44.3477 26.8584 44.0614 26.9815C43.7752 27.1046 43.4259 27.1662 43.0135 27.1662ZM43.1797 26.1875C43.6106 26.1875 43.9737 26.1029 44.2692 25.9336C44.5677 25.7643 44.7924 25.5458 44.9432 25.2781C45.0971 25.0103 45.174 24.7287 45.174 24.4332V23.4361C45.1278 23.4915 45.0263 23.5423 44.8693 23.5884C44.7154 23.6315 44.5369 23.67 44.3338 23.7038C44.1338 23.7346 43.9383 23.7623 43.7475 23.7869C43.5598 23.8085 43.4074 23.8269 43.2905 23.8423C43.0073 23.8793 42.7427 23.9393 42.4964 24.0224C42.2533 24.1024 42.0563 24.224 41.9055 24.3871C41.7578 24.5471 41.6839 24.7656 41.6839 25.0426C41.6839 25.4212 41.824 25.7074 42.104 25.9013C42.3872 26.0921 42.7457 26.1875 43.1797 26.1875ZM48.252 27V19.9091H49.3046V21.017H49.3969C49.5447 20.6385 49.7832 20.3446 50.1125 20.1353C50.4418 19.9229 50.8373 19.8168 51.2989 19.8168C51.7667 19.8168 52.156 19.9229 52.4669 20.1353C52.7808 20.3446 53.0255 20.6385 53.2009 21.017H53.2748C53.4564 20.6508 53.7287 20.36 54.0919 20.1445C54.455 19.926 54.8905 19.8168 55.3983 19.8168C56.0323 19.8168 56.5509 20.0153 56.9541 20.4123C57.3573 20.8062 57.5589 21.4202 57.5589 22.2543V27H56.4694V22.2543C56.4694 21.7311 56.3263 21.3571 56.04 21.1325C55.7538 20.9078 55.4168 20.7955 55.029 20.7955C54.5305 20.7955 54.1442 20.9463 53.8703 21.2479C53.5964 21.5464 53.4594 21.925 53.4594 22.3835V27H52.3515V22.1435C52.3515 21.7403 52.2207 21.4156 51.9591 21.1694C51.6975 20.9201 51.3605 20.7955 50.9481 20.7955C50.6649 20.7955 50.4002 20.8709 50.154 21.0217C49.9109 21.1725 49.7139 21.3817 49.5631 21.6495C49.4154 21.9142 49.3415 22.2204 49.3415 22.5682V27H48.252ZM62.8932 17.1023L59.8463 28.4219H58.8492L61.896 17.1023H62.8932ZM69.5028 19.9091C69.4474 19.4413 69.2228 19.0781 68.8288 18.8196C68.4349 18.5611 67.9517 18.4318 67.3793 18.4318C66.9607 18.4318 66.5945 18.4995 66.2805 18.6349C65.9697 18.7704 65.7266 18.9566 65.5511 19.1935C65.3788 19.4305 65.2926 19.6998 65.2926 20.0014C65.2926 20.2538 65.3526 20.4708 65.4727 20.6523C65.5958 20.8308 65.7527 20.9801 65.9435 21.1001C66.1344 21.2171 66.3344 21.314 66.5437 21.391C66.753 21.4648 66.9453 21.5249 67.1207 21.571L68.081 21.8295C68.3272 21.8942 68.6011 21.9834 68.9027 22.0973C69.2074 22.2112 69.4982 22.3666 69.7752 22.5636C70.0553 22.7575 70.2861 23.0067 70.4677 23.3114C70.6493 23.6161 70.7401 23.9901 70.7401 24.4332C70.7401 24.9441 70.6062 25.4058 70.3384 25.8182C70.0737 26.2306 69.686 26.5584 69.1751 26.8015C68.6673 27.0446 68.0502 27.1662 67.3239 27.1662C66.6468 27.1662 66.0605 27.0569 65.565 26.8384C65.0726 26.6199 64.6848 26.3152 64.4016 25.9244C64.1216 25.5335 63.9631 25.0795 63.9261 24.5625H65.108C65.1387 24.9195 65.2588 25.215 65.468 25.4489C65.6804 25.6797 65.9482 25.852 66.2713 25.9659C66.5975 26.0767 66.9484 26.1321 67.3239 26.1321C67.7609 26.1321 68.1533 26.0613 68.5011 25.9197C68.8488 25.7751 69.1243 25.575 69.3274 25.3196C69.5305 25.0611 69.6321 24.7595 69.6321 24.4148C69.6321 24.1009 69.5444 23.8454 69.369 23.6484C69.1935 23.4515 68.9627 23.2914 68.6765 23.1683C68.3903 23.0452 68.081 22.9375 67.7486 22.8452L66.5852 22.5128C65.8466 22.3004 65.2618 21.9973 64.831 21.6033C64.4001 21.2094 64.1847 20.6939 64.1847 20.0568C64.1847 19.5275 64.3278 19.0658 64.614 18.6719C64.9033 18.2749 65.2911 17.9671 65.7773 17.7486C66.2667 17.527 66.813 17.4162 67.4162 17.4162C68.0256 17.4162 68.5672 17.5254 69.0412 17.744C69.5152 17.9594 69.8906 18.2549 70.1676 18.6303C70.4477 19.0058 70.5954 19.4321 70.6108 19.9091H69.5028ZM72.4747 27V19.9091H73.5642V27H72.4747ZM73.0287 18.7273C72.8163 18.7273 72.6332 18.6549 72.4793 18.5103C72.3285 18.3656 72.2531 18.1918 72.2531 17.9886C72.2531 17.7855 72.3285 17.6116 72.4793 17.467C72.6332 17.3223 72.8163 17.25 73.0287 17.25C73.241 17.25 73.4226 17.3223 73.5734 17.467C73.7273 17.6116 73.8042 17.7855 73.8042 17.9886C73.8042 18.1918 73.7273 18.3656 73.5734 18.5103C73.4226 18.6549 73.241 18.7273 73.0287 18.7273ZM75.5597 27V19.9091H76.6122V20.9801H76.6861C76.8153 20.6293 77.0492 20.3446 77.3878 20.1261C77.7263 19.9076 78.108 19.7983 78.5327 19.7983C78.6127 19.7983 78.7127 19.7998 78.8327 19.8029C78.9528 19.806 79.0436 19.8106 79.1051 19.8168V20.9247C79.0682 20.9155 78.9835 20.9016 78.8512 20.8832C78.7219 20.8616 78.585 20.8509 78.4403 20.8509C78.0956 20.8509 77.7879 20.9232 77.517 21.0678C77.2493 21.2094 77.0369 21.4064 76.88 21.6587C76.7261 21.908 76.6491 22.1927 76.6491 22.5128V27H75.5597ZM81.2091 25.7074L81.1352 26.206C81.0829 26.5568 81.0029 26.9323 80.8952 27.3324C80.7905 27.7325 80.6813 28.1095 80.5674 28.4634C80.4535 28.8174 80.3596 29.099 80.2858 29.3082H79.4548C79.4948 29.1113 79.5471 28.8512 79.6118 28.5281C79.6764 28.2049 79.741 27.8433 79.8057 27.4432C79.8734 27.0462 79.9288 26.6399 79.9719 26.2244L80.0273 25.7074H81.2091ZM13.1449 47V37.5455H16.3395C17.0812 37.5455 17.6875 37.6793 18.1584 37.9471C18.6323 38.2118 18.9832 38.5703 19.2109 39.0227C19.4387 39.4751 19.5526 39.9799 19.5526 40.5369C19.5526 41.094 19.4387 41.6003 19.2109 42.0558C18.9863 42.5112 18.6385 42.8744 18.1676 43.1452C17.6967 43.413 17.0935 43.5469 16.358 43.5469H14.0682V42.5312H16.321C16.8288 42.5312 17.2366 42.4435 17.5444 42.2681C17.8522 42.0927 18.0753 41.8557 18.2138 41.5572C18.3554 41.2556 18.4261 40.9155 18.4261 40.5369C18.4261 40.1584 18.3554 39.8198 18.2138 39.5213C18.0753 39.2228 17.8506 38.9889 17.5398 38.8196C17.2289 38.6473 16.8165 38.5611 16.3026 38.5611H14.2898V47H13.1449ZM22.3386 37.5455V47H21.2491V37.5455H22.3386ZM27.3071 47.1477C26.6238 47.1477 26.0345 46.9969 25.539 46.6953C25.0465 46.3906 24.6665 45.9659 24.3987 45.4212C24.134 44.8733 24.0017 44.2363 24.0017 43.5099C24.0017 42.7836 24.134 42.1435 24.3987 41.5895C24.6665 41.0324 25.0389 40.5985 25.5159 40.2876C25.996 39.9737 26.5561 39.8168 27.1963 39.8168C27.5656 39.8168 27.9303 39.8783 28.2904 40.0014C28.6505 40.1245 28.9782 40.3246 29.2737 40.6016C29.5692 40.8755 29.8046 41.2386 29.98 41.6911C30.1555 42.1435 30.2432 42.7005 30.2432 43.3622V43.8239H24.7773V42.8821H29.1352C29.1352 42.482 29.0552 42.125 28.8952 41.8111C28.7382 41.4972 28.5135 41.2494 28.2211 41.0678C27.9318 40.8862 27.5902 40.7955 27.1963 40.7955C26.7623 40.7955 26.3869 40.9032 26.0699 41.1186C25.7559 41.331 25.5144 41.608 25.3451 41.9496C25.1758 42.2912 25.0912 42.6574 25.0912 43.0483V43.6761C25.0912 44.2116 25.1835 44.6656 25.3682 45.038C25.5559 45.4073 25.816 45.6889 26.1483 45.8828C26.4807 46.0736 26.867 46.169 27.3071 46.169C27.5933 46.169 27.8518 46.129 28.0827 46.049C28.3166 45.9659 28.5181 45.8428 28.6874 45.6797C28.8567 45.5135 28.9875 45.3073 29.0798 45.0611L30.1324 45.3565C30.0216 45.7135 29.8354 46.0275 29.5738 46.2983C29.3122 46.5661 28.989 46.7753 28.6043 46.9261C28.2196 47.0739 27.7872 47.1477 27.3071 47.1477ZM33.9871 47.1662C33.5378 47.1662 33.13 47.0816 32.7638 46.9123C32.3975 46.7399 32.1067 46.4922 31.8912 46.169C31.6758 45.8428 31.5681 45.4489 31.5681 44.9872C31.5681 44.581 31.6481 44.2517 31.8081 43.9993C31.9682 43.7438 32.1821 43.5438 32.4498 43.3991C32.7176 43.2545 33.0131 43.1468 33.3362 43.076C33.6624 43.0021 33.9902 42.9437 34.3195 42.9006C34.7504 42.8452 35.0997 42.8036 35.3675 42.7759C35.6383 42.7451 35.8353 42.6944 35.9584 42.6236C36.0845 42.5528 36.1476 42.4297 36.1476 42.2543V42.2173C36.1476 41.7618 36.023 41.4079 35.7737 41.1555C35.5275 40.9032 35.1536 40.777 34.6519 40.777C34.1318 40.777 33.724 40.8909 33.4285 41.1186C33.1331 41.3464 32.9253 41.5895 32.8053 41.848L31.7712 41.4787C31.9559 41.0478 32.2021 40.7124 32.5099 40.4723C32.8207 40.2292 33.1592 40.0599 33.5255 39.9645C33.8948 39.866 34.258 39.8168 34.615 39.8168C34.8427 39.8168 35.1043 39.8445 35.3998 39.8999C35.6983 39.9522 35.9861 40.0614 36.2631 40.2276C36.5431 40.3938 36.7755 40.6446 36.9601 40.9801C37.1448 41.3156 37.2371 41.7649 37.2371 42.3281V47H36.1476V46.0398H36.0922C36.0184 46.1937 35.8953 46.3583 35.7229 46.5337C35.5506 46.7092 35.3213 46.8584 35.0351 46.9815C34.7488 47.1046 34.3995 47.1662 33.9871 47.1662ZM34.1533 46.1875C34.5842 46.1875 34.9474 46.1029 35.2428 45.9336C35.5413 45.7643 35.766 45.5458 35.9168 45.2781C36.0707 45.0103 36.1476 44.7287 36.1476 44.4332V43.4361C36.1015 43.4915 35.9999 43.5423 35.843 43.5884C35.6891 43.6315 35.5106 43.67 35.3074 43.7038C35.1074 43.7346 34.912 43.7623 34.7211 43.7869C34.5334 43.8085 34.3811 43.8269 34.2641 43.8423C33.981 43.8793 33.7163 43.9393 33.4701 44.0224C33.2269 44.1024 33.03 44.224 32.8792 44.3871C32.7314 44.5471 32.6576 44.7656 32.6576 45.0426C32.6576 45.4212 32.7976 45.7074 33.0777 45.9013C33.3608 46.0921 33.7194 46.1875 34.1533 46.1875ZM44.2484 41.4972L43.2697 41.7741C43.2082 41.611 43.1174 41.4525 42.9973 41.2987C42.8804 41.1417 42.7203 41.0124 42.5172 40.9109C42.3141 40.8093 42.054 40.7585 41.737 40.7585C41.3031 40.7585 40.9415 40.8585 40.6522 41.0586C40.3659 41.2556 40.2228 41.5064 40.2228 41.8111C40.2228 42.0819 40.3213 42.2958 40.5183 42.4528C40.7153 42.6097 41.023 42.7405 41.4416 42.8452L42.4941 43.1037C43.1281 43.2576 43.6006 43.493 43.9114 43.81C44.2222 44.1239 44.3777 44.5286 44.3777 45.0241C44.3777 45.4304 44.2607 45.7936 44.0268 46.1136C43.796 46.4337 43.4728 46.6861 43.0574 46.8707C42.6419 47.0554 42.1587 47.1477 41.6078 47.1477C40.8845 47.1477 40.2859 46.9908 39.812 46.6768C39.338 46.3629 39.0379 45.9044 38.9118 45.3011L39.9458 45.0426C40.0443 45.4242 40.2305 45.7105 40.5044 45.9013C40.7814 46.0921 41.1431 46.1875 41.5893 46.1875C42.0971 46.1875 42.5003 46.0798 42.7988 45.8643C43.1004 45.6458 43.2512 45.3842 43.2512 45.0795C43.2512 44.8333 43.1651 44.6271 42.9927 44.4609C42.8204 44.2917 42.5557 44.1655 42.1987 44.0824L41.0169 43.8054C40.3675 43.6515 39.8904 43.413 39.5858 43.0898C39.2842 42.7636 39.1333 42.3558 39.1333 41.8665C39.1333 41.4664 39.2457 41.1125 39.4703 40.8047C39.6981 40.4969 40.0074 40.2553 40.3983 40.0799C40.7922 39.9045 41.2385 39.8168 41.737 39.8168C42.4387 39.8168 42.9896 39.9706 43.3897 40.2784C43.7929 40.5862 44.0791 40.9924 44.2484 41.4972ZM48.9907 47.1477C48.3074 47.1477 47.7181 46.9969 47.2226 46.6953C46.7301 46.3906 46.3501 45.9659 46.0823 45.4212C45.8176 44.8733 45.6853 44.2363 45.6853 43.5099C45.6853 42.7836 45.8176 42.1435 46.0823 41.5895C46.3501 41.0324 46.7224 40.5985 47.1995 40.2876C47.6796 39.9737 48.2397 39.8168 48.8799 39.8168C49.2492 39.8168 49.6139 39.8783 49.974 40.0014C50.3341 40.1245 50.6618 40.3246 50.9573 40.6016C51.2528 40.8755 51.4882 41.2386 51.6636 41.6911C51.839 42.1435 51.9268 42.7005 51.9268 43.3622V43.8239H46.4608V42.8821H50.8188C50.8188 42.482 50.7388 42.125 50.5787 41.8111C50.4218 41.4972 50.1971 41.2494 49.9047 41.0678C49.6154 40.8862 49.2738 40.7955 48.8799 40.7955C48.4459 40.7955 48.0705 40.9032 47.7535 41.1186C47.4395 41.331 47.1979 41.608 47.0287 41.9496C46.8594 42.2912 46.7748 42.6574 46.7748 43.0483V43.6761C46.7748 44.2116 46.8671 44.6656 47.0518 45.038C47.2395 45.4073 47.4996 45.6889 47.8319 45.8828C48.1643 46.0736 48.5506 46.169 48.9907 46.169C49.2769 46.169 49.5354 46.129 49.7662 46.049C50.0001 45.9659 50.2017 45.8428 50.371 45.6797C50.5403 45.5135 50.6711 45.3073 50.7634 45.0611L51.816 45.3565C51.7052 45.7135 51.519 46.0275 51.2574 46.2983C50.9958 46.5661 50.6726 46.7753 50.2879 46.9261C49.9032 47.0739 49.4708 47.1477 48.9907 47.1477ZM60.398 39.9091V40.8324H56.5756V39.9091H60.398ZM57.7204 47V38.9304C57.7204 38.5241 57.8158 38.1856 58.0067 37.9148C58.1975 37.6439 58.4452 37.4408 58.7499 37.3054C59.0546 37.17 59.3762 37.1023 59.7148 37.1023C59.9825 37.1023 60.201 37.1238 60.3703 37.1669C60.5396 37.21 60.6657 37.25 60.7488 37.2869L60.4349 38.2287C60.3795 38.2102 60.3026 38.1871 60.2041 38.1594C60.1087 38.1317 59.9825 38.1179 59.8256 38.1179C59.4655 38.1179 59.2054 38.2087 59.0454 38.3903C58.8884 38.5719 58.8099 38.8381 58.8099 39.1889V47H57.7204ZM61.9249 47V39.9091H63.0144V47H61.9249ZM62.4789 38.7273C62.2665 38.7273 62.0834 38.6549 61.9295 38.5103C61.7787 38.3656 61.7033 38.1918 61.7033 37.9886C61.7033 37.7855 61.7787 37.6116 61.9295 37.467C62.0834 37.3223 62.2665 37.25 62.4789 37.25C62.6912 37.25 62.8728 37.3223 63.0236 37.467C63.1775 37.6116 63.2544 37.7855 63.2544 37.9886C63.2544 38.1918 63.1775 38.3656 63.0236 38.5103C62.8728 38.6549 62.6912 38.7273 62.4789 38.7273ZM66.0993 42.7344V47H65.0099V39.9091H66.0624V41.017H66.1547C66.3209 40.657 66.5733 40.3677 66.9118 40.1491C67.2504 39.9276 67.6874 39.8168 68.2229 39.8168C68.703 39.8168 69.1231 39.9152 69.4832 40.1122C69.8433 40.3061 70.1234 40.6016 70.3234 40.9986C70.5235 41.3925 70.6235 41.8911 70.6235 42.4943V47H69.534V42.5682C69.534 42.0111 69.3894 41.5772 69.1001 41.2663C68.8108 40.9524 68.4137 40.7955 67.909 40.7955C67.5612 40.7955 67.2504 40.8709 66.9765 41.0217C66.7056 41.1725 66.4917 41.3925 66.3348 41.6818C66.1778 41.9711 66.0993 42.322 66.0993 42.7344ZM75.2919 47.1477C74.701 47.1477 74.1793 46.9985 73.7269 46.6999C73.2745 46.3983 72.9206 45.9736 72.6651 45.4258C72.4097 44.8749 72.282 44.224 72.282 43.473C72.282 42.7282 72.4097 42.0819 72.6651 41.5341C72.9206 40.9863 73.276 40.5631 73.7315 40.2646C74.187 39.966 74.7133 39.8168 75.3104 39.8168C75.772 39.8168 76.1367 39.8937 76.4045 40.0476C76.6753 40.1984 76.8815 40.3707 77.0231 40.5646C77.1677 40.7554 77.2801 40.9124 77.3601 41.0355H77.4524V37.5455H78.5419V47H77.4893V45.9105H77.3601C77.2801 46.0398 77.1662 46.2029 77.0185 46.3999C76.8707 46.5937 76.6599 46.7676 76.386 46.9215C76.1121 47.0723 75.7474 47.1477 75.2919 47.1477ZM75.4396 46.169C75.8767 46.169 76.246 46.0552 76.5476 45.8274C76.8492 45.5966 77.0785 45.2781 77.2354 44.8718C77.3924 44.4625 77.4709 43.9901 77.4709 43.4545C77.4709 42.9252 77.3939 42.462 77.2401 42.065C77.0862 41.6649 76.8584 41.354 76.5568 41.1325C76.2552 40.9078 75.8828 40.7955 75.4396 40.7955C74.978 40.7955 74.5933 40.9139 74.2855 41.1509C73.9808 41.3848 73.7515 41.7034 73.5977 42.1065C73.4469 42.5066 73.3714 42.956 73.3714 43.4545C73.3714 43.9593 73.4484 44.4179 73.6023 44.8303C73.7592 45.2396 73.9901 45.5658 74.2947 45.8089C74.6025 46.049 74.9841 46.169 75.4396 46.169ZM84.3448 47V39.9091H85.3974V41.017H85.4897C85.6374 40.6385 85.8759 40.3446 86.2053 40.1353C86.5346 39.9229 86.93 39.8168 87.3917 39.8168C87.8595 39.8168 88.2488 39.9229 88.5597 40.1353C88.8736 40.3446 89.1183 40.6385 89.2937 41.017H89.3675C89.5491 40.6508 89.8215 40.36 90.1847 40.1445C90.5478 39.926 90.9833 39.8168 91.4911 39.8168C92.1251 39.8168 92.6437 40.0153 93.0469 40.4123C93.45 40.8062 93.6516 41.4202 93.6516 42.2543V47H92.5621V42.2543C92.5621 41.7311 92.419 41.3571 92.1328 41.1325C91.8466 40.9078 91.5096 40.7955 91.1218 40.7955C90.6232 40.7955 90.237 40.9463 89.9631 41.2479C89.6892 41.5464 89.5522 41.925 89.5522 42.3835V47H88.4442V42.1435C88.4442 41.7403 88.3134 41.4156 88.0518 41.1694C87.7902 40.9201 87.4532 40.7955 87.0408 40.7955C86.7577 40.7955 86.493 40.8709 86.2468 41.0217C86.0037 41.1725 85.8067 41.3817 85.6559 41.6495C85.5082 41.9142 85.4343 42.2204 85.4343 42.5682V47H84.3448ZM96.0914 49.6591C95.9068 49.6591 95.7421 49.6437 95.5975 49.6129C95.4528 49.5852 95.3528 49.5575 95.2974 49.5298L95.5744 48.5696C95.8391 48.6373 96.073 48.6619 96.2761 48.6435C96.4792 48.625 96.6593 48.5342 96.8162 48.3711C96.9763 48.2111 97.1225 47.951 97.2548 47.5909L97.4579 47.0369L94.8358 39.9091H96.0176L97.975 45.5597H98.0488L100.006 39.9091H101.188L98.1781 48.0341C98.0427 48.4003 97.8749 48.7035 97.6749 48.9435C97.4748 49.1867 97.2425 49.3667 96.9778 49.4837C96.7162 49.6006 96.4208 49.6591 96.0914 49.6591ZM109.163 47.1477C108.523 47.1477 107.961 46.9954 107.478 46.6907C106.998 46.386 106.622 45.9598 106.352 45.4119C106.084 44.8641 105.95 44.224 105.95 43.4915C105.95 42.7528 106.084 42.1081 106.352 41.5572C106.622 41.0063 106.998 40.5785 107.478 40.2738C107.961 39.9691 108.523 39.8168 109.163 39.8168C109.803 39.8168 110.363 39.9691 110.843 40.2738C111.327 40.5785 111.702 41.0063 111.97 41.5572C112.241 42.1081 112.376 42.7528 112.376 43.4915C112.376 44.224 112.241 44.8641 111.97 45.4119C111.702 45.9598 111.327 46.386 110.843 46.6907C110.363 46.9954 109.803 47.1477 109.163 47.1477ZM109.163 46.169C109.649 46.169 110.049 46.0444 110.363 45.7951C110.677 45.5458 110.91 45.218 111.06 44.8118C111.211 44.4055 111.287 43.9654 111.287 43.4915C111.287 43.0175 111.211 42.5759 111.06 42.1665C110.91 41.7572 110.677 41.4264 110.363 41.174C110.049 40.9216 109.649 40.7955 109.163 40.7955C108.677 40.7955 108.277 40.9216 107.963 41.174C107.649 41.4264 107.416 41.7572 107.266 42.1665C107.115 42.5759 107.039 43.0175 107.039 43.4915C107.039 43.9654 107.115 44.4055 107.266 44.8118C107.416 45.218 107.649 45.5458 107.963 45.7951C108.277 46.0444 108.677 46.169 109.163 46.169ZM115.129 42.7344V47H114.039V39.9091H115.092V41.017H115.184C115.35 40.657 115.603 40.3677 115.941 40.1491C116.28 39.9276 116.717 39.8168 117.252 39.8168C117.732 39.8168 118.152 39.9152 118.513 40.1122C118.873 40.3061 119.153 40.6016 119.353 40.9986C119.553 41.3925 119.653 41.8911 119.653 42.4943V47H118.563V42.5682C118.563 42.0111 118.419 41.5772 118.129 41.2663C117.84 40.9524 117.443 40.7955 116.938 40.7955C116.591 40.7955 116.28 40.8709 116.006 41.0217C115.735 41.1725 115.521 41.3925 115.364 41.6818C115.207 41.9711 115.129 42.322 115.129 42.7344ZM122.733 37.5455V47H121.644V37.5455H122.733ZM124.729 47V39.9091H125.818V47H124.729ZM125.283 38.7273C125.07 38.7273 124.887 38.6549 124.733 38.5103C124.582 38.3656 124.507 38.1918 124.507 37.9886C124.507 37.7855 124.582 37.6116 124.733 37.467C124.887 37.3223 125.07 37.25 125.283 37.25C125.495 37.25 125.677 37.3223 125.827 37.467C125.981 37.6116 126.058 37.7855 126.058 37.9886C126.058 38.1918 125.981 38.3656 125.827 38.5103C125.677 38.6549 125.495 38.7273 125.283 38.7273ZM128.903 42.7344V47H127.814V39.9091H128.866V41.017H128.958C129.125 40.657 129.377 40.3677 129.716 40.1491C130.054 39.9276 130.491 39.8168 131.027 39.8168C131.507 39.8168 131.927 39.9152 132.287 40.1122C132.647 40.3061 132.927 40.6016 133.127 40.9986C133.327 41.3925 133.427 41.8911 133.427 42.4943V47H132.338V42.5682C132.338 42.0111 132.193 41.5772 131.904 41.2663C131.614 40.9524 131.217 40.7955 130.713 40.7955C130.365 40.7955 130.054 40.8709 129.78 41.0217C129.509 41.1725 129.295 41.3925 129.138 41.6818C128.982 41.9711 128.903 42.322 128.903 42.7344ZM138.391 47.1477C137.708 47.1477 137.118 46.9969 136.623 46.6953C136.131 46.3906 135.75 45.9659 135.483 45.4212C135.218 44.8733 135.086 44.2363 135.086 43.5099C135.086 42.7836 135.218 42.1435 135.483 41.5895C135.75 41.0324 136.123 40.5985 136.6 40.2876C137.08 39.9737 137.64 39.8168 138.28 39.8168C138.65 39.8168 139.014 39.8783 139.374 40.0014C139.734 40.1245 140.062 40.3246 140.358 40.6016C140.653 40.8755 140.889 41.2386 141.064 41.6911C141.239 42.1435 141.327 42.7005 141.327 43.3622V43.8239H135.861V42.8821H140.219C140.219 42.482 140.139 42.125 139.979 41.8111C139.822 41.4972 139.598 41.2494 139.305 41.0678C139.016 40.8862 138.674 40.7955 138.28 40.7955C137.846 40.7955 137.471 40.9032 137.154 41.1186C136.84 41.331 136.598 41.608 136.429 41.9496C136.26 42.2912 136.175 42.6574 136.175 43.0483V43.6761C136.175 44.2116 136.267 44.6656 136.452 45.038C136.64 45.4073 136.9 45.6889 137.232 45.8828C137.565 46.0736 137.951 46.169 138.391 46.169C138.677 46.169 138.936 46.129 139.167 46.049C139.401 45.9659 139.602 45.8428 139.771 45.6797C139.941 45.5135 140.071 45.3073 140.164 45.0611L141.216 45.3565C141.106 45.7135 140.919 46.0275 140.658 46.2983C140.396 46.5661 140.073 46.7753 139.688 46.9261C139.304 47.0739 138.871 47.1477 138.391 47.1477ZM146.641 49.6591V39.9091H147.693V41.0355H147.823C147.903 40.9124 148.013 40.7554 148.155 40.5646C148.3 40.3707 148.506 40.1984 148.774 40.0476C149.044 39.8937 149.411 39.8168 149.872 39.8168C150.469 39.8168 150.996 39.966 151.451 40.2646C151.907 40.5631 152.262 40.9863 152.517 41.5341C152.773 42.0819 152.901 42.7282 152.901 43.473C152.901 44.224 152.773 44.8749 152.517 45.4258C152.262 45.9736 151.908 46.3983 151.456 46.6999C151.003 46.9985 150.482 47.1477 149.891 47.1477C149.435 47.1477 149.071 47.0723 148.797 46.9215C148.523 46.7676 148.312 46.5937 148.164 46.3999C148.016 46.2029 147.903 46.0398 147.823 45.9105H147.73V49.6591H146.641ZM147.712 43.4545C147.712 43.9901 147.79 44.4625 147.947 44.8718C148.104 45.2781 148.333 45.5966 148.635 45.8274C148.937 46.0552 149.306 46.169 149.743 46.169C150.198 46.169 150.579 46.049 150.883 45.8089C151.191 45.5658 151.422 45.2396 151.576 44.8303C151.733 44.4179 151.811 43.9593 151.811 43.4545C151.811 42.956 151.734 42.5066 151.58 42.1065C151.43 41.7034 151.2 41.3848 150.892 41.1509C150.588 40.9139 150.205 40.7955 149.743 40.7955C149.3 40.7955 148.927 40.9078 148.626 41.1325C148.324 41.354 148.096 41.6649 147.943 42.065C147.789 42.462 147.712 42.9252 147.712 43.4545ZM157.443 47.1477C156.803 47.1477 156.241 46.9954 155.758 46.6907C155.278 46.386 154.903 45.9598 154.632 45.4119C154.364 44.8641 154.23 44.224 154.23 43.4915C154.23 42.7528 154.364 42.1081 154.632 41.5572C154.903 41.0063 155.278 40.5785 155.758 40.2738C156.241 39.9691 156.803 39.8168 157.443 39.8168C158.083 39.8168 158.644 39.9691 159.124 40.2738C159.607 40.5785 159.982 41.0063 160.25 41.5572C160.521 42.1081 160.656 42.7528 160.656 43.4915C160.656 44.224 160.521 44.8641 160.25 45.4119C159.982 45.9598 159.607 46.386 159.124 46.6907C158.644 46.9954 158.083 47.1477 157.443 47.1477ZM157.443 46.169C157.93 46.169 158.33 46.0444 158.644 45.7951C158.957 45.5458 159.19 45.218 159.341 44.8118C159.491 44.4055 159.567 43.9654 159.567 43.4915C159.567 43.0175 159.491 42.5759 159.341 42.1665C159.19 41.7572 158.957 41.4264 158.644 41.174C158.33 40.9216 157.93 40.7955 157.443 40.7955C156.957 40.7955 156.557 40.9216 156.243 41.174C155.929 41.4264 155.697 41.7572 155.546 42.1665C155.395 42.5759 155.32 43.0175 155.32 43.4915C155.32 43.9654 155.395 44.4055 155.546 44.8118C155.697 45.218 155.929 45.5458 156.243 45.7951C156.557 46.0444 156.957 46.169 157.443 46.169ZM162.319 47V39.9091H163.372V40.9801H163.446C163.575 40.6293 163.809 40.3446 164.148 40.1261C164.486 39.9076 164.868 39.7983 165.292 39.7983C165.372 39.7983 165.472 39.7998 165.593 39.8029C165.713 39.806 165.803 39.8106 165.865 39.8168V40.9247C165.828 40.9155 165.743 40.9016 165.611 40.8832C165.482 40.8616 165.345 40.8509 165.2 40.8509C164.855 40.8509 164.548 40.9232 164.277 41.0678C164.009 41.2094 163.797 41.4064 163.64 41.6587C163.486 41.908 163.409 42.1927 163.409 42.5128V47H162.319ZM170.684 39.9091V40.8324H167.01V39.9091H170.684ZM168.081 38.2102H169.17V44.9688C169.17 45.2765 169.215 45.5073 169.304 45.6612C169.396 45.812 169.513 45.9136 169.655 45.9659C169.8 46.0152 169.952 46.0398 170.112 46.0398C170.232 46.0398 170.331 46.0336 170.407 46.0213C170.484 46.0059 170.546 45.9936 170.592 45.9844L170.814 46.9631C170.74 46.9908 170.637 47.0185 170.504 47.0462C170.372 47.0769 170.204 47.0923 170.001 47.0923C169.693 47.0923 169.392 47.0262 169.096 46.8938C168.804 46.7615 168.561 46.5599 168.367 46.2891C168.176 46.0182 168.081 45.6766 168.081 45.2642V38.2102ZM175.481 39.9091V40.8324H171.659V39.9091H175.481ZM172.803 47V38.9304C172.803 38.5241 172.899 38.1856 173.09 37.9148C173.28 37.6439 173.528 37.4408 173.833 37.3054C174.138 37.17 174.459 37.1023 174.798 37.1023C175.066 37.1023 175.284 37.1238 175.453 37.1669C175.623 37.21 175.749 37.25 175.832 37.2869L175.518 38.2287C175.463 38.2102 175.386 38.1871 175.287 38.1594C175.192 38.1317 175.066 38.1179 174.909 38.1179C174.548 38.1179 174.288 38.2087 174.128 38.3903C173.971 38.5719 173.893 38.8381 173.893 39.1889V47H172.803ZM179.597 47.1477C178.956 47.1477 178.395 46.9954 177.912 46.6907C177.431 46.386 177.056 45.9598 176.785 45.4119C176.517 44.8641 176.384 44.224 176.384 43.4915C176.384 42.7528 176.517 42.1081 176.785 41.5572C177.056 41.0063 177.431 40.5785 177.912 40.2738C178.395 39.9691 178.956 39.8168 179.597 39.8168C180.237 39.8168 180.797 39.9691 181.277 40.2738C181.76 40.5785 182.136 41.0063 182.403 41.5572C182.674 42.1081 182.81 42.7528 182.81 43.4915C182.81 44.224 182.674 44.8641 182.403 45.4119C182.136 45.9598 181.76 46.386 181.277 46.6907C180.797 46.9954 180.237 47.1477 179.597 47.1477ZM179.597 46.169C180.083 46.169 180.483 46.0444 180.797 45.7951C181.111 45.5458 181.343 45.218 181.494 44.8118C181.645 44.4055 181.72 43.9654 181.72 43.4915C181.72 43.0175 181.645 42.5759 181.494 42.1665C181.343 41.7572 181.111 41.4264 180.797 41.174C180.483 40.9216 180.083 40.7955 179.597 40.7955C179.11 40.7955 178.71 40.9216 178.396 41.174C178.082 41.4264 177.85 41.7572 177.699 42.1665C177.548 42.5759 177.473 43.0175 177.473 43.4915C177.473 43.9654 177.548 44.4055 177.699 44.8118C177.85 45.218 178.082 45.5458 178.396 45.7951C178.71 46.0444 179.11 46.169 179.597 46.169ZM185.562 37.5455V47H184.473V37.5455H185.562ZM187.558 47V39.9091H188.647V47H187.558ZM188.112 38.7273C187.899 38.7273 187.716 38.6549 187.562 38.5103C187.412 38.3656 187.336 38.1918 187.336 37.9886C187.336 37.7855 187.412 37.6116 187.562 37.467C187.716 37.3223 187.899 37.25 188.112 37.25C188.324 37.25 188.506 37.3223 188.656 37.467C188.81 37.6116 188.887 37.7855 188.887 37.9886C188.887 38.1918 188.81 38.3656 188.656 38.5103C188.506 38.6549 188.324 38.7273 188.112 38.7273ZM193.523 47.1477C192.883 47.1477 192.322 46.9954 191.838 46.6907C191.358 46.386 190.983 45.9598 190.712 45.4119C190.444 44.8641 190.31 44.224 190.31 43.4915C190.31 42.7528 190.444 42.1081 190.712 41.5572C190.983 41.0063 191.358 40.5785 191.838 40.2738C192.322 39.9691 192.883 39.8168 193.523 39.8168C194.164 39.8168 194.724 39.9691 195.204 40.2738C195.687 40.5785 196.062 41.0063 196.33 41.5572C196.601 42.1081 196.736 42.7528 196.736 43.4915C196.736 44.224 196.601 44.8641 196.33 45.4119C196.062 45.9598 195.687 46.386 195.204 46.6907C194.724 46.9954 194.164 47.1477 193.523 47.1477ZM193.523 46.169C194.01 46.169 194.41 46.0444 194.724 45.7951C195.038 45.5458 195.27 45.218 195.421 44.8118C195.572 44.4055 195.647 43.9654 195.647 43.4915C195.647 43.0175 195.572 42.5759 195.421 42.1665C195.27 41.7572 195.038 41.4264 194.724 41.174C194.41 40.9216 194.01 40.7955 193.523 40.7955C193.037 40.7955 192.637 40.9216 192.323 41.174C192.009 41.4264 191.777 41.7572 191.626 42.1665C191.475 42.5759 191.4 43.0175 191.4 43.4915C191.4 43.9654 191.475 44.4055 191.626 44.8118C191.777 45.218 192.009 45.5458 192.323 45.7951C192.637 46.0444 193.037 46.169 193.523 46.169ZM203.145 37.5455V47H202.056V37.5455H203.145ZM205.141 47V39.9091H206.23V47H205.141ZM205.695 38.7273C205.482 38.7273 205.299 38.6549 205.145 38.5103C204.995 38.3656 204.919 38.1918 204.919 37.9886C204.919 37.7855 204.995 37.6116 205.145 37.467C205.299 37.3223 205.482 37.25 205.695 37.25C205.907 37.25 206.089 37.3223 206.239 37.467C206.393 37.6116 206.47 37.7855 206.47 37.9886C206.47 38.1918 206.393 38.3656 206.239 38.5103C206.089 38.6549 205.907 38.7273 205.695 38.7273ZM209.315 42.7344V47H208.226V39.9091H209.278V41.017H209.371C209.537 40.657 209.789 40.3677 210.128 40.1491C210.466 39.9276 210.903 39.8168 211.439 39.8168C211.919 39.8168 212.339 39.9152 212.699 40.1122C213.059 40.3061 213.339 40.6016 213.539 40.9986C213.739 41.3925 213.839 41.8911 213.839 42.4943V47H212.75V42.5682C212.75 42.0111 212.605 41.5772 212.316 41.2663C212.027 40.9524 211.63 40.7955 211.125 40.7955C210.777 40.7955 210.466 40.8709 210.192 41.0217C209.921 41.1725 209.708 41.3925 209.551 41.6818C209.394 41.9711 209.315 42.322 209.315 42.7344ZM216.846 44.4148L216.827 43.0668H217.049L220.151 39.9091H221.499L218.194 43.2514H218.101L216.846 44.4148ZM215.83 47V37.5455H216.92V47H215.83ZM220.336 47L217.566 43.4915L218.342 42.7344L221.721 47H220.336ZM227.647 42.7344V47H226.558V37.5455H227.647V41.017H227.74C227.906 40.6508 228.155 40.36 228.487 40.1445C228.823 39.926 229.269 39.8168 229.826 39.8168C230.309 39.8168 230.733 39.9137 231.096 40.1076C231.459 40.2984 231.74 40.5923 231.941 40.9893C232.144 41.3833 232.245 41.8849 232.245 42.4943V47H231.156V42.5682C231.156 42.005 231.01 41.5695 230.717 41.2617C230.428 40.9509 230.026 40.7955 229.512 40.7955C229.155 40.7955 228.835 40.8709 228.552 41.0217C228.272 41.1725 228.05 41.3925 227.887 41.6818C227.727 41.9711 227.647 42.322 227.647 42.7344ZM237.211 47.1477C236.528 47.1477 235.939 46.9969 235.443 46.6953C234.951 46.3906 234.571 45.9659 234.303 45.4212C234.038 44.8733 233.906 44.2363 233.906 43.5099C233.906 42.7836 234.038 42.1435 234.303 41.5895C234.571 41.0324 234.943 40.5985 235.42 40.2876C235.9 39.9737 236.46 39.8168 237.101 39.8168C237.47 39.8168 237.835 39.8783 238.195 40.0014C238.555 40.1245 238.883 40.3246 239.178 40.6016C239.473 40.8755 239.709 41.2386 239.884 41.6911C240.06 42.1435 240.147 42.7005 240.147 43.3622V43.8239H234.682V42.8821H239.04C239.04 42.482 238.959 42.125 238.799 41.8111C238.642 41.4972 238.418 41.2494 238.125 41.0678C237.836 40.8862 237.495 40.7955 237.101 40.7955C236.667 40.7955 236.291 40.9032 235.974 41.1186C235.66 41.331 235.419 41.608 235.249 41.9496C235.08 42.2912 234.995 42.6574 234.995 43.0483V43.6761C234.995 44.2116 235.088 44.6656 235.272 45.038C235.46 45.4073 235.72 45.6889 236.053 45.8828C236.385 46.0736 236.771 46.169 237.211 46.169C237.498 46.169 237.756 46.129 237.987 46.049C238.221 45.9659 238.422 45.8428 238.592 45.6797C238.761 45.5135 238.892 45.3073 238.984 45.0611L240.037 45.3565C239.926 45.7135 239.74 46.0275 239.478 46.2983C239.216 46.5661 238.893 46.7753 238.509 46.9261C238.124 47.0739 237.691 47.1477 237.211 47.1477ZM241.805 47V39.9091H242.857V40.9801H242.931C243.06 40.6293 243.294 40.3446 243.633 40.1261C243.971 39.9076 244.353 39.7983 244.778 39.7983C244.858 39.7983 244.958 39.7998 245.078 39.8029C245.198 39.806 245.289 39.8106 245.35 39.8168V40.9247C245.313 40.9155 245.229 40.9016 245.096 40.8832C244.967 40.8616 244.83 40.8509 244.685 40.8509C244.341 40.8509 244.033 40.9232 243.762 41.0678C243.494 41.2094 243.282 41.4064 243.125 41.6587C242.971 41.908 242.894 42.1927 242.894 42.5128V47H241.805ZM249.399 47.1477C248.716 47.1477 248.126 46.9969 247.631 46.6953C247.138 46.3906 246.758 45.9659 246.491 45.4212C246.226 44.8733 246.093 44.2363 246.093 43.5099C246.093 42.7836 246.226 42.1435 246.491 41.5895C246.758 41.0324 247.131 40.5985 247.608 40.2876C248.088 39.9737 248.648 39.8168 249.288 39.8168C249.657 39.8168 250.022 39.8783 250.382 40.0014C250.742 40.1245 251.07 40.3246 251.366 40.6016C251.661 40.8755 251.896 41.2386 252.072 41.6911C252.247 42.1435 252.335 42.7005 252.335 43.3622V43.8239H246.869V42.8821H251.227C251.227 42.482 251.147 42.125 250.987 41.8111C250.83 41.4972 250.605 41.2494 250.313 41.0678C250.024 40.8862 249.682 40.7955 249.288 40.7955C248.854 40.7955 248.479 40.9032 248.162 41.1186C247.848 41.331 247.606 41.608 247.437 41.9496C247.268 42.2912 247.183 42.6574 247.183 43.0483V43.6761C247.183 44.2116 247.275 44.6656 247.46 45.038C247.648 45.4073 247.908 45.6889 248.24 45.8828C248.573 46.0736 248.959 46.169 249.399 46.169C249.685 46.169 249.944 46.129 250.174 46.049C250.408 45.9659 250.61 45.8428 250.779 45.6797C250.948 45.5135 251.079 45.3073 251.172 45.0611L252.224 45.3565C252.113 45.7135 251.927 46.0275 251.666 46.2983C251.404 46.5661 251.081 46.7753 250.696 46.9261C250.311 47.0739 249.879 47.1477 249.399 47.1477Z" fill="#333333"/>
<path d="M14.3082 62.7898V67H12.9279V57.5455H14.2898V61.0632H14.3775C14.5437 60.6816 14.7976 60.3784 15.1392 60.1538C15.4808 59.9291 15.9271 59.8168 16.478 59.8168C16.9643 59.8168 17.389 59.9168 17.7521 60.1168C18.1184 60.3169 18.4015 60.6154 18.6016 61.0124C18.8047 61.4064 18.9062 61.8988 18.9062 62.4897V67H17.5259V62.6559C17.5259 62.1358 17.392 61.7326 17.1243 61.4464C16.8565 61.1571 16.4841 61.0124 16.0071 61.0124C15.6809 61.0124 15.3885 61.0817 15.13 61.2202C14.8745 61.3587 14.6729 61.5618 14.5252 61.8295C14.3806 62.0942 14.3082 62.4143 14.3082 62.7898ZM24.0582 59.9091V61.017H20.185V59.9091H24.0582ZM21.2237 58.2102H22.604V64.918C22.604 65.1857 22.6441 65.3873 22.7241 65.5227C22.8041 65.6551 22.9072 65.7459 23.0334 65.7951C23.1626 65.8413 23.3027 65.8643 23.4535 65.8643C23.5643 65.8643 23.6612 65.8567 23.7443 65.8413C23.8274 65.8259 23.892 65.8136 23.9382 65.8043L24.1875 66.9446C24.1075 66.9754 23.9936 67.0062 23.8459 67.0369C23.6982 67.0708 23.5135 67.0893 23.2919 67.0923C22.9287 67.0985 22.5902 67.0339 22.2763 66.8984C21.9624 66.763 21.7085 66.5537 21.5146 66.2706C21.3207 65.9875 21.2237 65.632 21.2237 65.2042V58.2102ZM28.8952 59.9091V61.017H25.0219V59.9091H28.8952ZM26.0606 58.2102H27.441V64.918C27.441 65.1857 27.481 65.3873 27.561 65.5227C27.641 65.6551 27.7441 65.7459 27.8703 65.7951C27.9996 65.8413 28.1396 65.8643 28.2904 65.8643C28.4012 65.8643 28.4981 65.8567 28.5812 65.8413C28.6643 65.8259 28.729 65.8136 28.7751 65.8043L29.0244 66.9446C28.9444 66.9754 28.8305 67.0062 28.6828 67.0369C28.5351 67.0708 28.3504 67.0893 28.1288 67.0923C27.7657 67.0985 27.4271 67.0339 27.1132 66.8984C26.7993 66.763 26.5454 66.5537 26.3515 66.2706C26.1576 65.9875 26.0606 65.632 26.0606 65.2042V58.2102ZM30.4221 69.6591V59.9091H31.7701V61.0586H31.8855C31.9655 60.9109 32.0809 60.7401 32.2317 60.5462C32.3825 60.3523 32.5918 60.183 32.8596 60.0384C33.1273 59.8906 33.4812 59.8168 33.9213 59.8168C34.4938 59.8168 35.0047 59.9614 35.454 60.2507C35.9034 60.54 36.2557 60.957 36.5112 61.5018C36.7697 62.0465 36.899 62.7021 36.899 63.4684C36.899 64.2347 36.7712 64.8918 36.5158 65.4396C36.2604 65.9844 35.9095 66.4045 35.4632 66.6999C35.017 66.9923 34.5076 67.1385 33.9352 67.1385C33.5043 67.1385 33.1519 67.0662 32.878 66.9215C32.6072 66.7769 32.3948 66.6076 32.2409 66.4137C32.0871 66.2198 31.9686 66.0475 31.8855 65.8967H31.8024V69.6591H30.4221ZM31.7747 63.4545C31.7747 63.9531 31.847 64.3902 31.9917 64.7656C32.1363 65.1411 32.3456 65.435 32.6195 65.6474C32.8934 65.8567 33.2289 65.9613 33.6259 65.9613C34.0383 65.9613 34.383 65.852 34.66 65.6335C34.937 65.4119 35.1462 65.1119 35.2878 64.7333C35.4325 64.3548 35.5048 63.9285 35.5048 63.4545C35.5048 62.9867 35.434 62.5666 35.2924 62.1942C35.1539 61.8219 34.9447 61.5279 34.6646 61.3125C34.3876 61.0971 34.0414 60.9893 33.6259 60.9893C33.2258 60.9893 32.8873 61.0924 32.6103 61.2987C32.3364 61.5049 32.1286 61.7926 31.987 62.1619C31.8455 62.5312 31.7747 62.9621 31.7747 63.4545ZM43.7591 61.6403L42.508 61.8619C42.4557 61.7018 42.3726 61.5495 42.2587 61.4048C42.1479 61.2602 41.9971 61.1417 41.8063 61.0494C41.6155 60.957 41.377 60.9109 41.0907 60.9109C40.6999 60.9109 40.3736 60.9986 40.112 61.174C39.8504 61.3464 39.7196 61.5695 39.7196 61.8434C39.7196 62.0804 39.8074 62.2712 39.9828 62.4158C40.1582 62.5605 40.4413 62.679 40.8322 62.7713L41.9586 63.0298C42.6111 63.1806 43.0974 63.413 43.4174 63.7269C43.7375 64.0408 43.8975 64.4486 43.8975 64.9503C43.8975 65.375 43.7744 65.7536 43.5282 66.0859C43.2851 66.4152 42.945 66.6738 42.508 66.8615C42.074 67.0492 41.5708 67.1431 40.9984 67.1431C40.2044 67.1431 39.5565 66.9738 39.0549 66.6353C38.5532 66.2937 38.2454 65.8089 38.1316 65.1811L39.4657 64.978C39.5488 65.3258 39.7196 65.5889 39.9782 65.7674C40.2367 65.9428 40.5737 66.0305 40.9892 66.0305C41.4416 66.0305 41.8032 65.9367 42.074 65.7489C42.3449 65.5581 42.4803 65.3258 42.4803 65.0518C42.4803 64.8303 42.3972 64.6441 42.231 64.4933C42.0679 64.3424 41.8171 64.2286 41.4785 64.1516L40.2782 63.8885C39.6165 63.7377 39.1272 63.4976 38.8102 63.1683C38.4963 62.839 38.3393 62.422 38.3393 61.9173C38.3393 61.4987 38.4563 61.1325 38.6902 60.8185C38.9241 60.5046 39.2472 60.2599 39.6596 60.0845C40.072 59.906 40.5444 59.8168 41.0769 59.8168C41.8432 59.8168 42.4464 59.983 42.8865 60.3153C43.3266 60.6446 43.6175 61.0863 43.7591 61.6403ZM46.3247 67.0877C46.0723 67.0877 45.8553 66.9985 45.6737 66.82C45.4922 66.6384 45.4014 66.4199 45.4014 66.1644C45.4014 65.9121 45.4922 65.6966 45.6737 65.5181C45.8553 65.3365 46.0723 65.2457 46.3247 65.2457C46.577 65.2457 46.794 65.3365 46.9756 65.5181C47.1572 65.6966 47.248 65.9121 47.248 66.1644C47.248 66.3337 47.2049 66.4891 47.1187 66.6307C47.0356 66.7692 46.9248 66.88 46.7863 66.9631C46.6478 67.0462 46.4939 67.0877 46.3247 67.0877ZM46.3247 61.9265C46.0723 61.9265 45.8553 61.8357 45.6737 61.6541C45.4922 61.4725 45.4014 61.2556 45.4014 61.0032C45.4014 60.7508 45.4922 60.5354 45.6737 60.3569C45.8553 60.1753 46.0723 60.0845 46.3247 60.0845C46.577 60.0845 46.794 60.1753 46.9756 60.3569C47.1572 60.5354 47.248 60.7508 47.248 61.0032C47.248 61.1725 47.2049 61.3279 47.1187 61.4695C47.0356 61.608 46.9248 61.7187 46.7863 61.8018C46.6478 61.8849 46.4939 61.9265 46.3247 61.9265ZM52.6977 57.1023L49.6508 68.4219H48.4182L51.4651 57.1023H52.6977ZM57.4711 57.1023L54.4243 68.4219H53.1917L56.2385 57.1023H57.4711ZM58.7545 67V57.5455H60.1349V61.0586H60.218C60.298 60.9109 60.4134 60.7401 60.5642 60.5462C60.715 60.3523 60.9243 60.183 61.192 60.0384C61.4598 59.8906 61.8137 59.8168 62.2538 59.8168C62.8263 59.8168 63.3372 59.9614 63.7865 60.2507C64.2358 60.54 64.5882 60.957 64.8437 61.5018C65.1022 62.0465 65.2314 62.7021 65.2314 63.4684C65.2314 64.2347 65.1037 64.8918 64.8483 65.4396C64.5928 65.9844 64.242 66.4045 63.7957 66.6999C63.3495 66.9923 62.8401 67.1385 62.2677 67.1385C61.8368 67.1385 61.4844 67.0662 61.2105 66.9215C60.9397 66.7769 60.7273 66.6076 60.5734 66.4137C60.4195 66.2198 60.301 66.0475 60.218 65.8967H60.1025V67H58.7545ZM60.1072 63.4545C60.1072 63.9531 60.1795 64.3902 60.3241 64.7656C60.4688 65.1411 60.6781 65.435 60.952 65.6474C61.2259 65.8567 61.5613 65.9613 61.9584 65.9613C62.3708 65.9613 62.7155 65.852 62.9925 65.6335C63.2694 65.4119 63.4787 65.1119 63.6203 64.7333C63.7649 64.3548 63.8373 63.9285 63.8373 63.4545C63.8373 62.9867 63.7665 62.5666 63.6249 62.1942C63.4864 61.8219 63.2771 61.5279 62.9971 61.3125C62.7201 61.0971 62.3738 60.9893 61.9584 60.9893C61.5583 60.9893 61.2197 61.0924 60.9427 61.2987C60.6688 61.5049 60.4611 61.7926 60.3195 62.1619C60.1779 62.5312 60.1072 62.9621 60.1072 63.4545ZM69.8375 67.1431C69.1389 67.1431 68.5372 66.9938 68.0325 66.6953C67.5308 66.3937 67.1431 65.9705 66.8691 65.4258C66.5983 64.878 66.4629 64.2363 66.4629 63.5007C66.4629 62.7744 66.5983 62.1342 66.8691 61.5803C67.1431 61.0263 67.5247 60.5939 68.014 60.283C68.5065 59.9722 69.082 59.8168 69.7406 59.8168C70.1407 59.8168 70.5285 59.8829 70.9039 60.0153C71.2794 60.1476 71.6164 60.3554 71.915 60.6385C72.2135 60.9216 72.4489 61.2894 72.6213 61.7418C72.7936 62.1912 72.8798 62.7375 72.8798 63.3807V63.87H67.2431V62.8359H71.5272C71.5272 62.4728 71.4533 62.1512 71.3056 61.8711C71.1578 61.5879 70.9501 61.3648 70.6824 61.2017C70.4177 61.0386 70.1068 60.957 69.7498 60.957C69.362 60.957 69.0235 61.0524 68.7342 61.2433C68.448 61.431 68.2264 61.6772 68.0694 61.9819C67.9155 62.2835 67.8386 62.6113 67.8386 62.9652V63.7731C67.8386 64.247 67.9217 64.6502 68.0879 64.9826C68.2572 65.315 68.4926 65.5689 68.7942 65.7443C69.0958 65.9167 69.4482 66.0028 69.8514 66.0028C70.113 66.0028 70.3515 65.9659 70.5669 65.892C70.7824 65.8151 70.9686 65.7012 71.1255 65.5504C71.2825 65.3996 71.4025 65.2134 71.4856 64.9918L72.7921 65.2273C72.6874 65.612 72.4997 65.949 72.2289 66.2383C71.9611 66.5245 71.6241 66.7476 71.2179 66.9077C70.8147 67.0646 70.3546 67.1431 69.8375 67.1431ZM75.7916 62.7898V67H74.4113V57.5455H75.7732V61.0632H75.8609C76.0271 60.6816 76.281 60.3784 76.6226 60.1538C76.9642 59.9291 77.4105 59.8168 77.9614 59.8168C78.4477 59.8168 78.8724 59.9168 79.2355 60.1168C79.6018 60.3169 79.8849 60.6154 80.085 61.0124C80.2881 61.4064 80.3896 61.8988 80.3896 62.4897V67H79.0093V62.6559C79.0093 62.1358 78.8754 61.7326 78.6077 61.4464C78.3399 61.1571 77.9675 61.0124 77.4905 61.0124C77.1643 61.0124 76.8719 61.0817 76.6134 61.2202C76.3579 61.3587 76.1563 61.5618 76.0086 61.8295C75.864 62.0942 75.7916 62.4143 75.7916 62.7898ZM84.2952 67.157C83.8459 67.157 83.4396 67.0739 83.0764 66.9077C82.7133 66.7384 82.4255 66.4937 82.2132 66.1737C82.0039 65.8536 81.8992 65.4612 81.8992 64.9964C81.8992 64.5964 81.9762 64.267 82.1301 64.0085C82.2839 63.75 82.4917 63.5453 82.7533 63.3945C83.0149 63.2437 83.3073 63.1299 83.6304 63.0529C83.9536 62.976 84.2829 62.9175 84.6183 62.8775C85.0431 62.8282 85.3878 62.7882 85.6524 62.7575C85.9171 62.7236 86.1095 62.6697 86.2295 62.5959C86.3495 62.522 86.4095 62.402 86.4095 62.2358V62.2035C86.4095 61.8003 86.2957 61.4879 86.0679 61.2663C85.8432 61.0447 85.5078 60.9339 85.0615 60.9339C84.5968 60.9339 84.2306 61.037 83.9628 61.2433C83.6981 61.4464 83.515 61.6726 83.4134 61.9219L82.1162 61.6264C82.2701 61.1955 82.4948 60.8478 82.7902 60.5831C83.0887 60.3153 83.4319 60.1214 83.8197 60.0014C84.2075 59.8783 84.6153 59.8168 85.0431 59.8168C85.3262 59.8168 85.6263 59.8506 85.9433 59.9183C86.2633 59.983 86.5619 60.103 86.8389 60.2784C87.1189 60.4538 87.3482 60.7047 87.5267 61.0309C87.7052 61.354 87.7945 61.7741 87.7945 62.2912V67H86.4465V66.0305H86.3911C86.3018 66.209 86.1679 66.3845 85.9894 66.5568C85.8109 66.7292 85.5816 66.8723 85.3016 66.9862C85.0215 67.1 84.686 67.157 84.2952 67.157ZM84.5953 66.049C84.9769 66.049 85.3031 65.9736 85.574 65.8228C85.8479 65.672 86.0556 65.475 86.1972 65.2319C86.3418 64.9857 86.4142 64.7225 86.4142 64.4425V63.5284C86.3649 63.5777 86.2695 63.6238 86.1279 63.6669C85.9894 63.7069 85.8309 63.7423 85.6524 63.7731C85.4739 63.8008 85.3 63.8269 85.1308 63.8516C84.9615 63.8731 84.8199 63.8916 84.7061 63.907C84.4383 63.9408 84.1936 63.9978 83.972 64.0778C83.7535 64.1578 83.5781 64.2732 83.4458 64.424C83.3165 64.5717 83.2519 64.7687 83.2519 65.0149C83.2519 65.3565 83.378 65.6151 83.6304 65.7905C83.8828 65.9628 84.2044 66.049 84.5953 66.049ZM91.0133 62.7898V67H89.633V59.9091H90.9579V61.0632H91.0456C91.2087 60.6877 91.4642 60.3861 91.812 60.1584C92.1628 59.9306 92.6045 59.8168 93.1369 59.8168C93.6201 59.8168 94.0433 59.9183 94.4064 60.1214C94.7696 60.3215 95.0512 60.62 95.2512 61.017C95.4513 61.4141 95.5513 61.9049 95.5513 62.4897V67H94.171V62.6559C94.171 62.1419 94.0371 61.7403 93.7694 61.451C93.5016 61.1586 93.1338 61.0124 92.666 61.0124C92.3459 61.0124 92.0613 61.0817 91.812 61.2202C91.5658 61.3587 91.3703 61.5618 91.2257 61.8295C91.0841 62.0942 91.0133 62.4143 91.0133 62.7898ZM100.389 67.1431C99.7031 67.1431 99.1122 66.9877 98.6167 66.6768C98.1242 66.3629 97.7457 65.9305 97.481 65.3796C97.2163 64.8287 97.084 64.1978 97.084 63.4869C97.084 62.7667 97.2194 62.1312 97.4902 61.5803C97.7611 61.0263 98.1427 60.5939 98.6351 60.283C99.1275 59.9722 99.7077 59.8168 100.376 59.8168C100.914 59.8168 101.394 59.9168 101.816 60.1168C102.238 60.3138 102.578 60.5908 102.836 60.9478C103.098 61.3048 103.253 61.7218 103.302 62.1989H101.959C101.885 61.8665 101.716 61.5803 101.451 61.3402C101.19 61.1001 100.839 60.9801 100.399 60.9801C100.014 60.9801 99.6769 61.0817 99.3876 61.2848C99.1014 61.4848 98.8783 61.7711 98.7182 62.1435C98.5582 62.5128 98.4782 62.9498 98.4782 63.4545C98.4782 63.9716 98.5566 64.4179 98.7136 64.7933C98.8706 65.1688 99.0922 65.4596 99.3784 65.6658C99.6677 65.872 100.008 65.9751 100.399 65.9751C100.66 65.9751 100.897 65.9274 101.11 65.832C101.325 65.7335 101.505 65.5935 101.65 65.4119C101.797 65.2304 101.901 65.0118 101.959 64.7564H103.302C103.253 65.215 103.104 65.6243 102.855 65.9844C102.605 66.3445 102.271 66.6276 101.853 66.8338C101.437 67.04 100.95 67.1431 100.389 67.1431ZM107.835 67.1431C107.136 67.1431 106.534 66.9938 106.03 66.6953C105.528 66.3937 105.14 65.9705 104.866 65.4258C104.595 64.878 104.46 64.2363 104.46 63.5007C104.46 62.7744 104.595 62.1342 104.866 61.5803C105.14 61.0263 105.522 60.5939 106.011 60.283C106.504 59.9722 107.079 59.8168 107.738 59.8168C108.138 59.8168 108.526 59.8829 108.901 60.0153C109.276 60.1476 109.613 60.3554 109.912 60.6385C110.211 60.9216 110.446 61.2894 110.618 61.7418C110.791 62.1912 110.877 62.7375 110.877 63.3807V63.87H105.24V62.8359H109.524C109.524 62.4728 109.45 62.1512 109.303 61.8711C109.155 61.5879 108.947 61.3648 108.679 61.2017C108.415 61.0386 108.104 60.957 107.747 60.957C107.359 60.957 107.021 61.0524 106.731 61.2433C106.445 61.431 106.223 61.6772 106.066 61.9819C105.913 62.2835 105.836 62.6113 105.836 62.9652V63.7731C105.836 64.247 105.919 64.6502 106.085 64.9826C106.254 65.315 106.49 65.5689 106.791 65.7443C107.093 65.9167 107.445 66.0028 107.848 66.0028C108.11 66.0028 108.349 65.9659 108.564 65.892C108.779 65.8151 108.966 65.7012 109.123 65.5504C109.28 65.3996 109.4 65.2134 109.483 64.9918L110.789 65.2273C110.685 65.612 110.497 65.949 110.226 66.2383C109.958 66.5245 109.621 66.7476 109.215 66.9077C108.812 67.0646 108.352 67.1431 107.835 67.1431ZM113.318 67.0877C113.065 67.0877 112.848 66.9985 112.667 66.82C112.485 66.6384 112.395 66.4199 112.395 66.1644C112.395 65.9121 112.485 65.6966 112.667 65.5181C112.848 65.3365 113.065 65.2457 113.318 65.2457C113.57 65.2457 113.787 65.3365 113.969 65.5181C114.15 65.6966 114.241 65.9121 114.241 66.1644C114.241 66.3337 114.198 66.4891 114.112 66.6307C114.029 66.7692 113.918 66.88 113.779 66.9631C113.641 67.0462 113.487 67.0877 113.318 67.0877ZM117.47 62.7898V67H116.09V59.9091H117.415V61.0632H117.503C117.666 60.6877 117.921 60.3861 118.269 60.1584C118.62 59.9306 119.061 59.8168 119.594 59.8168C120.077 59.8168 120.5 59.9183 120.863 60.1214C121.227 60.3215 121.508 60.62 121.708 61.017C121.908 61.4141 122.008 61.9049 122.008 62.4897V67H120.628V62.6559C120.628 62.1419 120.494 61.7403 120.226 61.451C119.959 61.1586 119.591 61.0124 119.123 61.0124C118.803 61.0124 118.518 61.0817 118.269 61.2202C118.023 61.3587 117.827 61.5618 117.683 61.8295C117.541 62.0942 117.47 62.4143 117.47 62.7898ZM126.916 67.1431C126.217 67.1431 125.615 66.9938 125.111 66.6953C124.609 66.3937 124.221 65.9705 123.947 65.4258C123.676 64.878 123.541 64.2363 123.541 63.5007C123.541 62.7744 123.676 62.1342 123.947 61.5803C124.221 61.0263 124.603 60.5939 125.092 60.283C125.585 59.9722 126.16 59.8168 126.819 59.8168C127.219 59.8168 127.607 59.8829 127.982 60.0153C128.358 60.1476 128.695 60.3554 128.993 60.6385C129.292 60.9216 129.527 61.2894 129.699 61.7418C129.872 62.1912 129.958 62.7375 129.958 63.3807V63.87H124.321V62.8359H128.605C128.605 62.4728 128.531 62.1512 128.384 61.8711C128.236 61.5879 128.028 61.3648 127.76 61.2017C127.496 61.0386 127.185 60.957 126.828 60.957C126.44 60.957 126.102 61.0524 125.812 61.2433C125.526 61.431 125.305 61.6772 125.148 61.9819C124.994 62.2835 124.917 62.6113 124.917 62.9652V63.7731C124.917 64.247 125 64.6502 125.166 64.9826C125.335 65.315 125.571 65.5689 125.872 65.7443C126.174 65.9167 126.526 66.0028 126.93 66.0028C127.191 66.0028 127.43 65.9659 127.645 65.892C127.86 65.8151 128.047 65.7012 128.204 65.5504C128.361 65.3996 128.481 65.2134 128.564 64.9918L129.87 65.2273C129.766 65.612 129.578 65.949 129.307 66.2383C129.039 66.5245 128.702 66.7476 128.296 66.9077C127.893 67.0646 127.433 67.1431 126.916 67.1431ZM134.799 59.9091V61.017H130.926V59.9091H134.799ZM131.965 58.2102H133.345V64.918C133.345 65.1857 133.385 65.3873 133.465 65.5227C133.545 65.6551 133.648 65.7459 133.775 65.7951C133.904 65.8413 134.044 65.8643 134.195 65.8643C134.305 65.8643 134.402 65.8567 134.486 65.8413C134.569 65.8259 134.633 65.8136 134.679 65.8043L134.929 66.9446C134.849 66.9754 134.735 67.0062 134.587 67.0369C134.439 67.0708 134.255 67.0893 134.033 67.0923C133.67 67.0985 133.331 67.0339 133.017 66.8984C132.704 66.763 132.45 66.5537 132.256 66.2706C132.062 65.9875 131.965 65.632 131.965 65.2042V58.2102ZM139.927 57.1023L136.88 68.4219H135.648L138.695 57.1023H139.927ZM146.413 61.6403L145.162 61.8619C145.11 61.7018 145.027 61.5495 144.913 61.4048C144.802 61.2602 144.651 61.1417 144.461 61.0494C144.27 60.957 144.031 60.9109 143.745 60.9109C143.354 60.9109 143.028 60.9986 142.766 61.174C142.505 61.3464 142.374 61.5695 142.374 61.8434C142.374 62.0804 142.462 62.2712 142.637 62.4158C142.813 62.5605 143.096 62.679 143.487 62.7713L144.613 63.0298C145.265 63.1806 145.752 63.413 146.072 63.7269C146.392 64.0408 146.552 64.4486 146.552 64.9503C146.552 65.375 146.429 65.7536 146.183 66.0859C145.939 66.4152 145.599 66.6738 145.162 66.8615C144.728 67.0492 144.225 67.1431 143.653 67.1431C142.859 67.1431 142.211 66.9738 141.709 66.6353C141.208 66.2937 140.9 65.8089 140.786 65.1811L142.12 64.978C142.203 65.3258 142.374 65.5889 142.632 65.7674C142.891 65.9428 143.228 66.0305 143.643 66.0305C144.096 66.0305 144.458 65.9367 144.728 65.7489C144.999 65.5581 145.135 65.3258 145.135 65.0518C145.135 64.8303 145.051 64.6441 144.885 64.4933C144.722 64.3424 144.471 64.2286 144.133 64.1516L142.933 63.8885C142.271 63.7377 141.781 63.4976 141.464 63.1683C141.151 62.839 140.994 62.422 140.994 61.9173C140.994 61.4987 141.111 61.1325 141.344 60.8185C141.578 60.5046 141.902 60.2599 142.314 60.0845C142.726 59.906 143.199 59.8168 143.731 59.8168C144.498 59.8168 145.101 59.983 145.541 60.3153C145.981 60.6446 146.272 61.0863 146.413 61.6403ZM150.133 67.157C149.684 67.157 149.277 67.0739 148.914 66.9077C148.551 66.7384 148.263 66.4937 148.051 66.1737C147.842 65.8536 147.737 65.4612 147.737 64.9964C147.737 64.5964 147.814 64.267 147.968 64.0085C148.122 63.75 148.33 63.5453 148.591 63.3945C148.853 63.2437 149.145 63.1299 149.468 63.0529C149.791 62.976 150.121 62.9175 150.456 62.8775C150.881 62.8282 151.226 62.7882 151.49 62.7575C151.755 62.7236 151.947 62.6697 152.067 62.5959C152.187 62.522 152.247 62.402 152.247 62.2358V62.2035C152.247 61.8003 152.134 61.4879 151.906 61.2663C151.681 61.0447 151.346 60.9339 150.899 60.9339C150.435 60.9339 150.068 61.037 149.801 61.2433C149.536 61.4464 149.353 61.6726 149.251 61.9219L147.954 61.6264C148.108 61.1955 148.333 60.8478 148.628 60.5831C148.927 60.3153 149.27 60.1214 149.658 60.0014C150.045 59.8783 150.453 59.8168 150.881 59.8168C151.164 59.8168 151.464 59.8506 151.781 59.9183C152.101 59.983 152.4 60.103 152.677 60.2784C152.957 60.4538 153.186 60.7047 153.365 61.0309C153.543 61.354 153.632 61.7741 153.632 62.2912V67H152.284V66.0305H152.229C152.14 66.209 152.006 66.3845 151.827 66.5568C151.649 66.7292 151.42 66.8723 151.139 66.9862C150.859 67.1 150.524 67.157 150.133 67.157ZM150.433 66.049C150.815 66.049 151.141 65.9736 151.412 65.8228C151.686 65.672 151.893 65.475 152.035 65.2319C152.18 64.9857 152.252 64.7225 152.252 64.4425V63.5284C152.203 63.5777 152.107 63.6238 151.966 63.6669C151.827 63.7069 151.669 63.7423 151.49 63.7731C151.312 63.8008 151.138 63.8269 150.969 63.8516C150.799 63.8731 150.658 63.8916 150.544 63.907C150.276 63.9408 150.032 63.9978 149.81 64.0778C149.591 64.1578 149.416 64.2732 149.284 64.424C149.154 64.5717 149.09 64.7687 149.09 65.0149C149.09 65.3565 149.216 65.6151 149.468 65.7905C149.721 65.9628 150.042 66.049 150.433 66.049ZM159.963 64.0593V59.9091H161.348V67H159.99V65.772H159.917C159.753 66.1506 159.492 66.466 159.132 66.7184C158.775 66.9677 158.33 67.0923 157.798 67.0923C157.342 67.0923 156.939 66.9923 156.588 66.7923C156.24 66.5891 155.966 66.2891 155.766 65.892C155.569 65.495 155.471 65.0041 155.471 64.4194V59.9091H156.851V64.2532C156.851 64.7364 156.985 65.1211 157.253 65.4073C157.521 65.6935 157.868 65.8366 158.296 65.8366C158.555 65.8366 158.812 65.772 159.067 65.6428C159.326 65.5135 159.54 65.3181 159.709 65.0565C159.881 64.7949 159.966 64.4625 159.963 64.0593ZM163.202 67V59.9091H164.536V61.0355H164.61C164.74 60.6539 164.967 60.3538 165.294 60.1353C165.623 59.9137 165.995 59.8029 166.411 59.8029C166.497 59.8029 166.599 59.806 166.715 59.8121C166.835 59.8183 166.929 59.826 166.997 59.8352V61.1555C166.942 61.1402 166.843 61.1232 166.702 61.1048C166.56 61.0832 166.418 61.0724 166.277 61.0724C165.951 61.0724 165.66 61.1417 165.404 61.2802C165.152 61.4156 164.952 61.6049 164.804 61.848C164.657 62.0881 164.583 62.362 164.583 62.6697V67H163.202ZM170.192 67.157C169.742 67.157 169.336 67.0739 168.973 66.9077C168.61 66.7384 168.322 66.4937 168.11 66.1737C167.9 65.8536 167.796 65.4612 167.796 64.9964C167.796 64.5964 167.873 64.267 168.027 64.0085C168.18 63.75 168.388 63.5453 168.65 63.3945C168.911 63.2437 169.204 63.1299 169.527 63.0529C169.85 62.976 170.179 62.9175 170.515 62.8775C170.94 62.8282 171.284 62.7882 171.549 62.7575C171.814 62.7236 172.006 62.6697 172.126 62.5959C172.246 62.522 172.306 62.402 172.306 62.2358V62.2035C172.306 61.8003 172.192 61.4879 171.964 61.2663C171.74 61.0447 171.404 60.9339 170.958 60.9339C170.493 60.9339 170.127 61.037 169.859 61.2433C169.595 61.4464 169.411 61.6726 169.31 61.9219L168.013 61.6264C168.167 61.1955 168.391 60.8478 168.687 60.5831C168.985 60.3153 169.328 60.1214 169.716 60.0014C170.104 59.8783 170.512 59.8168 170.94 59.8168C171.223 59.8168 171.523 59.8506 171.84 59.9183C172.16 59.983 172.458 60.103 172.735 60.2784C173.015 60.4538 173.245 60.7047 173.423 61.0309C173.602 61.354 173.691 61.7741 173.691 62.2912V67H172.343V66.0305H172.288C172.198 66.209 172.064 66.3845 171.886 66.5568C171.707 66.7292 171.478 66.8723 171.198 66.9862C170.918 67.1 170.583 67.157 170.192 67.157ZM170.492 66.049C170.873 66.049 171.2 65.9736 171.47 65.8228C171.744 65.672 171.952 65.475 172.094 65.2319C172.238 64.9857 172.311 64.7225 172.311 64.4425V63.5284C172.261 63.5777 172.166 63.6238 172.024 63.6669C171.886 63.7069 171.727 63.7423 171.549 63.7731C171.37 63.8008 171.197 63.8269 171.027 63.8516C170.858 63.8731 170.716 63.8916 170.603 63.907C170.335 63.9408 170.09 63.9978 169.869 64.0778C169.65 64.1578 169.475 64.2732 169.342 64.424C169.213 64.5717 169.148 64.7687 169.148 65.0149C169.148 65.3565 169.275 65.6151 169.527 65.7905C169.779 65.9628 170.101 66.049 170.492 66.049ZM175.64 67V57.5455H177.021V61.0586H177.104C177.184 60.9109 177.299 60.7401 177.45 60.5462C177.601 60.3523 177.81 60.183 178.078 60.0384C178.346 59.8906 178.699 59.8168 179.14 59.8168C179.712 59.8168 180.223 59.9614 180.672 60.2507C181.122 60.54 181.474 60.957 181.729 61.5018C181.988 62.0465 182.117 62.7021 182.117 63.4684C182.117 64.2347 181.989 64.8918 181.734 65.4396C181.479 65.9844 181.128 66.4045 180.681 66.6999C180.235 66.9923 179.726 67.1385 179.153 67.1385C178.723 67.1385 178.37 67.0662 178.096 66.9215C177.825 66.7769 177.613 66.6076 177.459 66.4137C177.305 66.2198 177.187 66.0475 177.104 65.8967H176.988V67H175.64ZM176.993 63.4545C176.993 63.9531 177.065 64.3902 177.21 64.7656C177.355 65.1411 177.564 65.435 177.838 65.6474C178.112 65.8567 178.447 65.9613 178.844 65.9613C179.257 65.9613 179.601 65.852 179.878 65.6335C180.155 65.4119 180.364 65.1119 180.506 64.7333C180.651 64.3548 180.723 63.9285 180.723 63.4545C180.723 62.9867 180.652 62.5666 180.511 62.1942C180.372 61.8219 180.163 61.5279 179.883 61.3125C179.606 61.0971 179.26 60.9893 178.844 60.9893C178.444 60.9893 178.105 61.0924 177.828 61.2987C177.555 61.5049 177.347 61.7926 177.205 62.1619C177.064 62.5312 176.993 62.9621 176.993 63.4545ZM185.047 62.7898V67H183.667V57.5455H185.029V61.0632H185.117C185.283 60.6816 185.537 60.3784 185.878 60.1538C186.22 59.9291 186.666 59.8168 187.217 59.8168C187.704 59.8168 188.128 59.9168 188.491 60.1168C188.858 60.3169 189.141 60.6154 189.341 61.0124C189.544 61.4064 189.646 61.8988 189.646 62.4897V67H188.265V62.6559C188.265 62.1358 188.131 61.7326 187.864 61.4464C187.596 61.1571 187.223 61.0124 186.746 61.0124C186.42 61.0124 186.128 61.0817 185.869 61.2202C185.614 61.3587 185.412 61.5618 185.264 61.8295C185.12 62.0942 185.047 62.4143 185.047 62.7898ZM196.801 61.6403L195.55 61.8619C195.498 61.7018 195.415 61.5495 195.301 61.4048C195.19 61.2602 195.039 61.1417 194.848 61.0494C194.657 60.957 194.419 60.9109 194.133 60.9109C193.742 60.9109 193.416 60.9986 193.154 61.174C192.892 61.3464 192.762 61.5695 192.762 61.8434C192.762 62.0804 192.849 62.2712 193.025 62.4158C193.2 62.5605 193.483 62.679 193.874 62.7713L195.001 63.0298C195.653 63.1806 196.139 63.413 196.459 63.7269C196.78 64.0408 196.94 64.4486 196.94 64.9503C196.94 65.375 196.816 65.7536 196.57 66.0859C196.327 66.4152 195.987 66.6738 195.55 66.8615C195.116 67.0492 194.613 67.1431 194.04 67.1431C193.246 67.1431 192.599 66.9738 192.097 66.6353C191.595 66.2937 191.287 65.8089 191.174 65.1811L192.508 64.978C192.591 65.3258 192.762 65.5889 193.02 65.7674C193.279 65.9428 193.616 66.0305 194.031 66.0305C194.484 66.0305 194.845 65.9367 195.116 65.7489C195.387 65.5581 195.522 65.3258 195.522 65.0518C195.522 64.8303 195.439 64.6441 195.273 64.4933C195.11 64.3424 194.859 64.2286 194.521 64.1516L193.32 63.8885C192.659 63.7377 192.169 63.4976 191.852 63.1683C191.538 62.839 191.381 62.422 191.381 61.9173C191.381 61.4987 191.498 61.1325 191.732 60.8185C191.966 60.5046 192.289 60.2599 192.702 60.0845C193.114 59.906 193.586 59.8168 194.119 59.8168C194.885 59.8168 195.488 59.983 195.929 60.3153C196.369 60.6446 196.659 61.0863 196.801 61.6403ZM199.838 62.7898V67H198.457V57.5455H199.819V61.0632H199.907C200.073 60.6816 200.327 60.3784 200.669 60.1538C201.01 59.9291 201.456 59.8168 202.007 59.8168C202.494 59.8168 202.918 59.9168 203.281 60.1168C203.648 60.3169 203.931 60.6154 204.131 61.0124C204.334 61.4064 204.436 61.8988 204.436 62.4897V67H203.055V62.6559C203.055 62.1358 202.921 61.7326 202.654 61.4464C202.386 61.1571 202.013 61.0124 201.536 61.0124C201.21 61.0124 200.918 61.0817 200.659 61.2202C200.404 61.3587 200.202 61.5618 200.055 61.8295C199.91 62.0942 199.838 62.4143 199.838 62.7898ZM210.769 64.0593V59.9091H212.154V67H210.797V65.772H210.723C210.56 66.1506 210.298 66.466 209.938 66.7184C209.581 66.9677 209.137 67.0923 208.604 67.0923C208.149 67.0923 207.746 66.9923 207.395 66.7923C207.047 66.5891 206.773 66.2891 206.573 65.892C206.376 65.495 206.278 65.0041 206.278 64.4194V59.9091H207.658V64.2532C207.658 64.7364 207.792 65.1211 208.059 65.4073C208.327 65.6935 208.675 65.8366 209.103 65.8366C209.361 65.8366 209.618 65.772 209.874 65.6428C210.132 65.5135 210.346 65.3181 210.515 65.0565C210.688 64.7949 210.772 64.4625 210.769 64.0593ZM215.278 64.5948L215.269 62.9098H215.509L218.335 59.9091H219.987L216.765 63.3253H216.548L215.278 64.5948ZM214.009 67V57.5455H215.389V67H214.009ZM218.487 67L215.948 63.63L216.899 62.6651L220.181 67H218.487ZM222.626 57.5455V67H221.245V57.5455H222.626ZM226.546 67.157C226.097 67.157 225.691 67.0739 225.327 66.9077C224.964 66.7384 224.676 66.4937 224.464 66.1737C224.255 65.8536 224.15 65.4612 224.15 64.9964C224.15 64.5964 224.227 64.267 224.381 64.0085C224.535 63.75 224.743 63.5453 225.004 63.3945C225.266 63.2437 225.558 63.1299 225.881 63.0529C226.205 62.976 226.534 62.9175 226.869 62.8775C227.294 62.8282 227.639 62.7882 227.903 62.7575C228.168 62.7236 228.36 62.6697 228.48 62.5959C228.6 62.522 228.661 62.402 228.661 62.2358V62.2035C228.661 61.8003 228.547 61.4879 228.319 61.2663C228.094 61.0447 227.759 60.9339 227.312 60.9339C226.848 60.9339 226.482 61.037 226.214 61.2433C225.949 61.4464 225.766 61.6726 225.664 61.9219L224.367 61.6264C224.521 61.1955 224.746 60.8478 225.041 60.5831C225.34 60.3153 225.683 60.1214 226.071 60.0014C226.458 59.8783 226.866 59.8168 227.294 59.8168C227.577 59.8168 227.877 59.8506 228.194 59.9183C228.514 59.983 228.813 60.103 229.09 60.2784C229.37 60.4538 229.599 60.7047 229.778 61.0309C229.956 61.354 230.045 61.7741 230.045 62.2912V67H228.697V66.0305H228.642C228.553 66.209 228.419 66.3845 228.24 66.5568C228.062 66.7292 227.833 66.8723 227.553 66.9862C227.272 67.1 226.937 67.157 226.546 67.157ZM226.846 66.049C227.228 66.049 227.554 65.9736 227.825 65.8228C228.099 65.672 228.307 65.475 228.448 65.2319C228.593 64.9857 228.665 64.7225 228.665 64.4425V63.5284C228.616 63.5777 228.52 63.6238 228.379 63.6669C228.24 63.7069 228.082 63.7423 227.903 63.7731C227.725 63.8008 227.551 63.8269 227.382 63.8516C227.212 63.8731 227.071 63.8916 226.957 63.907C226.689 63.9408 226.445 63.9978 226.223 64.0778C226.004 64.1578 225.829 64.2732 225.697 64.424C225.567 64.5717 225.503 64.7687 225.503 65.0149C225.503 65.3565 225.629 65.6151 225.881 65.7905C226.134 65.9628 226.455 66.049 226.846 66.049Z" fill="#008BDC"/>
<path d="M224.405 89.6278C224.729 89.6302 225.049 89.6894 225.364 89.8054C225.679 89.9214 225.963 90.1108 226.216 90.3736C226.472 90.6364 226.675 90.9915 226.827 91.4389C226.981 91.884 227.059 92.438 227.061 93.1009C227.061 93.7377 226.997 94.3047 226.869 94.8018C226.742 95.2966 226.558 95.7145 226.319 96.0554C226.082 96.3963 225.795 96.6555 225.456 96.8331C225.118 97.0107 224.736 97.0994 224.313 97.0994C223.879 97.0994 223.495 97.0142 223.159 96.8438C222.822 96.6733 222.549 96.4377 222.338 96.1371C222.128 95.834 221.996 95.486 221.944 95.093H223.027C223.098 95.4055 223.243 95.6589 223.46 95.853C223.681 96.0447 223.965 96.1406 224.313 96.1406C224.845 96.1406 225.261 95.9086 225.559 95.4446C225.857 94.9782 226.008 94.3272 226.01 93.4915H225.953C225.83 93.6951 225.676 93.8703 225.492 94.017C225.309 94.1638 225.105 94.2775 224.877 94.358C224.65 94.4384 224.407 94.4787 224.149 94.4787C223.73 94.4787 223.349 94.3757 223.006 94.1697C222.663 93.9638 222.389 93.6809 222.186 93.321C221.982 92.9612 221.88 92.5504 221.88 92.0888C221.88 91.6295 221.984 91.2128 222.193 90.8388C222.403 90.4647 222.697 90.1688 223.073 89.951C223.452 89.7308 223.896 89.6231 224.405 89.6278ZM224.409 90.5511C224.132 90.5511 223.882 90.6198 223.659 90.7571C223.439 90.892 223.265 91.0755 223.137 91.3075C223.009 91.5372 222.945 91.7929 222.945 92.0746C222.945 92.3563 223.007 92.612 223.13 92.8416C223.256 93.0689 223.426 93.25 223.642 93.3849C223.859 93.5175 224.108 93.5838 224.387 93.5838C224.596 93.5838 224.79 93.5436 224.97 93.4631C225.15 93.3826 225.307 93.2713 225.442 93.1293C225.577 92.9848 225.682 92.8215 225.758 92.6392C225.834 92.4569 225.872 92.2652 225.872 92.0639C225.872 91.7964 225.808 91.5478 225.68 91.3182C225.554 91.0885 225.382 90.9039 225.161 90.7642C224.941 90.6222 224.69 90.5511 224.409 90.5511ZM229.058 96.098C228.864 96.098 228.697 96.0294 228.557 95.892C228.417 95.7524 228.348 95.5843 228.348 95.3878C228.348 95.1937 228.417 95.0279 228.557 94.8906C228.697 94.7509 228.864 94.6811 229.058 94.6811C229.252 94.6811 229.419 94.7509 229.559 94.8906C229.698 95.0279 229.768 95.1937 229.768 95.3878C229.768 95.518 229.735 95.6375 229.669 95.7464C229.605 95.853 229.52 95.9382 229.413 96.0021C229.306 96.0661 229.188 96.098 229.058 96.098ZM229.058 92.4545C228.864 92.4545 228.697 92.3859 228.557 92.2486C228.417 92.1089 228.348 91.9408 228.348 91.7443C228.348 91.5502 228.417 91.3845 228.557 91.2472C228.697 91.1075 228.864 91.0376 229.058 91.0376C229.252 91.0376 229.419 91.1075 229.559 91.2472C229.698 91.3845 229.768 91.5502 229.768 91.7443C229.768 91.8745 229.735 91.9941 229.669 92.103C229.605 92.2095 229.52 92.2947 229.413 92.3587C229.306 92.4226 229.188 92.4545 229.058 92.4545ZM233.708 97.0994C233.22 97.0994 232.785 97.0154 232.401 96.8473C232.02 96.6792 231.718 96.446 231.496 96.1477C231.276 95.8471 231.157 95.4991 231.141 95.1037H232.256C232.27 95.3191 232.342 95.5062 232.472 95.6648C232.605 95.821 232.778 95.9418 232.991 96.027C233.204 96.1122 233.441 96.1548 233.701 96.1548C233.987 96.1548 234.241 96.1051 234.461 96.0057C234.683 95.9062 234.857 95.7678 234.983 95.5902C235.108 95.4103 235.171 95.2031 235.171 94.9688C235.171 94.7249 235.108 94.5107 234.983 94.326C234.86 94.139 234.679 93.9922 234.44 93.8857C234.203 93.7791 233.916 93.7259 233.58 93.7259H232.966V92.831H233.58C233.85 92.831 234.087 92.7824 234.29 92.6854C234.496 92.5883 234.657 92.4534 234.773 92.2805C234.889 92.1054 234.947 91.9006 234.947 91.6662C234.947 91.4413 234.897 91.246 234.795 91.0803C234.695 90.9122 234.553 90.7808 234.369 90.6861C234.186 90.5914 233.971 90.544 233.722 90.544C233.486 90.544 233.264 90.5878 233.058 90.6754C232.855 90.7607 232.689 90.8838 232.561 91.0447C232.433 91.2034 232.365 91.3939 232.355 91.6165H231.293C231.305 91.2235 231.421 90.8778 231.641 90.5795C231.864 90.2812 232.157 90.0481 232.522 89.88C232.887 89.7119 233.291 89.6278 233.737 89.6278C234.203 89.6278 234.605 89.719 234.944 89.9013C235.285 90.0812 235.548 90.3215 235.732 90.6222C235.919 90.9228 236.012 91.2519 236.009 91.6094C236.012 92.0166 235.898 92.3622 235.668 92.6463C235.441 92.9304 235.138 93.121 234.759 93.218V93.2749C235.242 93.3482 235.616 93.54 235.881 93.8501C236.149 94.1603 236.281 94.545 236.279 95.0043C236.281 95.4044 236.17 95.763 235.945 96.0803C235.723 96.3975 235.419 96.6473 235.033 96.8295C234.647 97.0095 234.205 97.0994 233.708 97.0994ZM240.153 97.1207C239.592 97.1184 239.113 96.9704 238.715 96.6768C238.317 96.3833 238.013 95.956 237.803 95.3949C237.592 94.8338 237.487 94.1579 237.487 93.3672C237.487 92.5788 237.592 91.9053 237.803 91.3466C238.016 90.7879 238.321 90.3617 238.719 90.0682C239.119 89.7746 239.597 89.6278 240.153 89.6278C240.71 89.6278 241.187 89.7758 241.585 90.0717C241.982 90.3653 242.286 90.7914 242.497 91.3501C242.71 91.9065 242.817 92.5788 242.817 93.3672C242.817 94.1603 242.711 94.8374 242.501 95.3984C242.29 95.9571 241.986 96.3845 241.588 96.6804C241.19 96.974 240.712 97.1207 240.153 97.1207ZM240.153 96.1726C240.646 96.1726 241.031 95.9323 241.308 95.4517C241.587 94.9711 241.727 94.2763 241.727 93.3672C241.727 92.7635 241.663 92.2533 241.535 91.8366C241.409 91.4176 241.228 91.1004 240.991 90.8849C240.757 90.6671 240.478 90.5582 240.153 90.5582C239.663 90.5582 239.279 90.7997 238.999 91.2827C238.72 91.7656 238.579 92.4605 238.577 93.3672C238.577 93.9732 238.639 94.4858 238.765 94.9048C238.893 95.3215 239.074 95.6375 239.308 95.853C239.543 96.0661 239.824 96.1726 240.153 96.1726ZM247.437 97H246.272L248.889 89.7273H250.157L252.774 97H251.609L249.553 91.0483H249.496L247.437 97ZM247.632 94.152H251.411V95.0753H247.632V94.152ZM253.824 89.7273H255.156L257.471 95.3807H257.557L259.872 89.7273H261.204V97H260.16V91.7372H260.092L257.947 96.9893H257.081L254.936 91.7337H254.868V97H253.824V89.7273Z" fill="#8A8A8A"/>
</svg>
