<svg width="243" height="64" viewBox="0 0 243 64" fill="none" xmlns="http://www.w3.org/2000/svg">
<rect x="243" y="64" width="243" height="64" rx="8" transform="rotate(-180 243 64)" fill="white"/>
<path d="M16.6278 18.5611V17.5455H23.7188V18.5611H20.7457V27H19.6009V18.5611H16.6278ZM26.4275 22.7344V27H25.338V17.5455H26.4275V21.017H26.5198C26.686 20.6508 26.9353 20.36 27.2677 20.1445C27.6031 19.926 28.0494 19.8168 28.6064 19.8168C29.0896 19.8168 29.5128 19.9137 29.876 20.1076C30.2391 20.2984 30.5207 20.5923 30.7208 20.9893C30.9239 21.3833 31.0255 21.8849 31.0255 22.4943V27H29.936V22.5682C29.936 22.005 29.7898 21.5695 29.4974 21.2617C29.2081 20.9509 28.8065 20.7955 28.2925 20.7955C27.9355 20.7955 27.6154 20.8709 27.3323 21.0217C27.0522 21.1725 26.8306 21.3925 26.6675 21.6818C26.5075 21.9711 26.4275 22.322 26.4275 22.7344ZM35.1053 27.1662C34.656 27.1662 34.2482 27.0816 33.8819 26.9123C33.5157 26.7399 33.2248 26.4922 33.0094 26.169C32.794 25.8428 32.6863 25.4489 32.6863 24.9872C32.6863 24.581 32.7663 24.2517 32.9263 23.9993C33.0864 23.7438 33.3002 23.5438 33.568 23.3991C33.8358 23.2545 34.1312 23.1468 34.4544 23.076C34.7806 23.0021 35.1084 22.9437 35.4377 22.9006C35.8685 22.8452 36.2179 22.8036 36.4856 22.7759C36.7565 22.7451 36.9534 22.6944 37.0765 22.6236C37.2027 22.5528 37.2658 22.4297 37.2658 22.2543V22.2173C37.2658 21.7618 37.1412 21.4079 36.8919 21.1555C36.6457 20.9032 36.2717 20.777 35.7701 20.777C35.2499 20.777 34.8422 20.8909 34.5467 21.1186C34.2512 21.3464 34.0435 21.5895 33.9235 21.848L32.8894 21.4787C33.074 21.0478 33.3203 20.7124 33.628 20.4723C33.9389 20.2292 34.2774 20.0599 34.6436 19.9645C35.013 19.866 35.3761 19.8168 35.7331 19.8168C35.9609 19.8168 36.2225 19.8445 36.5179 19.8999C36.8165 19.9522 37.1042 20.0614 37.3812 20.2276C37.6613 20.3938 37.8936 20.6446 38.0783 20.9801C38.263 21.3156 38.3553 21.7649 38.3553 22.3281V27H37.2658V26.0398H37.2104C37.1365 26.1937 37.0134 26.3583 36.8411 26.5337C36.6687 26.7092 36.4395 26.8584 36.1532 26.9815C35.867 27.1046 35.5177 27.1662 35.1053 27.1662ZM35.2715 26.1875C35.7024 26.1875 36.0655 26.1029 36.361 25.9336C36.6595 25.7643 36.8842 25.5458 37.035 25.2781C37.1889 25.0103 37.2658 24.7287 37.2658 24.4332V23.4361C37.2196 23.4915 37.1181 23.5423 36.9611 23.5884C36.8072 23.6315 36.6287 23.67 36.4256 23.7038C36.2256 23.7346 36.0301 23.7623 35.8393 23.7869C35.6516 23.8085 35.4992 23.8269 35.3823 23.8423C35.0991 23.8793 34.8345 23.9393 34.5882 24.0224C34.3451 24.1024 34.1481 24.224 33.9973 24.3871C33.8496 24.5471 33.7757 24.7656 33.7757 25.0426C33.7757 25.4212 33.9158 25.7074 34.1958 25.9013C34.479 26.0921 34.8375 26.1875 35.2715 26.1875ZM41.4333 22.7344V27H40.3438V19.9091H41.3964V21.017H41.4887C41.6549 20.657 41.9073 20.3677 42.2458 20.1491C42.5844 19.9276 43.0214 19.8168 43.5569 19.8168C44.037 19.8168 44.4571 19.9152 44.8172 20.1122C45.1773 20.3061 45.4574 20.6016 45.6574 20.9986C45.8575 21.3925 45.9575 21.8911 45.9575 22.4943V27H44.868V22.5682C44.868 22.0111 44.7233 21.5772 44.434 21.2663C44.1447 20.9524 43.7477 20.7955 43.243 20.7955C42.8952 20.7955 42.5844 20.8709 42.3105 21.0217C42.0396 21.1725 41.8257 21.3925 41.6688 21.6818C41.5118 21.9711 41.4333 22.322 41.4333 22.7344ZM48.964 24.4148L48.9455 23.0668H49.1671L52.2694 19.9091H53.6174L50.312 23.2514H50.2196L48.964 24.4148ZM47.9483 27V17.5455H49.0378V27H47.9483ZM52.454 27L49.6841 23.4915L50.4597 22.7344L53.839 27H52.454ZM59.3776 29.6591C59.1929 29.6591 59.0283 29.6437 58.8836 29.6129C58.739 29.5852 58.6389 29.5575 58.5835 29.5298L58.8605 28.5696C59.1252 28.6373 59.3591 28.6619 59.5622 28.6435C59.7654 28.625 59.9454 28.5342 60.1024 28.3711C60.2624 28.2111 60.4086 27.951 60.5409 27.5909L60.7441 27.0369L58.1219 19.9091H59.3037L61.2611 25.5597H61.335L63.2923 19.9091H64.4742L61.4642 28.0341C61.3288 28.4003 61.1611 28.7035 60.961 28.9435C60.761 29.1867 60.5286 29.3667 60.2639 29.4837C60.0023 29.6006 59.7069 29.6591 59.3776 29.6591ZM68.539 27.1477C67.8988 27.1477 67.3372 26.9954 66.854 26.6907C66.3738 26.386 65.9984 25.9598 65.7275 25.4119C65.4598 24.8641 65.3259 24.224 65.3259 23.4915C65.3259 22.7528 65.4598 22.1081 65.7275 21.5572C65.9984 21.0063 66.3738 20.5785 66.854 20.2738C67.3372 19.9691 67.8988 19.8168 68.539 19.8168C69.1791 19.8168 69.7393 19.9691 70.2194 20.2738C70.7026 20.5785 71.078 21.0063 71.3458 21.5572C71.6166 22.1081 71.752 22.7528 71.752 23.4915C71.752 24.224 71.6166 24.8641 71.3458 25.4119C71.078 25.9598 70.7026 26.386 70.2194 26.6907C69.7393 26.9954 69.1791 27.1477 68.539 27.1477ZM68.539 26.169C69.0252 26.169 69.4253 26.0444 69.7393 25.7951C70.0532 25.5458 70.2855 25.218 70.4363 24.8118C70.5872 24.4055 70.6626 23.9654 70.6626 23.4915C70.6626 23.0175 70.5872 22.5759 70.4363 22.1665C70.2855 21.7572 70.0532 21.4264 69.7393 21.174C69.4253 20.9216 69.0252 20.7955 68.539 20.7955C68.0527 20.7955 67.6526 20.9216 67.3387 21.174C67.0248 21.4264 66.7924 21.7572 66.6416 22.1665C66.4908 22.5759 66.4154 23.0175 66.4154 23.4915C66.4154 23.9654 66.4908 24.4055 66.6416 24.8118C66.7924 25.218 67.0248 25.5458 67.3387 25.7951C67.6526 26.0444 68.0527 26.169 68.539 26.169ZM77.8839 24.1009V19.9091H78.9734V27H77.8839V25.7997H77.81C77.6438 26.1598 77.3853 26.466 77.0344 26.7184C76.6836 26.9677 76.2404 27.0923 75.7049 27.0923C75.2617 27.0923 74.8678 26.9954 74.5231 26.8015C74.1784 26.6045 73.9076 26.3091 73.7106 25.9151C73.5136 25.5181 73.4151 25.018 73.4151 24.4148V19.9091H74.5046V24.3409C74.5046 24.858 74.6493 25.2704 74.9386 25.5781C75.2309 25.8859 75.6033 26.0398 76.0558 26.0398C76.3266 26.0398 76.602 25.9705 76.8821 25.832C77.1652 25.6935 77.4022 25.4812 77.593 25.195C77.7869 24.9087 77.8839 24.544 77.8839 24.1009ZM81.7629 27.0739C81.5351 27.0739 81.3397 26.9923 81.1766 26.8292C81.0135 26.6661 80.9319 26.4706 80.9319 26.2429C80.9319 26.0152 81.0135 25.8197 81.1766 25.6566C81.3397 25.4935 81.5351 25.4119 81.7629 25.4119C81.9906 25.4119 82.186 25.4935 82.3492 25.6566C82.5123 25.8197 82.5938 26.0152 82.5938 26.2429C82.5938 26.3937 82.5554 26.5322 82.4784 26.6584C82.4046 26.7846 82.3045 26.8861 82.1784 26.9631C82.0552 27.0369 81.9168 27.0739 81.7629 27.0739ZM90.0702 27L87.485 17.5455H88.6483L90.6242 25.2457H90.7165L92.7293 17.5455H94.0219L96.0347 25.2457H96.127L98.1029 17.5455H99.2662L96.681 27H95.4992L93.4126 19.4659H93.3387L91.252 27H90.0702ZM102.858 27.1477C102.175 27.1477 101.585 26.9969 101.09 26.6953C100.597 26.3906 100.217 25.9659 99.9495 25.4212C99.6848 24.8733 99.5525 24.2363 99.5525 23.5099C99.5525 22.7836 99.6848 22.1435 99.9495 21.5895C100.217 21.0324 100.59 20.5985 101.067 20.2876C101.547 19.9737 102.107 19.8168 102.747 19.8168C103.116 19.8168 103.481 19.8783 103.841 20.0014C104.201 20.1245 104.529 20.3246 104.824 20.6016C105.12 20.8755 105.355 21.2386 105.531 21.6911C105.706 22.1435 105.794 22.7005 105.794 23.3622V23.8239H100.328V22.8821H104.686C104.686 22.482 104.606 22.125 104.446 21.8111C104.289 21.4972 104.064 21.2494 103.772 21.0678C103.483 20.8862 103.141 20.7955 102.747 20.7955C102.313 20.7955 101.938 20.9032 101.621 21.1186C101.307 21.331 101.065 21.608 100.896 21.9496C100.727 22.2912 100.642 22.6574 100.642 23.0483V23.6761C100.642 24.2116 100.734 24.6656 100.919 25.038C101.107 25.4073 101.367 25.6889 101.699 25.8828C102.032 26.0736 102.418 26.169 102.858 26.169C103.144 26.169 103.403 26.129 103.633 26.049C103.867 25.9659 104.069 25.8428 104.238 25.6797C104.407 25.5135 104.538 25.3073 104.631 25.0611L105.683 25.3565C105.572 25.7135 105.386 26.0275 105.125 26.2983C104.863 26.5661 104.54 26.7753 104.155 26.9261C103.77 27.0739 103.338 27.1477 102.858 27.1477ZM108.411 17.5455V18.3764C108.411 18.6288 108.365 18.8981 108.273 19.1843C108.184 19.4674 108.051 19.7429 107.876 20.0107C107.704 20.2753 107.494 20.5062 107.248 20.7031L106.657 20.223C106.851 19.946 107.019 19.6583 107.16 19.3597C107.305 19.0581 107.377 18.7365 107.377 18.3949V17.5455H108.411ZM110.94 17.5455V27H109.851V17.5455H110.94ZM114.025 17.5455V27H112.936V17.5455H114.025ZM122.539 29.8068C122.013 29.8068 121.56 29.7391 121.182 29.6037C120.803 29.4714 120.488 29.2959 120.235 29.0774C119.986 28.862 119.788 28.6312 119.64 28.3849L120.508 27.7756C120.606 27.9048 120.731 28.0526 120.882 28.2188C121.033 28.388 121.239 28.5342 121.5 28.6573C121.765 28.7835 122.111 28.8466 122.539 28.8466C123.112 28.8466 123.584 28.7081 123.956 28.4311C124.329 28.1541 124.515 27.7202 124.515 27.1293V25.6889H124.423C124.343 25.8182 124.229 25.9782 124.081 26.169C123.936 26.3568 123.727 26.5245 123.453 26.6722C123.182 26.8169 122.816 26.8892 122.354 26.8892C121.782 26.8892 121.268 26.7538 120.812 26.483C120.36 26.2121 120.002 25.8182 119.737 25.3011C119.475 24.7841 119.344 24.1562 119.344 23.4176C119.344 22.6913 119.472 22.0588 119.728 21.5202C119.983 20.9786 120.339 20.56 120.794 20.2646C121.25 19.966 121.776 19.8168 122.373 19.8168C122.835 19.8168 123.201 19.8937 123.472 20.0476C123.746 20.1984 123.955 20.3707 124.099 20.5646C124.247 20.7554 124.361 20.9124 124.441 21.0355H124.552V19.9091H125.604V27.2031C125.604 27.8125 125.466 28.308 125.189 28.6896C124.915 29.0743 124.546 29.3559 124.081 29.5344C123.619 29.716 123.105 29.8068 122.539 29.8068ZM122.502 25.9105C122.939 25.9105 123.308 25.8105 123.61 25.6104C123.912 25.4104 124.141 25.1226 124.298 24.7472C124.455 24.3717 124.533 23.9223 124.533 23.3991C124.533 22.8883 124.456 22.4374 124.303 22.0465C124.149 21.6557 123.921 21.3494 123.619 21.1278C123.318 20.9062 122.945 20.7955 122.502 20.7955C122.04 20.7955 121.656 20.9124 121.348 21.1463C121.043 21.3802 120.814 21.6941 120.66 22.0881C120.509 22.482 120.434 22.919 120.434 23.3991C120.434 23.8916 120.511 24.3271 120.665 24.7056C120.822 25.0811 121.053 25.3765 121.357 25.592C121.665 25.8043 122.047 25.9105 122.502 25.9105ZM130.572 27.1477C129.888 27.1477 129.299 26.9969 128.804 26.6953C128.311 26.3906 127.931 25.9659 127.663 25.4212C127.399 24.8733 127.266 24.2363 127.266 23.5099C127.266 22.7836 127.399 22.1435 127.663 21.5895C127.931 21.0324 128.304 20.5985 128.781 20.2876C129.261 19.9737 129.821 19.8168 130.461 19.8168C130.83 19.8168 131.195 19.8783 131.555 20.0014C131.915 20.1245 132.243 20.3246 132.538 20.6016C132.834 20.8755 133.069 21.2386 133.245 21.6911C133.42 22.1435 133.508 22.7005 133.508 23.3622V23.8239H128.042V22.8821H132.4C132.4 22.482 132.32 22.125 132.16 21.8111C132.003 21.4972 131.778 21.2494 131.486 21.0678C131.196 20.8862 130.855 20.7955 130.461 20.7955C130.027 20.7955 129.652 20.9032 129.335 21.1186C129.021 21.331 128.779 21.608 128.61 21.9496C128.44 22.2912 128.356 22.6574 128.356 23.0483V23.6761C128.356 24.2116 128.448 24.6656 128.633 25.038C128.821 25.4073 129.081 25.6889 129.413 25.8828C129.745 26.0736 130.132 26.169 130.572 26.169C130.858 26.169 131.116 26.129 131.347 26.049C131.581 25.9659 131.783 25.8428 131.952 25.6797C132.121 25.5135 132.252 25.3073 132.344 25.0611L133.397 25.3565C133.286 25.7135 133.1 26.0275 132.838 26.2983C132.577 26.5661 132.254 26.7753 131.869 26.9261C131.484 27.0739 131.052 27.1477 130.572 27.1477ZM138.249 19.9091V20.8324H134.574V19.9091H138.249ZM135.645 18.2102H136.735V24.9688C136.735 25.2765 136.779 25.5073 136.869 25.6612C136.961 25.812 137.078 25.9136 137.219 25.9659C137.364 26.0152 137.516 26.0398 137.676 26.0398C137.797 26.0398 137.895 26.0336 137.972 26.0213C138.049 26.0059 138.11 25.9936 138.157 25.9844L138.378 26.9631C138.304 26.9908 138.201 27.0185 138.069 27.0462C137.937 27.0769 137.769 27.0923 137.566 27.0923C137.258 27.0923 136.956 27.0262 136.661 26.8938C136.368 26.7615 136.125 26.5599 135.931 26.2891C135.741 26.0182 135.645 25.6766 135.645 25.2642V18.2102ZM143.692 27V17.5455H144.781V21.0355H144.874C144.954 20.9124 145.064 20.7554 145.206 20.5646C145.351 20.3707 145.557 20.1984 145.825 20.0476C146.095 19.8937 146.462 19.8168 146.923 19.8168C147.52 19.8168 148.047 19.966 148.502 20.2646C148.958 20.5631 149.313 20.9863 149.569 21.5341C149.824 22.0819 149.952 22.7282 149.952 23.473C149.952 24.224 149.824 24.8749 149.569 25.4258C149.313 25.9736 148.959 26.3983 148.507 26.6999C148.054 26.9985 147.533 27.1477 146.942 27.1477C146.486 27.1477 146.122 27.0723 145.848 26.9215C145.574 26.7676 145.363 26.5937 145.215 26.3999C145.067 26.2029 144.954 26.0398 144.874 25.9105H144.744V27H143.692ZM144.763 23.4545C144.763 23.9901 144.841 24.4625 144.998 24.8718C145.155 25.2781 145.384 25.5966 145.686 25.8274C145.988 26.0552 146.357 26.169 146.794 26.169C147.25 26.169 147.63 26.049 147.934 25.8089C148.242 25.5658 148.473 25.2396 148.627 24.8303C148.784 24.4179 148.862 23.9593 148.862 23.4545C148.862 22.956 148.785 22.5066 148.631 22.1065C148.481 21.7034 148.251 21.3848 147.944 21.1509C147.639 20.9139 147.256 20.7955 146.794 20.7955C146.351 20.7955 145.978 20.9078 145.677 21.1325C145.375 21.354 145.147 21.6649 144.994 22.065C144.84 22.462 144.763 22.9252 144.763 23.4545ZM153.705 27.1662C153.256 27.1662 152.848 27.0816 152.482 26.9123C152.115 26.7399 151.824 26.4922 151.609 26.169C151.394 25.8428 151.286 25.4489 151.286 24.9872C151.286 24.581 151.366 24.2517 151.526 23.9993C151.686 23.7438 151.9 23.5438 152.168 23.3991C152.435 23.2545 152.731 23.1468 153.054 23.076C153.38 23.0021 153.708 22.9437 154.037 22.9006C154.468 22.8452 154.817 22.8036 155.085 22.7759C155.356 22.7451 155.553 22.6944 155.676 22.6236C155.802 22.5528 155.865 22.4297 155.865 22.2543V22.2173C155.865 21.7618 155.741 21.4079 155.491 21.1555C155.245 20.9032 154.871 20.777 154.37 20.777C153.85 20.777 153.442 20.8909 153.146 21.1186C152.851 21.3464 152.643 21.5895 152.523 21.848L151.489 21.4787C151.674 21.0478 151.92 20.7124 152.228 20.4723C152.538 20.2292 152.877 20.0599 153.243 19.9645C153.613 19.866 153.976 19.8168 154.333 19.8168C154.56 19.8168 154.822 19.8445 155.118 19.8999C155.416 19.9522 155.704 20.0614 155.981 20.2276C156.261 20.3938 156.493 20.6446 156.678 20.9801C156.863 21.3156 156.955 21.7649 156.955 22.3281V27H155.865V26.0398H155.81C155.736 26.1937 155.613 26.3583 155.441 26.5337C155.268 26.7092 155.039 26.8584 154.753 26.9815C154.467 27.1046 154.117 27.1662 153.705 27.1662ZM153.871 26.1875C154.302 26.1875 154.665 26.1029 154.961 25.9336C155.259 25.7643 155.484 25.5458 155.635 25.2781C155.788 25.0103 155.865 24.7287 155.865 24.4332V23.4361C155.819 23.4915 155.718 23.5423 155.561 23.5884C155.407 23.6315 155.228 23.67 155.025 23.7038C154.825 23.7346 154.63 23.7623 154.439 23.7869C154.251 23.8085 154.099 23.8269 153.982 23.8423C153.699 23.8793 153.434 23.9393 153.188 24.0224C152.945 24.1024 152.748 24.224 152.597 24.3871C152.449 24.5471 152.375 24.7656 152.375 25.0426C152.375 25.4212 152.515 25.7074 152.795 25.9013C153.079 26.0921 153.437 26.1875 153.871 26.1875ZM161.824 27.1477C161.159 27.1477 160.587 26.9908 160.107 26.6768C159.627 26.3629 159.257 25.9305 158.999 25.3796C158.74 24.8287 158.611 24.1993 158.611 23.4915C158.611 22.7713 158.743 22.1358 159.008 21.5849C159.276 21.0309 159.648 20.5985 160.125 20.2876C160.605 19.9737 161.166 19.8168 161.806 19.8168C162.304 19.8168 162.754 19.9091 163.154 20.0938C163.554 20.2784 163.882 20.5369 164.137 20.8693C164.392 21.2017 164.551 21.5895 164.612 22.0327H163.523C163.44 21.7095 163.255 21.4233 162.969 21.174C162.686 20.9216 162.304 20.7955 161.824 20.7955C161.399 20.7955 161.027 20.9062 160.707 21.1278C160.39 21.3464 160.142 21.6557 159.964 22.0558C159.788 22.4528 159.701 22.919 159.701 23.4545C159.701 24.0024 159.787 24.4794 159.959 24.8857C160.134 25.2919 160.381 25.6074 160.698 25.832C161.018 26.0567 161.393 26.169 161.824 26.169C162.107 26.169 162.364 26.1198 162.595 26.0213C162.826 25.9228 163.021 25.7812 163.181 25.5966C163.341 25.4119 163.455 25.1903 163.523 24.9318H164.612C164.551 25.3504 164.399 25.7274 164.155 26.0629C163.915 26.3952 163.597 26.6599 163.2 26.8569C162.806 27.0508 162.347 27.1477 161.824 27.1477ZM167.221 24.4148L167.202 23.0668H167.424L170.526 19.9091H171.874L168.569 23.2514H168.476L167.221 24.4148ZM166.205 27V17.5455H167.295V27H166.205ZM170.711 27L167.941 23.4915L168.717 22.7344L172.096 27H170.711ZM180.017 19.9091V20.8324H176.342V19.9091H180.017ZM177.413 18.2102H178.502V24.9688C178.502 25.2765 178.547 25.5073 178.636 25.6612C178.729 25.812 178.845 25.9136 178.987 25.9659C179.132 26.0152 179.284 26.0398 179.444 26.0398C179.564 26.0398 179.663 26.0336 179.74 26.0213C179.816 26.0059 179.878 25.9936 179.924 25.9844L180.146 26.9631C180.072 26.9908 179.969 27.0185 179.836 27.0462C179.704 27.0769 179.536 27.0923 179.333 27.0923C179.026 27.0923 178.724 27.0262 178.428 26.8938C178.136 26.7615 177.893 26.5599 177.699 26.2891C177.508 26.0182 177.413 25.6766 177.413 25.2642V18.2102ZM184.46 27.1477C183.82 27.1477 183.258 26.9954 182.775 26.6907C182.295 26.386 181.919 25.9598 181.648 25.4119C181.381 24.8641 181.247 24.224 181.247 23.4915C181.247 22.7528 181.381 22.1081 181.648 21.5572C181.919 21.0063 182.295 20.5785 182.775 20.2738C183.258 19.9691 183.82 19.8168 184.46 19.8168C185.1 19.8168 185.66 19.9691 186.14 20.2738C186.623 20.5785 186.999 21.0063 187.267 21.5572C187.538 22.1081 187.673 22.7528 187.673 23.4915C187.673 24.224 187.538 24.8641 187.267 25.4119C186.999 25.9598 186.623 26.386 186.14 26.6907C185.66 26.9954 185.1 27.1477 184.46 27.1477ZM184.46 26.169C184.946 26.169 185.346 26.0444 185.66 25.7951C185.974 25.5458 186.206 25.218 186.357 24.8118C186.508 24.4055 186.583 23.9654 186.583 23.4915C186.583 23.0175 186.508 22.5759 186.357 22.1665C186.206 21.7572 185.974 21.4264 185.66 21.174C185.346 20.9216 184.946 20.7955 184.46 20.7955C183.974 20.7955 183.574 20.9216 183.26 21.174C182.946 21.4264 182.713 21.7572 182.562 22.1665C182.412 22.5759 182.336 23.0175 182.336 23.4915C182.336 23.9654 182.412 24.4055 182.562 24.8118C182.713 25.218 182.946 25.5458 183.26 25.7951C183.574 26.0444 183.974 26.169 184.46 26.169ZM193.694 29.6591C193.509 29.6591 193.345 29.6437 193.2 29.6129C193.055 29.5852 192.955 29.5575 192.9 29.5298L193.177 28.5696C193.442 28.6373 193.676 28.6619 193.879 28.6435C194.082 28.625 194.262 28.5342 194.419 28.3711C194.579 28.2111 194.725 27.951 194.857 27.5909L195.06 27.0369L192.438 19.9091H193.62L195.578 25.5597H195.651L197.609 19.9091H198.791L195.781 28.0341C195.645 28.4003 195.477 28.7035 195.277 28.9435C195.077 29.1867 194.845 29.3667 194.58 29.4837C194.319 29.6006 194.023 29.6591 193.694 29.6591ZM202.855 27.1477C202.215 27.1477 201.654 26.9954 201.17 26.6907C200.69 26.386 200.315 25.9598 200.044 25.4119C199.776 24.8641 199.642 24.224 199.642 23.4915C199.642 22.7528 199.776 22.1081 200.044 21.5572C200.315 21.0063 200.69 20.5785 201.17 20.2738C201.654 19.9691 202.215 19.8168 202.855 19.8168C203.496 19.8168 204.056 19.9691 204.536 20.2738C205.019 20.5785 205.394 21.0063 205.662 21.5572C205.933 22.1081 206.068 22.7528 206.068 23.4915C206.068 24.224 205.933 24.8641 205.662 25.4119C205.394 25.9598 205.019 26.386 204.536 26.6907C204.056 26.9954 203.496 27.1477 202.855 27.1477ZM202.855 26.169C203.342 26.169 203.742 26.0444 204.056 25.7951C204.37 25.5458 204.602 25.218 204.753 24.8118C204.904 24.4055 204.979 23.9654 204.979 23.4915C204.979 23.0175 204.904 22.5759 204.753 22.1665C204.602 21.7572 204.37 21.4264 204.056 21.174C203.742 20.9216 203.342 20.7955 202.855 20.7955C202.369 20.7955 201.969 20.9216 201.655 21.174C201.341 21.4264 201.109 21.7572 200.958 22.1665C200.807 22.5759 200.732 23.0175 200.732 23.4915C200.732 23.9654 200.807 24.4055 200.958 24.8118C201.109 25.218 201.341 25.5458 201.655 25.7951C201.969 26.0444 202.369 26.169 202.855 26.169ZM212.2 24.1009V19.9091H213.29V27H212.2V25.7997H212.126C211.96 26.1598 211.702 26.466 211.351 26.7184C211 26.9677 210.557 27.0923 210.021 27.0923C209.578 27.0923 209.184 26.9954 208.839 26.8015C208.495 26.6045 208.224 26.3091 208.027 25.9151C207.83 25.5181 207.732 25.018 207.732 24.4148V19.9091H208.821V24.3409C208.821 24.858 208.966 25.2704 209.255 25.5781C209.547 25.8859 209.92 26.0398 210.372 26.0398C210.643 26.0398 210.918 25.9705 211.199 25.832C211.482 25.6935 211.719 25.4812 211.909 25.195C212.103 24.9087 212.2 24.544 212.2 24.1009ZM216.079 27.0739C215.852 27.0739 215.656 26.9923 215.493 26.8292C215.33 26.6661 215.248 26.4706 215.248 26.2429C215.248 26.0152 215.33 25.8197 215.493 25.6566C215.656 25.4935 215.852 25.4119 216.079 25.4119C216.307 25.4119 216.502 25.4935 216.666 25.6566C216.829 25.8197 216.91 26.0152 216.91 26.2429C216.91 26.3937 216.872 26.5322 216.795 26.6584C216.721 26.7846 216.621 26.8861 216.495 26.9631C216.372 27.0369 216.233 27.0739 216.079 27.0739ZM223.316 27.0739C223.088 27.0739 222.892 26.9923 222.729 26.8292C222.566 26.6661 222.485 26.4706 222.485 26.2429C222.485 26.0152 222.566 25.8197 222.729 25.6566C222.892 25.4935 223.088 25.4119 223.316 25.4119C223.543 25.4119 223.739 25.4935 223.902 25.6566C224.065 25.8197 224.147 26.0152 224.147 26.2429C224.147 26.3937 224.108 26.5322 224.031 26.6584C223.957 26.7846 223.857 26.8861 223.731 26.9631C223.608 27.0369 223.469 27.0739 223.316 27.0739ZM223.316 21.8111C223.088 21.8111 222.892 21.7295 222.729 21.5664C222.566 21.4033 222.485 21.2079 222.485 20.9801C222.485 20.7524 222.566 20.5569 222.729 20.3938C222.892 20.2307 223.088 20.1491 223.316 20.1491C223.543 20.1491 223.739 20.2307 223.902 20.3938C224.065 20.5569 224.147 20.7524 224.147 20.9801C224.147 21.1309 224.108 21.2694 224.031 21.3956C223.957 21.5218 223.857 21.6233 223.731 21.7003C223.608 21.7741 223.469 21.8111 223.316 21.8111ZM228.428 23.0114C228.428 24.1747 228.276 25.2457 227.971 26.2244C227.67 27.2 227.237 28.0987 226.674 28.9205H225.714C225.935 28.6158 226.142 28.2403 226.332 27.794C226.526 27.3509 226.696 26.8646 226.84 26.3352C226.985 25.8028 227.097 25.2534 227.177 24.6871C227.26 24.1178 227.302 23.5592 227.302 23.0114C227.302 22.2789 227.231 21.5356 227.09 20.7816C226.948 20.0276 226.757 19.3274 226.517 18.6811C226.277 18.0348 226.009 17.5085 225.714 17.1023H226.674C227.237 17.924 227.67 18.8242 227.971 19.8029C228.276 20.7785 228.428 21.848 228.428 23.0114Z" fill="#333333"/>
<path d="M173.134 45.6278C173.458 45.6302 173.777 45.6894 174.092 45.8054C174.407 45.9214 174.691 46.1108 174.945 46.3736C175.2 46.6364 175.404 46.9915 175.555 47.4389C175.709 47.884 175.787 48.438 175.79 49.1009C175.79 49.7377 175.726 50.3047 175.598 50.8018C175.47 51.2966 175.287 51.7145 175.048 52.0554C174.811 52.3963 174.523 52.6555 174.185 52.8331C173.846 53.0107 173.465 53.0994 173.041 53.0994C172.608 53.0994 172.223 53.0142 171.887 52.8438C171.551 52.6733 171.277 52.4377 171.067 52.1371C170.856 51.834 170.725 51.486 170.673 51.093H171.756C171.827 51.4055 171.971 51.6589 172.189 51.853C172.409 52.0447 172.693 52.1406 173.041 52.1406C173.574 52.1406 173.989 51.9086 174.288 51.4446C174.586 50.9782 174.736 50.3272 174.739 49.4915H174.682C174.559 49.6951 174.405 49.8703 174.22 50.017C174.038 50.1638 173.833 50.2775 173.606 50.358C173.379 50.4384 173.136 50.4787 172.878 50.4787C172.459 50.4787 172.078 50.3757 171.734 50.1697C171.391 49.9638 171.118 49.6809 170.914 49.321C170.71 48.9612 170.609 48.5504 170.609 48.0888C170.609 47.6295 170.713 47.2128 170.921 46.8388C171.132 46.4647 171.425 46.1688 171.802 45.951C172.181 45.7308 172.625 45.6231 173.134 45.6278ZM173.137 46.5511C172.86 46.5511 172.61 46.6198 172.388 46.7571C172.168 46.892 171.994 47.0755 171.866 47.3075C171.738 47.5372 171.674 47.7929 171.674 48.0746C171.674 48.3563 171.736 48.612 171.859 48.8416C171.984 49.0689 172.155 49.25 172.37 49.3849C172.588 49.5175 172.836 49.5838 173.116 49.5838C173.324 49.5838 173.518 49.5436 173.698 49.4631C173.878 49.3826 174.036 49.2713 174.17 49.1293C174.305 48.9848 174.411 48.8215 174.487 48.6392C174.562 48.4569 174.6 48.2652 174.6 48.0639C174.6 47.7964 174.536 47.5478 174.408 47.3182C174.283 47.0885 174.11 46.9039 173.89 46.7642C173.67 46.6222 173.419 46.5511 173.137 46.5511ZM177.786 52.098C177.592 52.098 177.425 52.0294 177.286 51.892C177.146 51.7524 177.076 51.5843 177.076 51.3878C177.076 51.1937 177.146 51.0279 177.286 50.8906C177.425 50.7509 177.592 50.6811 177.786 50.6811C177.981 50.6811 178.147 50.7509 178.287 50.8906C178.427 51.0279 178.497 51.1937 178.497 51.3878C178.497 51.518 178.463 51.6375 178.397 51.7464C178.333 51.853 178.248 51.9382 178.142 52.0021C178.035 52.0661 177.917 52.098 177.786 52.098ZM177.786 48.4545C177.592 48.4545 177.425 48.3859 177.286 48.2486C177.146 48.1089 177.076 47.9408 177.076 47.7443C177.076 47.5502 177.146 47.3845 177.286 47.2472C177.425 47.1075 177.592 47.0376 177.786 47.0376C177.981 47.0376 178.147 47.1075 178.287 47.2472C178.427 47.3845 178.497 47.5502 178.497 47.7443C178.497 47.8745 178.463 47.9941 178.397 48.103C178.333 48.2095 178.248 48.2947 178.142 48.3587C178.035 48.4226 177.917 48.4545 177.786 48.4545ZM182.437 53.0994C181.949 53.0994 181.513 53.0154 181.13 52.8473C180.749 52.6792 180.447 52.446 180.224 52.1477C180.004 51.8471 179.886 51.4991 179.869 51.1037H180.984C180.998 51.3191 181.071 51.5062 181.201 51.6648C181.333 51.821 181.506 51.9418 181.719 52.027C181.932 52.1122 182.169 52.1548 182.43 52.1548C182.716 52.1548 182.969 52.1051 183.189 52.0057C183.412 51.9062 183.586 51.7678 183.711 51.5902C183.837 51.4103 183.9 51.2031 183.9 50.9688C183.9 50.7249 183.837 50.5107 183.711 50.326C183.588 50.139 183.407 49.9922 183.168 49.8857C182.931 49.7791 182.645 49.7259 182.309 49.7259H181.694V48.831H182.309C182.579 48.831 182.815 48.7824 183.019 48.6854C183.225 48.5883 183.386 48.4534 183.502 48.2805C183.618 48.1054 183.676 47.9006 183.676 47.6662C183.676 47.4413 183.625 47.246 183.523 47.0803C183.424 46.9122 183.282 46.7808 183.097 46.6861C182.915 46.5914 182.699 46.544 182.451 46.544C182.214 46.544 181.993 46.5878 181.787 46.6754C181.583 46.7607 181.417 46.8838 181.29 47.0447C181.162 47.2034 181.093 47.3939 181.084 47.6165H180.022C180.034 47.2235 180.15 46.8778 180.37 46.5795C180.592 46.2812 180.886 46.0481 181.251 45.88C181.615 45.7119 182.02 45.6278 182.465 45.6278C182.931 45.6278 183.334 45.719 183.672 45.9013C184.013 46.0812 184.276 46.3215 184.461 46.6222C184.648 46.9228 184.74 47.2519 184.738 47.6094C184.74 48.0166 184.626 48.3622 184.397 48.6463C184.17 48.9304 183.867 49.121 183.488 49.218V49.2749C183.971 49.3482 184.345 49.54 184.61 49.8501C184.877 50.1603 185.01 50.545 185.008 51.0043C185.01 51.4044 184.899 51.763 184.674 52.0803C184.451 52.3975 184.147 52.6473 183.761 52.8295C183.375 53.0095 182.934 53.0994 182.437 53.0994ZM189.109 45.7273V53H188.008V46.8281H187.966L186.226 47.9645V46.9134L188.04 45.7273H189.109ZM194.437 53H193.272L195.889 45.7273H197.157L199.774 53H198.609L196.553 47.0483H196.496L194.437 53ZM194.632 50.152H198.411V51.0753H194.632V50.152ZM200.824 45.7273H202.156L204.471 51.3807H204.557L206.872 45.7273H208.204V53H207.16V47.7372H207.092L204.947 52.9893H204.081L201.936 47.7337H201.868V53H200.824V45.7273Z" fill="#8A8A8A"/>
<path d="M225.25 45L219.25 52.4999L217 50.2499" stroke="#008BDC" stroke-width="1.5" stroke-linecap="round" stroke-linejoin="round"/>
<path d="M229 45L223 52.4999L222.25 51.7499" stroke="#008BDC" stroke-width="1.5" stroke-linecap="round" stroke-linejoin="round"/>
</svg>
