<svg width="52" height="4" viewBox="0 0 52 4" fill="none" xmlns="http://www.w3.org/2000/svg">
<g clip-path="url(#clip0_636_4554)">
<path fill-rule="evenodd" clip-rule="evenodd" d="M14.1391 0.000107219C13.787 0.000494141 13.4354 0.00281567 13.0833 0.00784566C10.5657 0.0438294 8.04819 0.110767 5.53064 0.161841C3.93844 0.194342 2.34573 0.209432 0.755016 0.265923C0.497534 0.274822 0.251008 0.460158 0 0.563853C0.147417 0.741837 0.245032 0.978633 0.452711 1.08426C0.794361 1.25799 1.20823 1.34621 1.59918 1.47312C0.704715 1.82947 0.687284 1.97457 1.40794 2.51936C1.52398 2.6068 1.54589 2.76892 1.61113 2.89699C1.66791 3.00881 1.6943 3.13804 1.78544 3.2282C2.11165 3.54934 2.55391 3.66232 3.07833 3.64917C6.03415 3.57449 8.98997 3.5002 11.9463 3.44294C14.3358 3.39728 16.7269 3.35317 19.1174 3.35124C21.0662 3.34969 23.015 3.4205 24.9638 3.44217C26.2557 3.45648 27.5486 3.44836 28.841 3.43211C29.0263 3.42978 29.2136 3.33344 29.3923 3.26805C29.5955 3.19376 29.7903 3.10477 30.113 2.97089C29.9571 3.29359 29.7524 3.50678 30.2664 3.48124C30.4855 3.47041 30.7081 3.52768 30.9298 3.52884C31.7221 3.53387 32.517 3.54857 33.3084 3.51994C33.905 3.49827 34.4782 3.45184 35.0729 3.61202C35.7552 3.79581 36.4081 3.44062 37.202 3.57372C38.6806 3.82212 40.2554 3.72887 41.7908 3.76525C41.9746 3.7695 42.1669 3.65729 42.3467 3.67122C42.7555 3.70256 43.156 3.79891 43.5643 3.8318C44.1271 3.87668 44.7033 3.84611 45.2562 3.9235C45.7711 3.99624 46.2771 3.91112 46.8001 3.95677C48.0755 4.06666 49.3858 3.94052 50.6812 3.89719C50.8027 3.89293 50.9218 3.80471 51.0378 3.75054C51.1832 3.68283 51.3326 3.61783 51.4661 3.53735C51.6514 3.42553 51.8227 3.30133 52 3.18215C51.8307 3.07962 51.6783 2.93607 51.4865 2.88655C51.3092 2.8405 51.0896 2.8939 50.8884 2.90512C50.1812 2.94536 49.474 3.01307 48.7663 3.01926C48.0646 3.02545 47.3618 2.95929 46.6591 2.94381C44.4229 2.8939 42.1863 2.86178 39.9501 2.80452C38.7155 2.7724 37.4834 2.68844 36.2478 2.65555C35.1038 2.62537 33.9578 2.64627 32.8133 2.61841C31.2684 2.5801 29.725 2.49962 28.1796 2.4679C25.9181 2.42185 23.6555 2.39361 21.3935 2.37697C19.6857 2.36459 17.977 2.38587 16.2687 2.38316C15.8429 2.38239 15.4176 2.34911 14.9918 2.33054C14.9942 2.28798 14.9967 2.24542 14.9992 2.20324C15.4823 2.20324 15.9659 2.21253 16.448 2.20131C17.5526 2.17577 18.6568 2.14598 19.7604 2.10303C19.9487 2.09606 20.1384 1.96141 20.3172 1.97418C21.01 2.0241 21.6963 2.15255 22.389 2.17306C23.5619 2.20711 24.7377 2.18467 25.9121 2.17306C25.9903 2.17229 26.067 2.06318 26.0645 2.06472C27.9974 2.08678 29.8804 2.41334 31.6923 1.96335C31.886 2.0713 31.999 2.18854 32.1161 2.19086C33.0529 2.20788 34.0131 2.29494 34.9165 2.15913C35.2651 2.10612 35.4743 2.15565 35.7497 2.20866C35.8663 2.2311 35.9928 2.22684 36.1148 2.22955C37.2109 2.25431 38.3081 2.26747 39.4038 2.30384C42.0653 2.39167 44.7262 2.48492 47.3877 2.58668C48.1452 2.61609 48.8649 2.62383 49.2563 1.97999C49.2783 1.94323 49.4705 1.98231 49.5233 1.94052C49.7414 1.76795 50.0791 1.58958 50.1055 1.39109C50.1508 1.05292 49.727 1.11057 49.4267 1.1129C48.8614 1.11715 48.2951 1.14346 47.7319 1.12063C45.5749 1.03242 43.4184 0.927172 41.2614 0.830442C40.5029 0.796006 39.7439 0.774725 38.9859 0.735646C37.9221 0.68109 36.8603 0.601771 35.796 0.557662C32.4762 0.419531 29.1583 0.26747 25.8364 0.17074C22.9946 0.0875516 20.1499 0.0678186 17.3061 0.0291264C16.2518 0.0140364 15.195 -0.00144047 14.1391 0.000107219ZM17.4092 0.978246H20.627C20.627 1.01462 20.6275 1.05137 20.6275 1.08775H17.4107C17.4107 1.05099 17.4097 1.01462 17.4092 0.978246ZM13.8035 1.00146H17.0969C17.1009 1.04325 17.1054 1.08542 17.1099 1.12721H13.8039C13.8035 1.08542 13.8035 1.04325 13.8035 1.00146ZM10.2933 2.29997H13.4922C13.4937 2.32551 13.4947 2.35066 13.4962 2.3762H10.2958C10.2948 2.35066 10.2938 2.32551 10.2928 2.29997H10.2933Z" fill="white"/>
</g>
<defs>
<clipPath id="clip0_636_4554">
<rect width="52" height="4" fill="white"/>
</clipPath>
</defs>
</svg>
